<?xml version="1.0" encoding="utf-8"?>
<!-- Generator: Adobe Illustrator 20.1.0, SVG Export Plug-In . SVG Version: 6.00 Build 0)  -->
<svg version="1.1" id="Layer_1" xmlns="http://www.w3.org/2000/svg" xmlns:xlink="http://www.w3.org/1999/xlink" x="0px" y="0px"
	 viewBox="0 0 25 25" style="enable-background:new 0 0 25 25;" xml:space="preserve">
<style type="text/css">
	.st0{fill:none;stroke:#FFFFFF;stroke-width:1.5056;stroke-linecap:round;stroke-linejoin:round;stroke-miterlimit:10;}
	.st1{fill:#FFFFFF;}
</style>
<g>
	<path class="st0" d="M-30.9,6.5c-0.1,0-0.2,0-0.4,0V6.4c0-2.8-2.3-5.1-5.1-5.1c-2.6,0-4.8,1.9-5.1,4.5c-0.2,0-0.3,0-0.5,0
		c-1.5-0.1-2.8,1.1-2.8,2.7c0,0.1,0,0.2,0,0.2c-0.2,0-0.4,0-0.5,0c-2,0-3.7,1.6-3.7,3.7c0,2,1.6,3.7,3.7,3.7c2,0,11.9,0,14.4,0
		c2.6,0,4.8-2.1,4.8-4.8S-28.2,6.5-30.9,6.5z"/>
	<g>
		<g>
			<line class="st0" x1="-43.6" y1="18.3" x2="-45" y2="20.4"/>
			<line class="st0" x1="-37.9" y1="18.3" x2="-39.3" y2="20.4"/>
			<line class="st0" x1="-32.3" y1="18.3" x2="-33.6" y2="20.4"/>
		</g>
		<g>
			<line class="st0" x1="-42.1" y1="21.5" x2="-43.4" y2="23.6"/>
			<line class="st0" x1="-36.4" y1="21.5" x2="-37.8" y2="23.6"/>
		</g>
	</g>
</g>
<g>
	<path class="st1" d="M-30.2-22.3c-2.9,0-5.2-2.3-5.2-5.2c0-2.9,2.3-5.2,5.2-5.2c2.9,0,5.2,2.3,5.2,5.2
		C-25-24.7-27.3-22.3-30.2-22.3z M-30.2-31.8c-2.4,0-4.3,1.9-4.3,4.3c0,2.4,1.9,4.3,4.3,4.3c2.4,0,4.3-1.9,4.3-4.3
		C-25.9-29.9-27.8-31.8-30.2-31.8z"/>
	<g>
		<path class="st1" d="M-34.2-32.1c0.1,0.2,0.1,0.4,0,0.5l0,0c-0.2,0.1-0.4,0.1-0.5,0l-2.7-3.1c-0.1-0.2-0.1-0.4,0-0.5l0,0
			c0.2-0.1,0.4-0.1,0.5,0L-34.2-32.1z"/>
	</g>
	<g>
		<path class="st1" d="M-29.8-33.7c0,0.2-0.2,0.4-0.4,0.4l0,0c-0.2,0-0.4-0.2-0.4-0.4l0-4.1c0-0.2,0.2-0.4,0.4-0.4l0,0
			c0.2,0,0.4,0.2,0.4,0.4L-29.8-33.7z"/>
	</g>
	<g>
		<path class="st1" d="M-36.4-28.5c0.2,0,0.3,0.2,0.3,0.4l0,0c0,0.2-0.2,0.3-0.4,0.3l-4.1-0.3c-0.2,0-0.3-0.2-0.3-0.4l0,0
			c0-0.2,0.2-0.3,0.4-0.3L-36.4-28.5z"/>
	</g>
	<g>
		<path class="st1" d="M-35.7-24.7c0.2-0.1,0.4-0.1,0.5,0.1l0,0c0.1,0.2,0.1,0.4-0.1,0.5l-3.4,2.2c-0.2,0.1-0.4,0.1-0.5-0.1l0,0
			c-0.1-0.2-0.1-0.4,0.1-0.5L-35.7-24.7z"/>
	</g>
	<g>
		<path class="st1" d="M-32.6-22c0.1-0.2,0.3-0.3,0.5-0.2l0,0c0.2,0.1,0.3,0.3,0.2,0.5l-1.4,3.8c-0.1,0.2-0.3,0.3-0.5,0.2l0,0
			c-0.2-0.1-0.3-0.3-0.2-0.5L-32.6-22z"/>
	</g>
	<g>
		<path class="st1" d="M-24.8-23.9c-0.2-0.1-0.2-0.3-0.2-0.5l0,0c0.1-0.2,0.3-0.2,0.5-0.2l3.6,1.9c0.2,0.1,0.2,0.3,0.2,0.5l0,0
			c-0.1,0.2-0.3,0.2-0.5,0.2L-24.8-23.9z"/>
	</g>
	<g>
		<path class="st1" d="M-24-28.3c-0.2,0-0.4-0.1-0.4-0.3l0,0c0-0.2,0.1-0.4,0.3-0.4l4.1-0.5c0.2,0,0.4,0.1,0.4,0.3l0,0
			c0,0.2-0.1,0.4-0.3,0.4L-24-28.3z"/>
	</g>
	<g>
		<path class="st1" d="M-26.7-18.1c0.1,0.2,0,0.4-0.2,0.5l0,0c-0.2,0.1-0.4,0-0.5-0.2l-1.4-3.8c-0.1-0.2,0-0.4,0.2-0.5l0,0
			c0.2-0.1,0.4,0,0.5,0.2L-26.7-18.1z"/>
	</g>
	<g>
		<path class="st1" d="M-26-32c-0.1,0.2-0.3,0.2-0.5,0.1l0,0c-0.2-0.1-0.2-0.3-0.1-0.5l2.5-3.2c0.1-0.2,0.3-0.2,0.5-0.1l0,0
			c0.2,0.1,0.2,0.3,0.1,0.5L-26-32z"/>
	</g>
</g>
<g>
	<path class="st1" d="M-101.3,0.4c0.1,0.2,0.4,0.2,0.6,0c0.2-0.1,0.2-0.4,0-0.6l-3-3.5c-0.2-0.2-0.4-0.2-0.6,0
		c-0.2,0.1-0.2,0.4,0,0.6L-101.3,0.4z"/>
	<path class="st1" d="M-96.6-1c0.2,0,0.4-0.2,0.4-0.4l0-4.6c0-0.2-0.2-0.4-0.4-0.4C-96.8-6.4-97-6.2-97-6l0,4.6
		C-97.1-1.1-96.9-1-96.6-1z"/>
	<path class="st1" d="M-108,2.7l4.5,1c0.2,0,0.4-0.1,0.5-0.3c0-0.2-0.1-0.4-0.3-0.5l-4.5-1c-0.2,0-0.4,0.1-0.5,0.3
		C-108.3,2.5-108.2,2.7-108,2.7z"/>
	<path class="st1" d="M-90.5,3.4c0,0.2,0.3,0.4,0.5,0.3l4.5-0.9c0.2,0,0.4-0.3,0.3-0.5c0-0.2-0.3-0.4-0.5-0.3l-4.5,0.9
		C-90.4,2.9-90.6,3.1-90.5,3.4z"/>
	<path class="st1" d="M-92.1,0.2l3.3-3.2c0.2-0.2,0.2-0.4,0-0.6c-0.2-0.2-0.4-0.2-0.6,0l-3.3,3.2c-0.2,0.2-0.2,0.4,0,0.6
		C-92.6,0.4-92.3,0.4-92.1,0.2z"/>
	<path class="st1" d="M-90.8,5.5c-0.1-3.2-2.7-5.7-5.8-5.7c-3.2,0-5.8,2.5-5.8,5.7h-5.8v0.9h5.9h11.1h6.3V5.5H-90.8z M-96.6,0.7
		c2.6,0,4.8,2.1,4.9,4.8h-9.9C-101.5,2.9-99.3,0.7-96.6,0.7z"/>
</g>
<g>
	<g>
		<path class="st1" d="M-118.7,40.2c0.7,0.4,1.2,1.1,1.4,1.9c0.6,1.8-0.4,3.8-2.3,4.4c-0.2,0.1-0.3,0.1-0.5,0.1
			c0.9,0.5,1.9,0.7,3,0.4c1.8-0.6,2.9-2.6,2.3-4.4C-115.3,40.9-117,39.9-118.7,40.2z"/>
	</g>
</g>
<g>
	<g>
		<path class="st1" d="M-127.6-64.1c0.7,0.4,1.2,1.1,1.4,1.9c0.6,1.8-0.4,3.8-2.3,4.4c-0.2,0.1-0.3,0.1-0.5,0.1
			c0.9,0.5,1.9,0.7,3,0.4c1.8-0.6,2.9-2.6,2.3-4.4C-124.2-63.5-125.9-64.4-127.6-64.1z"/>
	</g>
</g>
<g>
	<g>
		<path class="st1" d="M-108.5-80.7c0.7,0.4,1.2,1.1,1.4,1.9c0.6,1.8-0.4,3.8-2.3,4.4c-0.2,0.1-0.3,0.1-0.5,0.1
			c0.9,0.5,1.9,0.7,3,0.4c1.8-0.6,2.9-2.6,2.3-4.4C-105.1-80-106.8-81-108.5-80.7z"/>
	</g>
</g>
<path class="st1" d="M-77.7-34.2c-1.3-4-5.3-6.3-9.3-5.6c1.6,1,2.8,2.5,3.4,4.4c0.9,2.8,0.3,5.6-1.4,7.7c0,0-0.1,0-0.1-0.1
	c0,0,0-0.1,0-0.1c0-1.5-1.2-2.8-2.7-2.8c-0.5,0-0.9,0.1-1.3,0.3c-0.3-1.4-1.6-2.4-3.1-2.4l-0.2,0c-1.5,0.1-2.8,1.2-3,2.6
	c-0.2-0.1-0.5-0.1-0.7-0.1c-1.5,0-2.7,1.2-2.8,2.7c-0.7,0.2-1.8,0.7-1.8,2.2c0,1.3,1.1,2.3,2.5,2.3l0.1,0c0.8,0,4.2,0,4.2,0v-0.1
	c0,0,0,0,0,0l0,0.1l0-0.1c0.5,0.1,1.6,0.1,3.9,0.1c0,0,1.8,0,3.1,0c0.5,0,0.9,0,1.2,0c0.4,0,0.9-0.2,1.2-0.5c0.5-0.1,1-0.2,1.6-0.3
	C-78.7-25.2-76.3-29.9-77.7-34.2z M-94-23.9l0,0.2L-94-23.9c0,0-1.6,0-2.8,0c-0.6,0-1.1,0-1.5,0c-0.9,0-1.6-0.6-1.6-1.4
	c0-0.9,0.5-1.2,1.5-1.5l0.3-0.1l0-0.5c0,0,0-0.1,0-0.2c0-1,0.8-1.9,1.9-1.9c0.3,0,0.6,0.1,0.9,0.2l0.7,0.4l0-0.8
	c0-1.2,1-2.3,2.3-2.3l0.1,0c1.3,0,2.3,1,2.4,2.2c0,0,0,0.1,0,0.2l0,1.1l0.8-0.8c0.4-0.4,0.8-0.6,1.3-0.6c1,0,1.9,0.8,1.9,1.9
	c0,0.1,0,0.3,0,0.4l-0.1,0.4l0.4,0.1c0,0,0,0,0,0c-0.9,0.9-2,1.6-3.3,2c-0.4,0.1-0.8,0.2-1.1,0.3c0.5,0.3,1.1,0.6,1.7,0.8
	c-0.9,0-1.8,0-1.8,0C-90.1-23.9-93.8-23.9-94-23.9z"/>
<g>
	<path class="st1" d="M51.7,9.2c0.1,0.1,0.2,0.1,0.3,0c0.1-0.1,0.1-0.2,0-0.3l-1.6-1.8c-0.1-0.1-0.2-0.1-0.3,0
		c-0.1,0.1-0.1,0.2,0,0.3L51.7,9.2z"/>
	<path class="st1" d="M54.3,8.1c0.1,0,0.2-0.1,0.2-0.2l0-2.4c0-0.1-0.1-0.2-0.2-0.2c-0.1,0-0.2,0.1-0.2,0.2l0,2.4
		C54.1,8,54.2,8.1,54.3,8.1z"/>
	<path class="st1" d="M59.7,14.4l-2.1-1.1c-0.1-0.1-0.2,0-0.3,0.1c-0.1,0.1,0,0.2,0.1,0.3l2.1,1.1c0.1,0.1,0.2,0,0.3-0.1
		C59.9,14.5,59.9,14.4,59.7,14.4z"/>
	<path class="st1" d="M60.2,10.4l-2.4,0.3c-0.1,0-0.2,0.1-0.2,0.2c0,0.1,0.1,0.2,0.2,0.2l2.4-0.3c0.1,0,0.2-0.1,0.2-0.2
		C60.5,10.4,60.4,10.4,60.2,10.4z"/>
	<path class="st1" d="M55.6,14.7c0-0.1-0.2-0.2-0.3-0.1c-0.1,0-0.2,0.2-0.1,0.3l0.8,2.2c0,0.1,0.2,0.2,0.3,0.1
		c0.1,0,0.2-0.2,0.1-0.3L55.6,14.7z"/>
	<path class="st1" d="M56.8,8.9l1.5-1.9c0.1-0.1,0.1-0.2,0-0.3c-0.1-0.1-0.2-0.1-0.3,0l-1.5,1.9c-0.1,0.1-0.1,0.2,0,0.3
		C56.6,9,56.7,9,56.8,8.9z"/>
	<path class="st1" d="M54.3,8.4c-1.7,0-3.1,1.4-3.1,3.1c0,0.2,0,0.4,0,0.5c0.2,0,0.5,0.1,0.7,0.1c-0.1-0.2-0.1-0.4-0.1-0.7
		c0-1.3,1.1-2.4,2.4-2.4c1.3,0,2.4,1.1,2.4,2.4c0,1.3-1.1,2.4-2.4,2.4c-0.2,0-0.4,0-0.6-0.1c0.1,0.2,0.1,0.5,0.1,0.7
		c0.2,0,0.3,0,0.5,0c1.7,0,3.1-1.4,3.1-3.1C57.4,9.8,56,8.4,54.3,8.4z"/>
	<path class="st1" d="M53.9,15c0-0.1,0-0.1,0-0.2c0-0.1,0-0.1,0-0.2c0-0.2-0.1-0.5-0.1-0.7c-0.3-0.8-0.9-1.4-1.7-1.7
		c-0.2-0.1-0.5-0.1-0.7-0.1c0,0-0.1,0-0.1,0c-0.5,0-1,0.1-1.4,0.4c-0.1-0.4-0.3-0.8-0.5-1.2l1.5,0.1c0.1,0,0.2-0.1,0.2-0.2
		c0-0.1-0.1-0.2-0.2-0.2l-1.9-0.2c-0.6-0.6-1.5-1-2.5-0.9c-1.6,0.1-2.8,1.2-3,2.7c-0.3-0.1-0.6-0.1-0.9-0.1c-1.5,0-2.7,1.2-2.7,2.7
		c0,0,0,0.1,0,0.1C39,15.4,38,15.8,38,17.4c0,1.2,1.1,2.2,2.4,2.2l0.1,0c0.8,0,4.3,0,4.3,0l0-0.1c0,0,0,0,0,0l0,0.1l0-0.1
		c0.5,0.1,1.5,0.1,4,0.1c0,0,1.9,0,3.2,0c0,0,0,0,0,0c0.5,0,0.9,0,1.2,0c0.6,0,1.2-0.3,1.7-0.9c0.4-0.5,0.6-1.1,0.6-1.8
		C55.5,16.1,54.8,15.3,53.9,15z M54.4,18.4c-0.3,0.4-0.7,0.6-1.2,0.6c-0.2,0-0.7,0-1.2,0c0,0,0,0,0,0c-1.3,0-3.2,0-3.2,0
		c-1.5,0-3.9,0-4,0l0,0.2l0-0.2c0,0-1.6,0-2.9,0c-0.6,0-1.2,0-1.4,0l-0.1,0c-1,0-1.8-0.7-1.8-1.6c0-1,0.6-1.4,1.6-1.6l0.2-0.1l0-0.2
		l0-0.1c0-0.1,0-0.1,0-0.2c0-1.1,0.9-2.1,2.1-2.1c0.3,0,0.7,0.1,1,0.3l0.5,0.3l0-0.6c0-1.3,1-2.5,2.4-2.5l0.1,0
		c0.6,0,1.2,0.2,1.6,0.6c0,0,0.1,0.1,0.1,0.1c0.5,0.4,0.8,1,0.8,1.7c0,0,0,0.1,0,0.2l0,0.9l0.6-0.6c0.4-0.4,0.9-0.6,1.5-0.6
		c0.1,0,0.2,0,0.3,0c0.8,0.1,1.5,0.8,1.7,1.6c0,0.1,0,0.3,0,0.4c0,0.1,0,0.3,0,0.4l-0.1,0.3l0.3,0.1c0.8,0.1,1.4,0.8,1.4,1.5
		C54.9,17.5,54.7,18,54.4,18.4z"/>
</g>
<g>
	<path class="st1" d="M-130.8-62.1c-0.7-0.7-1.7-1.1-2.8-1.1c-1.8,0.1-3.2,1.4-3.4,3c-0.3-0.1-0.6-0.2-1-0.2c-1.7,0-3.1,1.4-3.1,3.1
		c0,0,0,0.1,0,0.1c-0.9,0.2-2.1,0.7-2.1,2.5c0,1.4,1.2,2.5,2.8,2.5l0.1,0c0.9,0,4.8,0,4.8,0l0-0.1c0,0,0,0,0,0l0,0.1l0-0.1
		c0.5,0.1,1.7,0.1,4.5,0.1c0,0,2.1,0,3.6,0c0,0,0,0,0,0c0.6,0,1.1,0,1.3,0c0.7,0,1.4-0.4,1.9-1c0.5-0.6,0.7-1.3,0.7-2
		c-0.1-1.1-0.8-2-1.9-2.3c0-0.1,0-0.2,0-0.3c0-0.1,0-0.1,0-0.2c0-0.3-0.1-0.5-0.2-0.8c-0.3-0.9-1-1.6-1.9-1.9
		c-0.3-0.1-0.5-0.1-0.8-0.2c-0.1,0-0.1,0-0.2,0c-0.6,0-1.1,0.2-1.6,0.4c-0.1-0.5-0.3-0.9-0.6-1.3 M-124.6-53.5
		c-0.4,0.4-0.8,0.7-1.3,0.7c-0.3,0-0.7,0-1.3,0c0,0,0,0,0,0c-1.5,0-3.6,0-3.6,0c-1.7,0-4.4,0-4.5,0l0,0.2l0-0.2c0,0-1.8,0-3.3,0
		c-0.7,0-1.3,0-1.6,0l-0.1,0c-1.1,0-2-0.8-2-1.8c0-1.2,0.6-1.5,1.8-1.8l0.3-0.1l0-0.3l0-0.2c0-0.1,0-0.1,0-0.2c0-1.3,1-2.3,2.3-2.3
		c0.4,0,0.8,0.1,1.1,0.3l0.6,0.3l0-0.7c0-1.5,1.2-2.8,2.7-2.9l0.2,0c0.7,0,1.3,0.2,1.8,0.6c0,0,0.1,0.1,0.1,0.1
		c0.5,0.5,0.9,1.2,0.9,1.9c0,0.1,0,0.1,0,0.2l0,1l0.7-0.7c0.4-0.4,1-0.7,1.7-0.7c0.1,0,0.3,0,0.4,0c0.9,0.2,1.7,0.9,1.9,1.8
		c0,0.1,0,0.3,0,0.4c0,0.2,0,0.3,0,0.5l-0.1,0.4l0.4,0.1c0.9,0.2,1.6,0.9,1.6,1.7C-124-54.5-124.2-54-124.6-53.5z"/>
	<g>
		<path class="st1" d="M-137.2-58.9c-0.5-0.5-1.3-0.8-2-0.8c-1.3,0.1-2.3,1-2.5,2.2c-0.2-0.1-0.5-0.1-0.7-0.1c-1.2,0-2.3,1-2.3,2.3
			c0,0,0,0,0,0.1c-0.6,0.2-1.5,0.5-1.5,1.8c0,1,0.9,1.9,2,1.9l0.1,0c0.7,0,3.6,0,3.6,0l0,0c0,0,0,0,0,0l0,0l0,0
			c0.4,0.1,1.3,0.1,3.3,0.1c0,0,1.5,0,2.7,0c0,0,0,0,0,0c0.4,0,0.8,0,1,0c0.5,0,1-0.3,1.4-0.7c0.3-0.4,0.5-0.9,0.5-1.5
			c0-0.8-0.6-1.5-1.4-1.7c0-0.1,0-0.1,0-0.2c0-0.1,0-0.1,0-0.2c0-0.2-0.1-0.4-0.1-0.6c-0.2-0.7-0.8-1.2-1.4-1.4
			c-0.2-0.1-0.4-0.1-0.6-0.1c0,0-0.1,0-0.1,0c-0.4,0-0.8,0.1-1.2,0.3c-0.1-0.4-0.2-0.7-0.4-1 M-140.6-52.1 M-137.7-58.6
			 M-139.3-59.1l0.1,0 M-144.2-54.8l0-0.2"/>
	</g>
</g>
<g>
	<path class="st1" d="M89.9-14.7c1.7-0.7,2.6-2.5,2-4.3c-0.5-1.7-2.2-2.6-3.9-2.4c0.7,0.4,1.2,1.1,1.4,1.9c0.3,1,0.2,1.9-0.3,2.8
		c-0.5-0.6-1.2-1-2.1-1c-0.5,0-1,0.1-1.4,0.4c-0.3-1.5-1.7-2.7-3.4-2.6c-1.6,0.1-2.8,1.2-3,2.7c-0.3-0.1-0.6-0.1-0.9-0.1
		c-1.5,0-2.7,1.2-2.7,2.7c0,0,0,0.1,0,0.1c-0.8,0.2-1.8,0.7-1.8,2.2c0,1.2,1.1,2.2,2.4,2.2l0.1,0c0.8,0,4.3,0,4.3,0l0-0.1
		c0,0,0,0,0,0l0,0.1l0-0.1c0.5,0.1,1.5,0.1,4,0.1c0,0,1.9,0,3.2,0c0.5,0,1,0,1.2,0c1.3-0.1,2.4-1.3,2.3-2.6
		C91.4-13.6,90.8-14.3,89.9-14.7z M89.1-10.7c-0.9,0-4.4,0-4.4,0c-1.5,0-3.9,0-4,0l0,0.2l0-0.2c0,0-1.6,0-2.9,0c-0.6,0-1.2,0-1.5,0
		l-0.1,0c-1,0-1.8-0.7-1.8-1.6c0-1,0.6-1.4,1.6-1.6l0.3-0.1l0-0.4c0-0.1,0-0.1,0-0.2c0-1.1,0.9-2.1,2.1-2.1c0.3,0,0.7,0.1,1,0.3
		l0.5,0.3l0-0.6c0-1.4,1-2.5,2.4-2.5l0.1,0c1.4,0,2.5,1,2.6,2.4c0,0,0,0.1,0,0.2l0,0.9l0.6-0.6c0.4-0.4,0.9-0.6,1.5-0.6
		c0.7,0,1.3,0.3,1.7,0.9c-0.4,0.5-0.9,0.8-1.6,1C87-15,86.9-15,86.7-14.9c0.7,0.4,1.5,0.6,2.4,0.5L89-14.2l0.3,0.1
		c0.8,0.1,1.4,0.8,1.4,1.5C90.8-11.7,90.1-10.7,89.1-10.7z"/>
	<polygon class="st1" points="86.3,-19.2 86.8,-19.5 87.3,-19.3 87.2,-19.8 87.5,-20.3 87,-20.3 86.7,-20.8 86.4,-20.3 85.9,-20.1 
		86.3,-19.8 	"/>
	<polygon class="st1" points="84.4,-21 84.9,-21.2 85.3,-21 85.2,-21.5 85.5,-21.9 85,-21.9 84.8,-22.3 84.6,-21.9 84.1,-21.8 
		84.5,-21.5 	"/>
</g>
<g>
	<path class="st1" d="M13.6-49c-0.9-1.1-0.8-3.1-0.8-2.5C12.6-49.9,12-49,12-49c-0.1,0.1-0.1,0.2-0.1,0.3c0,0.4,0.4,0.8,0.9,0.8
		c0.5,0,0.9-0.4,0.9-0.8C13.6-48.8,13.6-48.9,13.6-49L13.6-49z"/>
	<path class="st1" d="M18-63.6c-1.4,0-2.6,1.1-2.6,2.6c0,0.5,0.1,0.9,0.4,1.3c-0.2,0-0.4-0.1-0.6-0.1c-0.5,0-1,0.1-1.5,0.4
		c-0.3-1.6-1.7-2.7-3.4-2.7c-1.6,0.1-2.9,1.3-3.1,2.8c-0.3-0.1-0.6-0.2-0.9-0.2c-1.5,0-2.8,1.2-2.8,2.8c0,0,0,0.1,0,0.1
		c-0.8,0.2-1.9,0.7-1.9,2.2c0,1.2,1,2.2,2.3,2.2l0.4-0.6c0,0-0.1,0-0.1,0l-0.1,0c-1,0-1.8-0.7-1.8-1.6c0-1.1,0.6-1.4,1.7-1.7
		l0.2-0.1l0-0.2l0-0.1c0-0.1,0-0.1,0-0.2c0-1.2,1-2.1,2.1-2.1c0.4,0,0.7,0.1,1,0.3l0.5,0.3l0-0.6c0-1.4,1.1-2.5,2.5-2.6l0.1,0
		c1.4,0,2.6,1.1,2.6,2.4c0,0,0,0.1,0,0.2l0,0.8l0.6-0.6c0.4-0.4,0.9-0.6,1.5-0.6c1.2,0,2.1,1,2.1,2.1c0,0.1,0,0.3,0,0.4l-0.1,0.3
		l0.3,0.1c0.8,0.1,1.4,0.8,1.5,1.6c0,0.8-0.5,1.7-1.3,1.9l0.2,0.6c1-0.3,1.8-1.4,1.7-2.5c0-1-0.7-1.8-1.7-2.1c0-0.1,0-0.2,0-0.2
		c0-0.6-0.2-1.1-0.4-1.5c0.1,0,0.3,0,0.4,0c1.4,0,2.6-1.1,2.6-2.6C20.6-62.4,19.4-63.6,18-63.6z M18-58.9c-1.2,0-2.1-0.9-2.1-2.1
		c0-1.2,0.9-2.1,2.1-2.1s2.1,0.9,2.1,2.1C20.1-59.9,19.2-58.9,18-58.9z"/>
	<path class="st1" d="M15.8-63c0.1,0.1,0.2,0.1,0.2,0c0.1-0.1,0.1-0.2,0-0.3l-1.3-1.5c-0.1-0.1-0.2-0.1-0.2,0
		c-0.1,0.1-0.1,0.2,0,0.2L15.8-63z"/>
	<path class="st1" d="M18-63.9c0.1,0,0.2-0.1,0.2-0.2l0-2c0-0.1-0.1-0.2-0.2-0.2c-0.1,0-0.2,0.1-0.2,0.2l0,2
		C17.8-64,17.9-63.9,18-63.9z"/>
	<path class="st1" d="M13-61.3l2,0.2c0.1,0,0.2-0.1,0.2-0.2c0-0.1-0.1-0.2-0.2-0.2l-2-0.2c-0.1,0-0.2,0.1-0.2,0.2
		C12.8-61.4,12.9-61.3,13-61.3z"/>
	<path class="st1" d="M22.6-58.6l-1.8-0.9c-0.1,0-0.2,0-0.2,0.1c0,0.1,0,0.2,0.1,0.2l1.8,0.9c0.1,0,0.2,0,0.2-0.1
		C22.7-58.5,22.7-58.6,22.6-58.6z"/>
	<path class="st1" d="M23-62l-2,0.2c-0.1,0-0.2,0.1-0.2,0.2c0,0.1,0.1,0.2,0.2,0.2l2-0.2c0.1,0,0.2-0.1,0.2-0.2
		C23.2-61.9,23.1-62,23-62z"/>
	<path class="st1" d="M18.9-58.4c-0.1,0-0.1,0.1-0.1,0.2l0.7,1.9c0,0.1,0.1,0.1,0.2,0.1c0.1,0,0.1-0.1,0.1-0.2l-0.7-1.9
		C19.1-58.4,19-58.4,18.9-58.4z"/>
	<path class="st1" d="M20.1-63.2l1.2-1.6c0.1-0.1,0-0.2,0-0.2c-0.1-0.1-0.2,0-0.2,0l-1.2,1.6c-0.1,0.1,0,0.2,0,0.2
		C19.9-63.1,20-63.1,20.1-63.2z"/>
	<path class="st1" d="M7.5-49.6c-1.1-1.4-1-3.9-1-3.1c-0.1,2.1-0.9,3.1-0.9,3.1c-0.1,0.1-0.1,0.3-0.1,0.4c0,0.5,0.5,1,1.1,1
		c0.6,0,1.1-0.4,1.1-1C7.6-49.3,7.6-49.5,7.5-49.6L7.5-49.6z"/>
	<path class="st1" d="M10.9-51.5c-0.9-1.2-0.9-3.4-0.9-2.7c-0.1,1.8-0.8,2.7-0.8,2.7c-0.1,0.1-0.1,0.2-0.1,0.4c0,0.5,0.4,0.9,1,0.9
		c0.5,0,1-0.4,1-0.9C11-51.3,11-51.4,10.9-51.5L10.9-51.5z"/>
	<path class="st1" d="M14.1-53.9c-0.1,1-0.5,1.6-0.5,1.6c0,0.1-0.1,0.1-0.1,0.2c0,0.3,0.2,0.5,0.6,0.5c0.3,0,0.6-0.2,0.6-0.5
		c0-0.1,0-0.1-0.1-0.2C14.1-53.1,14.1-54.3,14.1-53.9z"/>
</g>
<g>
	<path class="st1" d="M37.9-22c-1.1-1.4-1-3.9-1-3.1C36.8-23,35.9-22,35.9-22c-0.1,0.1-0.1,0.3-0.1,0.4c0,0.5,0.5,1,1.1,1
		c0.6,0,1.1-0.4,1.1-1C38-21.7,38-21.8,37.9-22L37.9-22z"/>
	<path class="st1" d="M40.4-26.6c-0.1,1.8-0.8,2.7-0.8,2.7c-0.1,0.1-0.1,0.2-0.1,0.4c0,0.5,0.4,0.9,1,0.9c0.5,0,1-0.4,1-0.9
		c0-0.1,0-0.3-0.1-0.4C40.4-25.1,40.4-27.3,40.4-26.6z"/>
	<path class="st1" d="M43.9-21.4c-0.9-1.1-0.8-3.1-0.8-2.5c-0.1,1.6-0.8,2.5-0.8,2.5c-0.1,0.1-0.1,0.2-0.1,0.3
		c0,0.4,0.4,0.8,0.9,0.8c0.5,0,0.9-0.4,0.9-0.8C44-21.2,44-21.3,43.9-21.4L43.9-21.4z"/>
	<path class="st1" d="M45-24.7c-0.5-0.7-0.5-2-0.5-1.6c-0.1,1-0.5,1.6-0.5,1.6c0,0.1-0.1,0.1-0.1,0.2c0,0.3,0.2,0.5,0.6,0.5
		c0.3,0,0.6-0.2,0.6-0.5C45-24.6,45-24.7,45-24.7L45-24.7z"/>
	<path class="st1" d="M50.9-32.4c-0.5-1.7-2.2-2.6-3.9-2.4c0.7,0.4,1.2,1.1,1.4,1.9c0.3,0.9,0.2,1.8-0.2,2.6
		c-0.4-1.1-1.4-1.8-2.6-1.8c-0.5,0-1,0.1-1.5,0.4c-0.3-1.6-1.7-2.7-3.4-2.7c-1.6,0.1-2.9,1.3-3.1,2.8c-0.3-0.1-0.6-0.2-0.9-0.2
		c-1.5,0-2.8,1.2-2.8,2.8c0,0,0,0.1,0,0.1c-0.8,0.2-1.9,0.7-1.9,2.2c0,1.2,1,2.2,2.3,2.2l0.4-0.6c0,0-0.1,0-0.1,0l-0.1,0
		c-1,0-1.8-0.7-1.8-1.6c0-1.1,0.6-1.4,1.7-1.7l0.2-0.1l0-0.2l0-0.1c0-0.1,0-0.1,0-0.2c0-1.2,1-2.1,2.1-2.1c0.4,0,0.7,0.1,1,0.3
		l0.5,0.3l0-0.6c0-1.4,1.1-2.5,2.5-2.6l0.1,0c1.4,0,2.6,1.1,2.6,2.4c0,0,0,0.1,0,0.2l0,0.8l0.6-0.6c0.4-0.4,0.9-0.6,1.5-0.6
		c1.1,0,2,0.8,2.1,1.9c-0.4,0.5-0.9,0.9-1.6,1.1c-0.2,0.1-0.3,0.1-0.5,0.1c0.8,0.5,1.9,0.7,2.9,0.4c0.1,0,0.2-0.1,0.3-0.1
		c0.3,0.3,0.5,0.7,0.5,1.1c0,0.8-0.5,1.7-1.3,1.9l0.2,0.6c1-0.3,1.8-1.4,1.7-2.5c0-0.5-0.2-1-0.6-1.4C50.8-29.3,51.4-30.9,50.9-32.4
		z"/>
</g>
<g>
	<g>
		<path class="st1" d="M-116.1,46.4c0-0.1,0-0.2,0-0.2c0-1.5-1.2-2.8-2.8-2.8c-0.5,0-1,0.1-1.5,0.4c-0.3-1.6-1.7-2.7-3.4-2.7
			c-1.6,0.1-2.9,1.3-3.1,2.8c-0.3-0.1-0.6-0.2-0.9-0.2c-1.5,0-2.8,1.2-2.8,2.8c0,0,0,0.1,0,0.1c-0.8,0.2-1.9,0.7-1.9,2.2
			c0,1.2,1,2.2,2.3,2.2l0.4-0.6c0,0-0.1,0-0.1,0l-0.1,0c-1,0-1.8-0.7-1.8-1.6c0-1.1,0.6-1.4,1.7-1.7l0.2-0.1l0-0.2l0-0.1
			c0-0.1,0-0.1,0-0.2c0-1.2,1-2.1,2.1-2.1c0.4,0,0.7,0.1,1,0.3l0.5,0.3l0-0.6c0-1.4,1.1-2.5,2.5-2.6l0.1,0c1.4,0,2.6,1.1,2.6,2.4
			c0,0,0,0.1,0,0.2l0,0.8l0.6-0.6c0.4-0.4,0.9-0.6,1.5-0.6c1.2,0,2.1,1,2.1,2.1c0,0.1,0,0.3,0,0.4l-0.1,0.3l0.3,0.1
			c0.8,0.1,1.4,0.8,1.5,1.6c0,0.8-0.5,1.7-1.3,1.9l0.2,0.6c1-0.3,1.8-1.4,1.7-2.5C-114.4,47.5-115.1,46.7-116.1,46.4z"/>
	</g>
	<g>
		<path class="st1" d="M-127.9,57.8c0,0.1-0.1,0.1-0.2,0.1l0,0c-0.1,0-0.2-0.1-0.2-0.1V50c0-0.1,0.1-0.1,0.2-0.1l0,0
			c0.1,0,0.2,0.1,0.2,0.1V57.8z"/>
	</g>
	<g>
		<path class="st1" d="M-126,58.9c0,0.1-0.1,0.1-0.2,0.1l0,0c-0.1,0-0.2-0.1-0.2-0.1v-7.7c0-0.1,0.1-0.1,0.2-0.1l0,0
			c0.1,0,0.2,0.1,0.2,0.1V58.9z"/>
	</g>
	<g>
		<path class="st1" d="M-123.3,57.3c0,0.1-0.1,0.1-0.2,0.1l0,0c-0.1,0-0.2-0.1-0.2-0.1v-7.7c0-0.1,0.1-0.1,0.2-0.1l0,0
			c0.1,0,0.2,0.1,0.2,0.1V57.3z"/>
	</g>
	<g>
		<path class="st1" d="M-121.1,59.7c0,0.1-0.1,0.1-0.2,0.1l0,0c-0.1,0-0.2-0.1-0.2-0.1V52c0-0.1,0.1-0.1,0.2-0.1l0,0
			c0.1,0,0.2,0.1,0.2,0.1V59.7z"/>
	</g>
	<g>
		<path class="st1" d="M-119.1,57.3c0,0.1-0.1,0.1-0.2,0.1l0,0c-0.1,0-0.2-0.1-0.2-0.1v-7.7c0-0.1,0.1-0.1,0.2-0.1l0,0
			c0.1,0,0.2,0.1,0.2,0.1V57.3z"/>
	</g>
</g>
<path class="st1" d="M-139.1-8.6c0-0.1,0-0.2,0-0.2c0-1.5-1.2-2.8-2.8-2.8c-0.5,0-1,0.1-1.5,0.4c-0.3-1.6-1.7-2.7-3.4-2.7
	c-1.6,0.1-2.9,1.3-3.1,2.8c-0.3-0.1-0.6-0.2-0.9-0.2c-1.5,0-2.8,1.2-2.8,2.8c0,0,0,0.1,0,0.1c-0.8,0.2-1.9,0.7-1.9,2.2
	c0,1.2,1,2.2,2.3,2.2l0.4-0.6c0,0-0.1,0-0.1,0l-0.1,0c-1,0-1.8-0.7-1.8-1.6c0-1.1,0.6-1.4,1.7-1.7l0.2-0.1l0-0.2l0-0.1
	c0-0.1,0-0.1,0-0.2c0-1.2,0.9-2.1,2.1-2.1c0.4,0,0.7,0.1,1,0.3l0.5,0.3l0-0.6c0-1.4,1.1-2.5,2.5-2.6l0.1,0c1.4,0,2.6,1.1,2.6,2.4
	c0,0,0,0.1,0,0.2l0,0.8l0.6-0.6c0.4-0.4,0.9-0.6,1.5-0.6c1.2,0,2.1,1,2.1,2.1c0,0.1,0,0.3,0,0.4l-0.1,0.3l0.3,0.1
	c0.8,0.1,1.4,0.8,1.5,1.6c0,0.8-0.5,1.7-1.3,1.9l0.2,0.6c1-0.3,1.8-1.4,1.7-2.5C-137.4-7.5-138.1-8.4-139.1-8.6z"/>
<path class="st1" d="M-151.7-2.1L-151.7-2.1c-0.8-1.1-0.8-3-0.8-2.4c-0.1,1.6-0.7,2.4-0.7,2.4l0,0c-0.1,0.1-0.1,0.2-0.1,0.3
	c0,0.4,0.4,0.8,0.8,0.8c0.5,0,0.8-0.3,0.8-0.8C-151.6-1.9-151.6-2-151.7-2.1z"/>
<g>
	<path class="st1" d="M-147.8-4.2L-147.8-4.2c-0.7-0.9-0.7-2.6-0.7-2.1c-0.1,1.4-0.6,2.1-0.6,2.1l0,0c0,0.1-0.1,0.2-0.1,0.3
		c0,0.4,0.3,0.7,0.7,0.7c0.4,0,0.7-0.3,0.7-0.7C-147.8-4.1-147.8-4.2-147.8-4.2z"/>
</g>
<g>
	<path class="st1" d="M-143.8-1.5L-143.8-1.5c-0.5-0.7-0.5-1.9-0.5-1.5c-0.1,1-0.5,1.5-0.5,1.5l0,0c0,0.1-0.1,0.1-0.1,0.2
		c0,0.3,0.2,0.5,0.5,0.5c0.3,0,0.5-0.2,0.5-0.5C-143.8-1.4-143.8-1.5-143.8-1.5z"/>
</g>
<g>
	<path class="st1" d="M-141.9-4.8L-141.9-4.8c-0.6-0.8-0.6-2.2-0.6-1.8c-0.1,1.2-0.5,1.8-0.5,1.8l0,0c0,0.1-0.1,0.2-0.1,0.2
		c0,0.3,0.3,0.6,0.6,0.6c0.3,0,0.6-0.3,0.6-0.6C-141.8-4.6-141.8-4.7-141.9-4.8z"/>
</g>
<g>
	<polygon class="st1" points="-148.9,6.5 -148.8,6.4 -145.2,0.8 -148.7,0.8 -145.7,-4 -145.4,-4 -147.5,0.2 -143.7,0.2 	"/>
</g>
<g>
	<polygon class="st1" points="-86,42.9 -86.3,42.9 -89.3,47.7 -85.8,47.7 -89.4,53.3 -89.5,53.4 -84.3,47.1 -88.1,47.1 	"/>
	<path class="st1" d="M-91.5,46.8c-1.1-1.4-1-3.9-1-3.1c-0.1,2.1-0.9,3.1-0.9,3.1c-0.1,0.1-0.1,0.3-0.1,0.4c0,0.5,0.5,1,1.1,1
		c0.6,0,1.1-0.4,1.1-1C-91.4,47-91.5,46.9-91.5,46.8L-91.5,46.8z"/>
	<path class="st1" d="M-88,43.5c0-0.1,0-0.3-0.1-0.4h0c-0.9-1.2-0.9-3.4-0.9-2.7c-0.1,1.8-0.8,2.7-0.8,2.7c-0.1,0.1-0.1,0.2-0.1,0.4
		c0,0.5,0.4,0.9,1,0.9C-88.5,44.4-88,44-88,43.5z"/>
	<path class="st1" d="M-85,42.4c-0.1,1-0.5,1.6-0.5,1.6c0,0.1-0.1,0.1-0.1,0.2c0,0.3,0.2,0.5,0.6,0.5c0.3,0,0.6-0.2,0.6-0.5
		c0-0.1,0-0.1-0.1-0.2h0C-85,43.3-85,42-85,42.4z"/>
	<path class="st1" d="M-78.6,36.3c-0.5-1.7-2.2-2.6-3.9-2.4c0.7,0.4,1.2,1.1,1.4,1.9c0.3,0.9,0.2,1.8-0.2,2.6
		c-0.4-1.1-1.4-1.8-2.6-1.8c-0.5,0-1,0.1-1.5,0.4c-0.3-1.6-1.7-2.7-3.4-2.7c-1.6,0.1-2.9,1.3-3.1,2.8c-0.3-0.1-0.6-0.2-0.9-0.2
		c-1.5,0-2.8,1.2-2.8,2.8c0,0,0,0.1,0,0.1c-0.8,0.2-1.9,0.7-1.9,2.2c0,1.2,1,2.2,2.3,2.2l0.4-0.6c0,0-0.1,0-0.1,0l-0.1,0
		c-1,0-1.8-0.7-1.8-1.6c0-1.1,0.6-1.4,1.7-1.7l0.2-0.1l0-0.2l0-0.1c0-0.1,0-0.1,0-0.2c0-1.2,1-2.1,2.1-2.1c0.4,0,0.7,0.1,1,0.3
		l0.5,0.3l0-0.6c0-1.4,1.1-2.5,2.5-2.6l0.1,0c1.4,0,2.6,1.1,2.6,2.4c0,0,0,0.1,0,0.2l0,0.8l0.6-0.6c0.4-0.4,0.9-0.6,1.5-0.6
		c1.1,0,2,0.8,2.1,1.9c-0.4,0.5-0.9,0.9-1.6,1.1c-0.2,0.1-0.3,0.1-0.5,0.1c0.8,0.5,1.9,0.7,2.9,0.4c0.1,0,0.2-0.1,0.3-0.1
		c0.3,0.3,0.5,0.7,0.5,1.1c0,0.8-0.5,1.7-1.3,1.9l0.2,0.6c1-0.3,1.8-1.4,1.7-2.5c0-0.5-0.2-1-0.6-1.4
		C-78.7,39.4-78.1,37.8-78.6,36.3z"/>
</g>
<g>
	<g>
		<path class="st1" d="M-32,59.8c0-0.1,0-0.2,0-0.2c0-1.5-1.2-2.8-2.8-2.8c-0.5,0-1,0.1-1.5,0.4c-0.3-1.6-1.7-2.7-3.4-2.7
			c-1.6,0.1-2.9,1.3-3.1,2.8c-0.3-0.1-0.6-0.2-0.9-0.2c-1.5,0-2.8,1.2-2.8,2.8c0,0,0,0.1,0,0.1c-0.8,0.2-1.9,0.7-1.9,2.2
			c0,1.2,1,2.2,2.3,2.2l0.4-0.6c0,0-0.1,0-0.1,0l-0.1,0c-1,0-1.8-0.7-1.8-1.6c0-1.1,0.6-1.4,1.7-1.7l0.2-0.1l0-0.2l0-0.1
			c0-0.1,0-0.1,0-0.2c0-1.2,1-2.1,2.1-2.1c0.4,0,0.7,0.1,1,0.3l0.5,0.3l0-0.6c0-1.4,1.1-2.5,2.5-2.6l0.1,0c1.4,0,2.6,1.1,2.6,2.4
			c0,0,0,0.1,0,0.2l0,0.8l0.6-0.6c0.4-0.4,0.9-0.6,1.5-0.6c1.2,0,2.1,1,2.1,2.1c0,0.1,0,0.3,0,0.4l-0.1,0.3l0.3,0.1
			c0.8,0.1,1.4,0.8,1.5,1.6c0,0.8-0.5,1.7-1.3,1.9l0.2,0.6c1-0.3,1.8-1.4,1.7-2.5C-30.4,61-31,60.1-32,59.8z"/>
	</g>
	<g>
		<path class="st1" d="M-44.6,65.8h0.2v-0.2h-0.2V65.8z M-43.9,66.1l0.1,0.1l0.1-0.1l-0.1-0.1L-43.9,66.1z M-44.8,64.8L-45,65
			l0.1,0.1l0.1-0.1L-44.8,64.8z M-43.1,65.8h0.2v-0.2h-0.2V65.8z M-44.4,64.1h-0.2v0.2h0.2V64.1z M-42.9,64.1H-43v0.2h0.2V64.1z
			 M-43.6,63.8l-0.1-0.1l-0.1,0.1l0.1,0.1L-43.6,63.8z M-42.7,65.2l-0.1-0.3l0.1-0.3l-0.2,0.2h-0.4l0.1-0.2l-0.2,0l0.3-0.3h0.3
			l-0.3-0.1l-0.1-0.3v0.3l-0.2,0.3l0-0.2l-0.2,0.1v-0.3l0.2-0.2l-0.3,0.1l-0.3-0.1l0.2,0.2v0.3l-0.2-0.1l0,0.2l-0.3-0.3V64l-0.1,0.3
			l-0.3,0.1h0.3l0.3,0.2l-0.3,0.1l0.2,0.2h-0.4l-0.2-0.2l0.1,0.3l-0.1,0.3l0.2-0.2h0.4l-0.2,0.2l0.3,0l-0.3,0.3h-0.3l0.3,0.1
			l0.1,0.3l0-0.3l0.2-0.2l0,0.2l0.2-0.2v0.4L-44,66l0.3-0.1l0.3,0.1l-0.2-0.2v-0.4l0.2,0.1l0-0.2l0.3,0.3l0,0.3l0.1-0.3l0.3-0.1
			h-0.3l-0.3-0.2l0.2-0.1l-0.1-0.2h0.4L-42.7,65.2z M-44,64.8l0.2,0.1h-0.2L-44,64.8z M-44,65.2l-0.1-0.2h0.2L-44,65.2z M-43.8,65.3
			l-0.1-0.1l0.1-0.2V65.3z M-43.8,64.8l-0.1-0.1l0.1-0.1V64.8z M-43.5,64.8l0.1,0.1h-0.2L-43.5,64.8z M-43.7,64.6l0.1,0.1l-0.1,0.1
			V64.6z M-43.7,65.3v-0.2l0.1,0.1L-43.7,65.3z M-43.5,65.2l-0.1-0.2h0.2L-43.5,65.2z M-42.6,64.8l-0.1,0.1l0.1,0.1l0.1-0.1
			L-42.6,64.8z"/>
	</g>
	<g>
		<path class="st1" d="M-37.1,64.8h0.2v-0.2h-0.2V64.8z M-36.2,65.2l0.2,0.2l0.2-0.2L-36,65L-36.2,65.2z M-37.5,63.6l-0.2,0.2
			l0.2,0.2l0.2-0.2L-37.5,63.6z M-35.1,64.8h0.2v-0.2h-0.2V64.8z M-36.9,62.6h-0.2v0.2h0.2V62.6z M-34.9,62.6h-0.2v0.2h0.2V62.6z
			 M-35.8,62.3l-0.2-0.2l-0.2,0.2l0.2,0.2L-35.8,62.3z M-34.7,64.1l-0.2-0.4l0.2-0.3l-0.3,0.3h-0.5l0.2-0.3l-0.3-0.1l0.3-0.3h0.4
			l-0.4-0.1l-0.1-0.4v0.4l-0.3,0.3l0-0.3l-0.3,0.2v-0.4l0.3-0.3l-0.3,0.2l-0.4-0.2l0.3,0.3v0.4l-0.3-0.2l0,0.3l-0.3-0.3v-0.4
			l-0.1,0.4l-0.4,0.1h0.4l0.3,0.3l-0.3,0.1l0.2,0.2h-0.5l-0.3-0.3l0.1,0.4l-0.1,0.4l0.3-0.3h0.5l-0.2,0.3l0.3,0.1l-0.3,0.3h-0.4
			l0.4,0.1l0.1,0.4l0-0.4l0.3-0.3l0.1,0.3l0.3-0.2v0.5l-0.3,0.3l0.4-0.2l0.3,0.2l-0.3-0.3v-0.5l0.3,0.2l0-0.3l0.3,0.3l0,0.4l0.1-0.4
			l0.4-0.1h-0.4l-0.3-0.3l0.3-0.1l-0.2-0.2h0.5L-34.7,64.1z M-36.4,63.5l0.2,0.2h-0.3L-36.4,63.5z M-36.3,64l-0.1-0.2h0.3L-36.3,64z
			 M-36.1,64.1l-0.2-0.1l0.2-0.2V64.1z M-36.1,63.6l-0.2-0.2l0.2-0.1V63.6z M-35.7,63.5l0.1,0.2h-0.3L-35.7,63.5z M-35.9,63.3
			l0.2,0.1l-0.2,0.2V63.3z M-35.9,64.2v-0.3l0.2,0.2L-35.9,64.2z M-35.7,64l-0.2-0.2h0.3L-35.7,64z M-34.6,63.5l-0.2,0.2l0.2,0.2
			l0.2-0.2L-34.6,63.5z"/>
	</g>
	<g>
		<path class="st1" d="M-42.9,71.1h0.2v-0.2h-0.2V71.1z M-42,71.4l0.2,0.2l0.2-0.2l-0.2-0.2L-42,71.4z M-43.2,69.8l-0.2,0.2l0.2,0.2
			l0.2-0.2L-43.2,69.8z M-40.9,71.1h0.2v-0.2h-0.2V71.1z M-42.7,68.8h-0.2v0.2h0.2V68.8z M-40.7,68.8h-0.2v0.2h0.2V68.8z
			 M-41.6,68.5l-0.2-0.2l-0.2,0.2l0.2,0.2L-41.6,68.5z M-40.4,70.3l-0.2-0.4l0.2-0.3l-0.3,0.3h-0.5l0.2-0.3l-0.3-0.1l0.3-0.3h0.4
			l-0.4-0.1l-0.1-0.4v0.4l-0.3,0.3l0-0.3l-0.3,0.2v-0.4l0.3-0.3l-0.3,0.2l-0.4-0.2l0.3,0.3v0.4l-0.3-0.2l0,0.3l-0.3-0.3v-0.4
			l-0.1,0.4l-0.4,0.1h0.4l0.3,0.3l-0.3,0.1l0.2,0.2h-0.5l-0.3-0.3l0.1,0.4l-0.1,0.4l0.3-0.3h0.5l-0.2,0.3l0.3,0.1l-0.3,0.3H-43
			l0.4,0.1l0.1,0.4l0-0.4l0.3-0.3l0.1,0.3l0.3-0.2V71l-0.3,0.3l0.4-0.2l0.3,0.2l-0.3-0.3v-0.5l0.3,0.2l0-0.3l0.3,0.3l0,0.4l0.1-0.4
			l0.4-0.1H-41l-0.3-0.3l0.3-0.1l-0.2-0.2h0.5L-40.4,70.3z M-42.1,69.7l0.2,0.2h-0.3L-42.1,69.7z M-42.1,70.2l-0.1-0.2h0.3
			L-42.1,70.2z M-41.9,70.4l-0.2-0.1l0.2-0.2V70.4z M-41.9,69.8l-0.2-0.2l0.2-0.1V69.8z M-41.4,69.7l0.1,0.2h-0.3L-41.4,69.7z
			 M-41.7,69.5l0.2,0.1l-0.2,0.2V69.5z M-41.7,70.4v-0.3l0.2,0.2L-41.7,70.4z M-41.5,70.2l-0.2-0.2h0.3L-41.5,70.2z M-40.4,69.8
			l-0.2,0.2l0.2,0.2l0.2-0.2L-40.4,69.8z"/>
	</g>
	<g>
		<path class="st1" d="M-39.1,68h0.2v-0.2h-0.2V68z M-38.5,68.2l0.1,0.1l0.1-0.1l-0.1-0.1L-38.5,68.2z M-39.3,67.1l-0.1,0.1l0.1,0.1
			l0.1-0.1L-39.3,67.1z M-37.7,68h0.2v-0.2h-0.2V68z M-38.9,66.4h-0.2v0.2h0.2V66.4z M-37.5,66.4h-0.2v0.2h0.2V66.4z M-38.2,66.2
			l-0.1-0.1l-0.1,0.1l0.1,0.1L-38.2,66.2z M-37.4,67.4l-0.1-0.3l0.1-0.2l-0.2,0.2h-0.3l0.1-0.2l-0.2,0l0.2-0.2h0.3l-0.3-0.1
			l-0.1-0.3v0.3l-0.2,0.2l0-0.2l-0.2,0.1v-0.3l0.2-0.2l-0.2,0.1l-0.3-0.1l0.2,0.2v0.3l-0.2-0.1l0,0.2l-0.2-0.2v-0.3l-0.1,0.3
			l-0.3,0.1h0.3l0.2,0.2l-0.2,0.1l0.1,0.2h-0.3l-0.2-0.2l0.1,0.3l-0.1,0.2l0.2-0.2h0.3l-0.1,0.2l0.2,0l-0.2,0.2h-0.3l0.3,0.1
			l0.1,0.3l0-0.3l0.2-0.2l0,0.2l0.2-0.1v0.3l-0.2,0.2l0.2-0.1l0.2,0.1l-0.2-0.2v-0.3l0.2,0.1l0-0.2l0.2,0.2l0,0.3l0.1-0.2l0.3-0.1
			h-0.3l-0.2-0.2l0.2-0.1l-0.1-0.2h0.3L-37.4,67.4z M-38.6,67l0.1,0.1h-0.2L-38.6,67z M-38.6,67.4l-0.1-0.1h0.2L-38.6,67.4z
			 M-38.4,67.5l-0.1-0.1l0.1-0.1V67.5z M-38.4,67.1l-0.1-0.1l0.1-0.1V67.1z M-38.1,67l0,0.1h-0.2L-38.1,67z M-38.3,66.9l0.1,0.1
			l-0.1,0.1V66.9z M-38.3,67.5v-0.2l0.1,0.1L-38.3,67.5z M-38.1,67.4l-0.1-0.1h0.2L-38.1,67.4z M-37.3,67.1l-0.1,0.1l0.1,0.1
			l0.1-0.1L-37.3,67.1z"/>
	</g>
	<g>
		<path class="st1" d="M-40.8,64.7h0.1v-0.1h-0.1V64.7z M-40.3,64.9L-40.3,64.9h0.2H-40.3L-40.3,64.9z M-40.9,64.1L-40.9,64.1l0,0.2
			L-40.9,64.1L-40.9,64.1z M-39.8,64.7h0.1v-0.1h-0.1V64.7z M-40.6,63.6h-0.1v0.1h0.1V63.6z M-39.7,63.6h-0.1v0.1h0.1V63.6z
			 M-40.1,63.5L-40.1,63.5h-0.2H-40.1L-40.1,63.5z M-39.6,64.4l-0.1-0.2l0.1-0.2l-0.1,0.1h-0.2l0.1-0.1l-0.1,0l0.2-0.2h0.2l-0.2-0.1
			l-0.1-0.2v0.2l-0.2,0.2l0-0.2l-0.1,0.1v-0.2l0.1-0.1l-0.2,0.1l-0.2-0.1l0.1,0.1v0.2l-0.1-0.1l0,0.1l-0.2-0.2v-0.2l-0.1,0.2
			l-0.2,0.1h0.2l0.2,0.2l-0.2,0l0.1,0.1h-0.2l-0.1-0.1l0.1,0.2l-0.1,0.2l0.1-0.1h0.2l-0.1,0.1l0.2,0l-0.2,0.2h-0.2l0.2,0.1l0.1,0.2
			l0-0.2l0.2-0.2l0,0.2l0.1-0.1v0.2l-0.1,0.1l0.2-0.1l0.2,0.1l-0.1-0.1v-0.2l0.1,0.1l0-0.2l0.2,0.2l0,0.2l0.1-0.2l0.2-0.1h-0.2
			l-0.2-0.2l0.2,0l-0.1-0.1h0.2L-39.6,64.4z M-40.4,64.1L-40.4,64.1L-40.4,64.1L-40.4,64.1z M-40.4,64.3L-40.4,64.3L-40.4,64.3
			L-40.4,64.3z M-40.2,64.4L-40.2,64.4v-0.1V64.4z M-40.2,64.1L-40.2,64.1V64V64.1z M-40,64.1L-40,64.1L-40,64.1L-40,64.1z
			 M-40.2,64L-40.2,64v0.1V64z M-40.2,64.4v-0.1V64.4L-40.2,64.4z M-40,64.3L-40,64.3L-40,64.3L-40,64.3z M-39.5,64.1L-39.5,64.1
			v0.2V64.1L-39.5,64.1z"/>
	</g>
	<g>
		<path class="st1" d="M-35.7,68.2h0.1v-0.1h-0.1V68.2z M-35.2,68.4L-35.2,68.4h0.2H-35.2L-35.2,68.4z M-35.9,67.5L-35.9,67.5l0,0.2
			L-35.9,67.5L-35.9,67.5z M-34.6,68.2h0.1v-0.1h-0.1V68.2z M-35.6,66.9h-0.1v0.1h0.1V66.9z M-34.5,66.9h-0.1v0.1h0.1V66.9z
			 M-35,66.8L-35,66.8h-0.2H-35L-35,66.8z M-34.4,67.8l-0.1-0.2l0.1-0.2l-0.2,0.2h-0.3l0.1-0.1l-0.2,0l0.2-0.2h0.2l-0.2-0.1
			l-0.1-0.2v0.2l-0.2,0.2l0-0.2l-0.1,0.1V67l0.2-0.2l-0.2,0.1l-0.2-0.1l0.2,0.2v0.2l-0.2-0.1l0,0.2l-0.2-0.2v-0.2l-0.1,0.2l-0.2,0.1
			h0.2l0.2,0.2l-0.2,0l0.1,0.1h-0.3l-0.2-0.2l0.1,0.2l-0.1,0.2l0.2-0.2h0.3l-0.1,0.1l0.2,0l-0.2,0.2h-0.2l0.2,0.1l0.1,0.2l0-0.2
			l0.2-0.2l0,0.2l0.2-0.1v0.3l-0.2,0.2l0.2-0.1l0.2,0.1l-0.2-0.2v-0.3l0.1,0.1l0-0.2l0.2,0.2l0,0.2l0.1-0.2l0.2-0.1h-0.2l-0.2-0.2
			l0.2-0.1l-0.1-0.1h0.3L-34.4,67.8z M-35.3,67.4l0.1,0.1h-0.1L-35.3,67.4z M-35.3,67.7l0-0.1h0.1L-35.3,67.7z M-35.1,67.8l-0.1,0
			l0.1-0.1V67.8z M-35.1,67.5l-0.1-0.1l0.1,0V67.5z M-34.9,67.4l0,0.1H-35L-34.9,67.4z M-35.1,67.3l0.1,0l-0.1,0.1V67.3z
			 M-35.1,67.8v-0.2l0.1,0.1L-35.1,67.8z M-34.9,67.7l-0.1-0.1h0.2L-34.9,67.7z M-34.3,67.5L-34.3,67.5v0.2V67.5L-34.3,67.5z"/>
	</g>
</g>
<g>
	<path class="st1" d="M99.8,48.4c1-0.9,1.5-2.3,1.1-3.7c-0.5-1.7-2.2-2.6-3.9-2.4c0.7,0.4,1.2,1.1,1.4,1.9c0.2,0.6,0.2,1.2,0.1,1.8
		c-0.5-0.5-1.2-0.8-2-0.8c-0.5,0-1,0.1-1.5,0.4c-0.3-1.6-1.7-2.7-3.4-2.7c-1.6,0.1-2.9,1.3-3.1,2.8c-0.3-0.1-0.6-0.2-0.9-0.2
		c-1.5,0-2.8,1.2-2.8,2.8c0,0,0,0.1,0,0.1c-0.8,0.2-1.9,0.7-1.9,2.2c0,1.2,1,2.2,2.3,2.2l0.4-0.6c0,0-0.1,0-0.1,0l-0.1,0
		c-1,0-1.8-0.7-1.8-1.6c0-1.1,0.6-1.4,1.7-1.7l0.2-0.1l0-0.2l0-0.1c0-0.1,0-0.1,0-0.2c0-1.2,1-2.1,2.1-2.1c0.4,0,0.7,0.1,1,0.3
		l0.5,0.3l0-0.6c0-1.4,1.1-2.5,2.5-2.6l0.1,0c1.4,0,2.6,1.1,2.6,2.4c0,0,0,0.1,0,0.2l0,0.8l0.6-0.6c0.4-0.4,0.9-0.6,1.5-0.6
		c0.7,0,1.4,0.4,1.7,0.9c-0.4,0.9-1.1,1.5-2.1,1.9c-0.2,0.1-0.3,0.1-0.5,0.1c0.8,0.5,1.9,0.7,2.9,0.4c0.2-0.1,0.4-0.1,0.6-0.2
		c0.6,0.2,1.1,0.8,1.1,1.5c0,0.8-0.5,1.7-1.3,1.9l0.2,0.6c1-0.3,1.8-1.4,1.7-2.5C100.9,49.5,100.5,48.8,99.8,48.4z"/>
	<rect x="86.7" y="52.4" class="st1" width="0.2" height="0.2"/>
	<path class="st1" d="M87.8,53.9l0-0.2l0.3,0.3l0,0.3l0.1-0.3l0.3-0.1h-0.3l-0.3-0.2l0.2-0.1L88,53.4h0.4l0.2,0.2l-0.1-0.3l0.1-0.3
		l-0.2,0.2H88l0.1-0.2l-0.2,0l0.3-0.3h0.3l-0.3-0.1l-0.1-0.3v0.3l-0.2,0.3l0-0.2l-0.2,0.1v-0.3l0.2-0.2l-0.3,0.1l-0.3-0.1l0.2,0.2
		v0.3l-0.2-0.1l0,0.2L87,52.7v-0.3l-0.1,0.3l-0.3,0.1h0.3l0.3,0.2l-0.3,0.1l0.2,0.2h-0.4L86.5,53l0.1,0.3l-0.1,0.3l0.2-0.2h0.4
		l-0.2,0.2l0.3,0l-0.3,0.3h-0.3l0.3,0.1l0.1,0.3l0-0.3l0.2-0.2l0,0.2l0.2-0.2v0.4l-0.2,0.2l0.3-0.1l0.3,0.1l-0.2-0.2v-0.4L87.8,53.9
		z M87.8,53.5l-0.1-0.2h0.2L87.8,53.5z M87.8,53.1l0.1,0.1h-0.2L87.8,53.1z M87.6,53l0.1,0.1l-0.1,0.1V53z M87.6,53.4l0.1,0.1
		l-0.1,0.1V53.4z M87.3,53.1l0.2,0.1h-0.2L87.3,53.1z M87.3,53.5l-0.1-0.2h0.2L87.3,53.5z M87.5,53.6l-0.1-0.1l0.1-0.2V53.6z
		 M87.5,53.2L87.4,53l0.1-0.1V53.2z"/>
	<rect x="88.2" y="54" class="st1" width="0.2" height="0.2"/>
	<polygon class="st1" points="87.4,54.4 87.6,54.5 87.7,54.4 87.6,54.3 	"/>
	<rect x="87.5" y="52.1" transform="matrix(0.708 -0.7062 0.7062 0.708 -11.2861 77.0675)" class="st1" width="0.2" height="0.2"/>
	<rect x="88.2" y="52.4" class="st1" width="0.2" height="0.2"/>
	<polygon class="st1" points="88.8,53.3 88.7,53.2 88.5,53.3 88.7,53.4 	"/>
	
		<rect x="86.4" y="53.2" transform="matrix(0.7019 -0.7123 0.7123 0.7019 -12.2017 77.4616)" class="st1" width="0.2" height="0.2"/>
	<rect x="86.7" y="54" class="st1" width="0.2" height="0.2"/>
	<rect x="94.2" y="50.9" class="st1" width="0.2" height="0.2"/>
	<path class="st1" d="M94.9,53.4l0.4-0.2l0.3,0.2l-0.3-0.3v-0.5l0.3,0.2l0-0.3l0.3,0.3l0,0.4l0.1-0.4l0.4-0.1h-0.4l-0.3-0.3l0.3-0.1
		l-0.2-0.2h0.5l0.3,0.3l-0.2-0.4l0.2-0.3L96.4,52h-0.5l0.2-0.3l-0.3-0.1l0.3-0.3h0.4l-0.4-0.1L96,50.9v0.4l-0.3,0.3l0-0.3l-0.3,0.2
		V51l0.3-0.3l-0.3,0.2l-0.4-0.2l0.3,0.3v0.4L95,51.3l0,0.3l-0.3-0.3v-0.4l-0.1,0.4l-0.4,0.1h0.4l0.3,0.3l-0.3,0.1l0.2,0.2h-0.5
		l-0.3-0.3l0.1,0.4l-0.1,0.4l0.3-0.3h0.5l-0.2,0.3l0.3,0.1l-0.3,0.3h-0.4l0.4,0.1l0.1,0.4l0-0.4l0.3-0.3l0.1,0.3l0.3-0.2v0.5
		L94.9,53.4z M95.6,52.3l-0.2-0.2h0.3L95.6,52.3z M95.6,51.8l0.1,0.2h-0.3L95.6,51.8z M95.4,51.6l0.2,0.1l-0.2,0.2V51.6z M95.4,52.2
		l0.2,0.2l-0.2,0.1V52.2z M95.2,51.6v0.3L95,51.7L95.2,51.6z M94.9,51.8l0.2,0.2h-0.3L94.9,51.8z M94.9,52.3l-0.1-0.2h0.3L94.9,52.3
		z M95,52.4l0.2-0.2v0.3L95,52.4z"/>
	<rect x="94.2" y="52.9" class="st1" width="0.2" height="0.2"/>
	<polygon class="st1" points="95.5,53.5 95.3,53.3 95.1,53.5 95.3,53.7 	"/>
	<polygon class="st1" points="94,52.1 93.8,51.9 93.7,52.1 93.8,52.2 	"/>
	<rect x="96.2" y="52.9" class="st1" width="0.2" height="0.2"/>
	<polygon class="st1" points="96.7,51.9 96.5,52.1 96.7,52.2 96.9,52.1 	"/>
	<rect x="96.2" y="50.9" class="st1" width="0.2" height="0.2"/>
	<rect x="95.2" y="50.5" transform="matrix(0.7089 -0.7053 0.7053 0.7089 -7.9602 81.9227)" class="st1" width="0.2" height="0.2"/>
	<path class="st1" d="M90.9,58.6l-0.2-0.4l0.2-0.3l-0.3,0.3h-0.5l0.2-0.3L90,57.9l0.3-0.3h0.4l-0.4-0.1l-0.1-0.4v0.4l-0.3,0.3l0-0.3
		l-0.3,0.2v-0.4l0.3-0.3l-0.3,0.2l-0.4-0.2l0.3,0.3v0.4l-0.3-0.2l0,0.3l-0.3-0.3v-0.4l-0.1,0.4l-0.4,0.1h0.4l0.3,0.3L88.7,58
		l0.2,0.2h-0.5l-0.3-0.3l0.1,0.4l-0.1,0.4l0.3-0.3h0.5l-0.2,0.3l0.3,0.1L88.7,59h-0.4l0.4,0.1l0.1,0.4l0-0.4l0.3-0.3l0.1,0.3
		l0.3-0.2v0.5l-0.3,0.3l0.4-0.2l0.3,0.2l-0.3-0.3v-0.5l0.3,0.2l0-0.3l0.3,0.3l0,0.4l0.1-0.4l0.4-0.1h-0.4L90,58.7l0.3-0.1l-0.2-0.2
		h0.5L90.9,58.6z M89.2,58l0.2,0.2h-0.3L89.2,58z M89.2,58.5l-0.1-0.2h0.3L89.2,58.5z M89.4,58.7l-0.2-0.1l0.2-0.2V58.7z M89.4,58.1
		l-0.2-0.2l0.2-0.1V58.1z M89.8,58l0.1,0.2h-0.3L89.8,58z M89.6,57.9l0.2,0.1l-0.2,0.2V57.9z M89.6,58.7v-0.3l0.2,0.2L89.6,58.7z
		 M89.8,58.5l-0.2-0.2h0.3L89.8,58.5z"/>
	<polygon class="st1" points="89.5,56.7 89.3,56.8 89.5,57 89.7,56.8 	"/>
	<rect x="90.4" y="57.2" class="st1" width="0.2" height="0.2"/>
	<rect x="88.4" y="57.2" class="st1" width="0.2" height="0.2"/>
	<rect x="88.4" y="59.2" class="st1" width="0.2" height="0.2"/>
	<polygon class="st1" points="88,58.1 87.9,58.3 88,58.5 88.2,58.3 	"/>
	<polygon class="st1" points="90.8,58.3 90.9,58.4 91.1,58.3 90.9,58.1 	"/>
	<rect x="90.4" y="59.2" class="st1" width="0.2" height="0.2"/>
	<polygon class="st1" points="89.3,59.7 89.5,59.9 89.7,59.7 89.5,59.5 	"/>
	
		<rect x="92.9" y="54.4" transform="matrix(0.7105 -0.7037 0.7037 0.7105 -11.4603 81.1928)" class="st1" width="0.2" height="0.2"/>
	<rect x="93.6" y="54.8" class="st1" width="0.2" height="0.2"/>
	<path class="st1" d="M93.9,55.8l-0.1-0.3l0.1-0.2l-0.2,0.2h-0.3l0.1-0.2l-0.2,0l0.2-0.2h0.3L93.5,55l-0.1-0.3V55l-0.2,0.2l0-0.2
		L93,55.1v-0.3l0.2-0.2L93,54.7l-0.3-0.1l0.2,0.2v0.3L92.7,55l0,0.2L92.5,55v-0.3L92.4,55l-0.3,0.1h0.3l0.2,0.2l-0.2,0.1l0.1,0.2
		h-0.3L92,55.3l0.1,0.2L92,55.8l0.2-0.2h0.3l-0.1,0.2l0.2,0L92.4,56h-0.3l0.3,0.1l0.1,0.3l0-0.3l0.2-0.2l0,0.2l0.2-0.1v0.3l-0.2,0.2
		l0.2-0.1l0.2,0.1L93,56.3V56l0.2,0.1l0-0.2l0.2,0.2l0,0.3l0.1-0.2l0.3-0.1h-0.3l-0.2-0.2l0.2-0.1l-0.1-0.2h0.3L93.9,55.8z
		 M92.7,55.4l0.1,0.1h-0.2L92.7,55.4z M92.7,55.7l-0.1-0.1h0.2L92.7,55.7z M92.9,55.8l-0.1-0.1l0.1-0.1V55.8z M92.9,55.4l-0.1-0.1
		l0.1-0.1V55.4z M93.2,55.4l0,0.1h-0.2L93.2,55.4z M93,55.2l0.1,0.1L93,55.4V55.2z M93,55.8v-0.2l0.1,0.1L93,55.8z M93.2,55.7
		l-0.1-0.1h0.2L93.2,55.7z"/>
	<rect x="92.2" y="54.8" class="st1" width="0.2" height="0.2"/>
	<polygon class="st1" points="92,55.4 91.8,55.5 92,55.7 92.1,55.5 	"/>
	<polygon class="st1" points="93.8,55.5 94,55.7 94.1,55.5 94,55.4 	"/>
	<rect x="93.6" y="56.1" class="st1" width="0.2" height="0.2"/>
	<rect x="92.2" y="56.1" class="st1" width="0.2" height="0.2"/>
	<rect x="92.9" y="56.5" transform="matrix(0.705 -0.7092 0.7092 0.705 -12.6728 82.6019)" class="st1" width="0.2" height="0.2"/>
	<rect x="90.5" y="52" class="st1" width="0.1" height="0.1"/>
	<path class="st1" d="M91.7,52.7l-0.1-0.2l0.1-0.2l-0.1,0.1h-0.2l0.1-0.1l-0.1,0l0.2-0.2h0.2l-0.2-0.1l-0.1-0.2v0.2l-0.2,0.2l0-0.2
		l-0.1,0.1V52l0.1-0.1l-0.2,0.1l-0.2-0.1l0.1,0.1v0.2l-0.1-0.1l0,0.1l-0.2-0.2v-0.2l-0.1,0.2l-0.2,0.1h0.2l0.2,0.2l-0.2,0l0.1,0.1
		h-0.2l-0.1-0.1l0.1,0.2l-0.1,0.2l0.1-0.1h0.2l-0.1,0.1l0.2,0l-0.2,0.2h-0.2l0.2,0.1l0.1,0.2l0-0.2l0.2-0.2l0,0.2l0.1-0.1V53
		l-0.1,0.1l0.2-0.1l0.2,0.1L91.1,53v-0.2l0.1,0.1l0-0.2l0.2,0.2l0,0.2l0.1-0.2l0.2-0.1h-0.2l-0.2-0.2l0.2,0l-0.1-0.1h0.2L91.7,52.7z
		 M90.9,52.4L90.9,52.4L90.9,52.4L90.9,52.4z M90.9,52.6L90.9,52.6L90.9,52.6L90.9,52.6z M91.1,52.7L91.1,52.7v-0.1V52.7z
		 M91.1,52.4L91.1,52.4v-0.1V52.4z M91.3,52.4L91.3,52.4L91.3,52.4L91.3,52.4z M91.1,52.3L91.1,52.3v0.1V52.3z M91.1,52.7v-0.1V52.7
		L91.1,52.7z M91.2,52.6L91.2,52.6L91.2,52.6L91.2,52.6z"/>
	<rect x="91" y="51.7" transform="matrix(0.7079 -0.7064 0.7064 0.7079 -9.9819 79.4666)" class="st1" width="0.1" height="0.1"/>
	<polygon class="st1" points="91.8,52.4 91.7,52.5 91.8,52.6 91.9,52.5 	"/>
	<rect x="90.5" y="52.9" class="st1" width="0.1" height="0.1"/>
	<rect x="91.5" y="52" class="st1" width="0.1" height="0.1"/>
	<polygon class="st1" points="90.4,52.4 90.3,52.5 90.4,52.6 90.5,52.5 	"/>
	<polygon class="st1" points="91,53.2 91.1,53.3 91.2,53.2 91.1,53.1 	"/>
	<rect x="91.5" y="52.9" class="st1" width="0.1" height="0.1"/>
	<polygon class="st1" points="96.1,56.7 96.2,56.8 96.3,56.7 96.2,56.6 	"/>
	<rect x="96.9" y="55.8" transform="matrix(0.7012 -0.713 0.713 0.7012 -10.8874 85.8483)" class="st1" width="0.1" height="0.1"/>
	<rect x="95.6" y="56.4" class="st1" width="0.1" height="0.1"/>
	<path class="st1" d="M96.9,56.1l-0.1-0.2l0.1-0.2l-0.2,0.2h-0.3l0.1-0.1l-0.2,0l0.2-0.2h0.2l-0.2-0.1l-0.1-0.2v0.2l-0.2,0.2l0-0.2
		l-0.1,0.1v-0.2l0.2-0.2l-0.2,0.1L96,55.2l0.2,0.2v0.2L96,55.5l0,0.2l-0.2-0.2v-0.2l-0.1,0.2l-0.2,0.1h0.2l0.2,0.2l-0.2,0l0.1,0.1
		h-0.3l-0.2-0.2l0.1,0.2l-0.1,0.2l0.2-0.2h0.3l-0.1,0.1l0.2,0l-0.2,0.2h-0.2l0.2,0.1l0.1,0.2l0-0.2l0.2-0.2l0,0.2l0.2-0.1v0.3
		L96,56.7l0.2-0.1l0.2,0.1l-0.2-0.2v-0.3l0.1,0.1l0-0.2l0.2,0.2l0,0.2l0.1-0.2l0.2-0.1h-0.2l-0.2-0.2l0.2-0.1l-0.1-0.1h0.3
		L96.9,56.1z M96,55.8l0.1,0.1h-0.1L96,55.8z M96,56.1l0-0.1h0.1L96,56.1z M96.1,56.2L96.1,56.2V56V56.2z M96.1,55.8L96,55.7l0.1,0
		V55.8z M96.4,55.8l0,0.1h-0.1L96.4,55.8z M96.2,55.7l0.1,0l-0.1,0.1V55.7z M96.2,56.2V56l0.1,0.1L96.2,56.2z M96.4,56.1l-0.1-0.1
		h0.2L96.4,56.1z"/>
	<rect x="96.7" y="56.4" class="st1" width="0.1" height="0.1"/>
	<rect x="96.7" y="55.3" class="st1" width="0.1" height="0.1"/>
	<polygon class="st1" points="96.2,55.2 96.3,55.1 96.2,55 96.1,55.1 	"/>
	<rect x="95.5" y="55.3" class="st1" width="0.1" height="0.1"/>
	<polygon class="st1" points="95.4,55.8 95.3,55.9 95.4,56 95.5,55.9 	"/>
</g>
<g>
	<g>
		<path class="st1" d="M-300.3,59.4c3.6,0,5.5-2.4,7-4.3c1.4-1.8,2.5-3.2,4.9-3.2c2.3,0,3.5,1.4,4.9,3.2c1.5,1.9,3.4,4.3,7,4.3
			c3.6,0,5.5-2.4,7-4.3c1.4-1.8,2.5-3.2,4.9-3.2c2.3,0,3.5,1.4,4.9,3.2c1.5,1.9,3.4,4.3,7,4.3c3.6,0,5.5-2.4,7-4.3
			c1.4-1.8,2.5-3.2,4.9-3.2c2.3,0,3.5,1.4,4.9,3.2c1.5,1.9,3.4,4.3,7,4.3c3.6,0,5.5-2.4,7-4.3c1.4-1.8,2.5-3.2,4.9-3.2
			c2.3,0,3.5,1.4,4.9,3.2c1.5,1.9,3.4,4.3,7,4.3c3.6,0,5.5-2.4,7-4.3c1.4-1.8,2.5-3.2,4.9-3.2v-3.4c-3.6,0-5.5,2.4-7,4.3
			c-1.4,1.8-2.5,3.2-4.9,3.2c-2.3,0-3.5-1.4-4.9-3.2c-1.5-1.9-3.4-4.3-7-4.3c-3.6,0-5.4,2.4-7,4.3c-1.4,1.8-2.5,3.2-4.9,3.2
			c-2.3,0-3.5-1.4-4.9-3.2c-1.5-1.9-3.4-4.3-7-4.3c-3.6,0-5.5,2.4-7,4.3c-1.4,1.8-2.5,3.2-4.9,3.2c-2.3,0-3.5-1.4-4.9-3.2
			c-1.5-1.9-3.4-4.3-7-4.3c-3.6,0-5.5,2.4-7,4.3c-1.4,1.8-2.5,3.2-4.9,3.2c-2.3,0-3.5-1.4-4.9-3.2c-1.5-1.9-3.4-4.3-7-4.3
			c-3.6,0-5.5,2.4-7,4.3c-1.4,1.8-2.6,3.2-4.9,3.2V59.4z"/>
	</g>
	<g>
		<path class="st1" d="M-300.3,74.6c3.6,0,5.5-2.4,7-4.3c1.4-1.8,2.5-3.2,4.9-3.2c2.3,0,3.5,1.4,4.9,3.2c1.5,1.9,3.4,4.3,7,4.3
			c3.6,0,5.5-2.4,7-4.3c1.4-1.8,2.5-3.2,4.9-3.2c2.3,0,3.5,1.4,4.9,3.2c1.5,1.9,3.4,4.3,7,4.3c3.6,0,5.5-2.4,7-4.3
			c1.4-1.8,2.5-3.2,4.9-3.2c2.3,0,3.5,1.4,4.9,3.2c1.5,1.9,3.4,4.3,7,4.3c3.6,0,5.5-2.4,7-4.3c1.4-1.8,2.5-3.2,4.9-3.2
			c2.3,0,3.5,1.4,4.9,3.2c1.5,1.9,3.4,4.3,7,4.3c3.6,0,5.5-2.4,7-4.3c1.4-1.8,2.5-3.2,4.9-3.2v-3.4c-3.6,0-5.5,2.4-7,4.3
			c-1.4,1.8-2.5,3.2-4.9,3.2c-2.3,0-3.5-1.4-4.9-3.2c-1.5-1.9-3.4-4.3-7-4.3c-3.6,0-5.4,2.4-7,4.3c-1.4,1.8-2.5,3.2-4.9,3.2
			c-2.3,0-3.5-1.4-4.9-3.2c-1.5-1.9-3.4-4.3-7-4.3c-3.6,0-5.5,2.4-7,4.3c-1.4,1.8-2.5,3.2-4.9,3.2c-2.3,0-3.5-1.4-4.9-3.2
			c-1.5-1.9-3.4-4.3-7-4.3c-3.6,0-5.5,2.4-7,4.3c-1.4,1.8-2.5,3.2-4.9,3.2c-2.3,0-3.5-1.4-4.9-3.2c-1.5-1.9-3.4-4.3-7-4.3
			c-3.6,0-5.5,2.4-7,4.3c-1.4,1.8-2.6,3.2-4.9,3.2V74.6z"/>
	</g>
	<g>
		<path class="st1" d="M-300.3,91.1c3.6,0,5.5-2.4,7-4.3c1.4-1.8,2.5-3.2,4.9-3.2c2.3,0,3.5,1.4,4.9,3.2c1.5,1.9,3.4,4.3,7,4.3
			c3.6,0,5.5-2.4,7-4.3c1.4-1.8,2.5-3.2,4.9-3.2c2.3,0,3.5,1.4,4.9,3.2c1.5,1.9,3.4,4.3,7,4.3c3.6,0,5.5-2.4,7-4.3
			c1.4-1.8,2.5-3.2,4.9-3.2c2.3,0,3.5,1.4,4.9,3.2c1.5,1.9,3.4,4.3,7,4.3c3.6,0,5.5-2.4,7-4.3c1.4-1.8,2.5-3.2,4.9-3.2
			c2.3,0,3.5,1.4,4.9,3.2c1.5,1.9,3.4,4.3,7,4.3c3.6,0,5.5-2.4,7-4.3c1.4-1.8,2.5-3.2,4.9-3.2v-3.4c-3.6,0-5.5,2.4-7,4.3
			c-1.4,1.8-2.5,3.2-4.9,3.2c-2.3,0-3.5-1.4-4.9-3.2c-1.5-1.9-3.4-4.3-7-4.3c-3.6,0-5.4,2.4-7,4.3c-1.4,1.8-2.5,3.2-4.9,3.2
			c-2.3,0-3.5-1.4-4.9-3.2c-1.5-1.9-3.4-4.3-7-4.3c-3.6,0-5.5,2.4-7,4.3c-1.4,1.8-2.5,3.2-4.9,3.2c-2.3,0-3.5-1.4-4.9-3.2
			c-1.5-1.9-3.4-4.3-7-4.3c-3.6,0-5.5,2.4-7,4.3c-1.4,1.8-2.5,3.2-4.9,3.2c-2.3,0-3.5-1.4-4.9-3.2c-1.5-1.9-3.4-4.3-7-4.3
			c-3.6,0-5.5,2.4-7,4.3c-1.4,1.8-2.6,3.2-4.9,3.2V91.1z"/>
	</g>
</g>
<g>
	<g>
		<path class="st1" d="M-58.6-14.6c0.8,0.5,1.5,1.3,1.8,2.4c0.7,2.3-0.5,4.8-2.8,5.5c-0.2,0.1-0.4,0.1-0.6,0.1
			c1.1,0.7,2.4,0.9,3.7,0.5c2.3-0.7,3.6-3.2,2.8-5.5C-54.3-13.7-56.5-15-58.6-14.6z"/>
	</g>
	<g>
		<polygon class="st1" points="-62.4,-5.4 -63.5,-5.9 -64.5,-5.3 -64.4,-6.5 -65.3,-7.3 -64.2,-7.5 -63.7,-8.7 -63.1,-7.6 
			-61.9,-7.5 -62.7,-6.6 		"/>
	</g>
	<g>
		<polygon class="st1" points="-63.1,-11 -63.9,-11.4 -64.8,-10.9 -64.7,-11.8 -65.4,-12.4 -64.5,-12.7 -64.1,-13.6 -63.6,-12.7 
			-62.7,-12.7 -63.3,-11.9 		"/>
	</g>
	<g>
		<polygon class="st1" points="-59,-9.5 -59.8,-9.9 -60.5,-9.4 -60.4,-10.2 -61.1,-10.8 -60.3,-11 -60,-11.7 -59.5,-11 -58.7,-11 
			-59.3,-10.3 		"/>
	</g>
</g>
<g>
	<path class="st1" d="M12.5,16.6c-2.1,0-3.8-1.7-3.8-3.8c0-2.1,1.7-3.8,3.8-3.8c2.1,0,3.8,1.7,3.8,3.8
		C16.4,14.9,14.6,16.6,12.5,16.6z M12.5,9.6c-1.7,0-3.2,1.4-3.2,3.2c0,1.7,1.4,3.2,3.2,3.2c1.7,0,3.2-1.4,3.2-3.2
		C15.7,11,14.3,9.6,12.5,9.6z"/>
	<g>
		<path class="st1" d="M9.5,9.4c0.1,0.1,0.1,0.3,0,0.4l0,0c-0.1,0.1-0.3,0.1-0.4,0l-2-2.3c-0.1-0.1-0.1-0.3,0-0.4l0,0
			c0.1-0.1,0.3-0.1,0.4,0L9.5,9.4z"/>
	</g>
	<g>
		<path class="st1" d="M12.8,8.2c0,0.1-0.1,0.3-0.3,0.3l0,0c-0.1,0-0.3-0.1-0.3-0.3l0-3c0-0.1,0.1-0.3,0.3-0.3l0,0
			c0.1,0,0.3,0.1,0.3,0.3L12.8,8.2z"/>
	</g>
	<g>
		<path class="st1" d="M8,12c0.1,0,0.3,0.1,0.2,0.3l0,0c0,0.1-0.1,0.3-0.3,0.2l-3-0.2c-0.1,0-0.3-0.1-0.2-0.3l0,0
			c0-0.1,0.1-0.3,0.3-0.2L8,12z"/>
	</g>
	<g>
		<path class="st1" d="M8.5,14.9c0.1-0.1,0.3,0,0.4,0.1l0,0c0.1,0.1,0,0.3-0.1,0.4l-2.5,1.6c-0.1,0.1-0.3,0-0.4-0.1l0,0
			c-0.1-0.1,0-0.3,0.1-0.4L8.5,14.9z"/>
	</g>
	<g>
		<path class="st1" d="M10.7,16.9c0.1-0.1,0.2-0.2,0.3-0.2l0,0c0.1,0.1,0.2,0.2,0.2,0.3l-1.1,2.8C10.1,20,10,20.1,9.8,20l0,0
			c-0.1-0.1-0.2-0.2-0.2-0.3L10.7,16.9z"/>
	</g>
	<g>
		<path class="st1" d="M16.5,15.5c-0.1-0.1-0.2-0.2-0.1-0.4l0,0c0.1-0.1,0.2-0.2,0.4-0.1l2.7,1.4c0.1,0.1,0.2,0.2,0.1,0.4l0,0
			c-0.1,0.1-0.2,0.2-0.4,0.1L16.5,15.5z"/>
	</g>
	<g>
		<path class="st1" d="M17.1,12.2c-0.1,0-0.3-0.1-0.3-0.2l0,0c0-0.1,0.1-0.3,0.2-0.3l3-0.3c0.1,0,0.3,0.1,0.3,0.2l0,0
			c0,0.1-0.1,0.3-0.2,0.3L17.1,12.2z"/>
	</g>
	<g>
		<path class="st1" d="M15.1,19.7c0,0.1,0,0.3-0.2,0.3l0,0c-0.1,0-0.3,0-0.3-0.2l-1-2.8c0-0.1,0-0.3,0.2-0.3l0,0
			c0.1,0,0.3,0,0.3,0.2L15.1,19.7z"/>
	</g>
	<g>
		<path class="st1" d="M15.6,9.5c-0.1,0.1-0.3,0.1-0.4,0l0,0c-0.1-0.1-0.1-0.3,0-0.4L17,6.8c0.1-0.1,0.3-0.1,0.4,0l0,0
			c0.1,0.1,0.1,0.3,0,0.4L15.6,9.5z"/>
	</g>
</g>
</svg>
