<?xml version="1.0" encoding="utf-8"?>
<!-- Generator: Adobe Illustrator 20.1.0, SVG Export Plug-In . SVG Version: 6.00 Build 0)  -->
<svg version="1.1" id="Layer_1" xmlns="http://www.w3.org/2000/svg" xmlns:xlink="http://www.w3.org/1999/xlink" x="0px" y="0px"
	 viewBox="0 0 25 25" style="enable-background:new 0 0 25 25;" xml:space="preserve">
<style type="text/css">
	.st0{fill:none;stroke:#FFFFFF;stroke-width:1.5056;stroke-linecap:round;stroke-linejoin:round;stroke-miterlimit:10;}
	.st1{fill:#FFFFFF;}
</style>
<g>
	<path class="st0" d="M-30.9,6.5c-0.1,0-0.2,0-0.4,0V6.4c0-2.8-2.3-5.1-5.1-5.1c-2.6,0-4.8,1.9-5.1,4.5c-0.2,0-0.3,0-0.5,0
		c-1.5-0.1-2.8,1.1-2.8,2.7c0,0.1,0,0.2,0,0.2c-0.2,0-0.4,0-0.5,0c-2,0-3.7,1.6-3.7,3.7c0,2,1.6,3.7,3.7,3.7c2,0,11.9,0,14.4,0
		c2.6,0,4.8-2.1,4.8-4.8S-28.2,6.5-30.9,6.5z"/>
	<g>
		<g>
			<line class="st0" x1="-43.6" y1="18.3" x2="-45" y2="20.4"/>
			<line class="st0" x1="-37.9" y1="18.3" x2="-39.3" y2="20.4"/>
			<line class="st0" x1="-32.3" y1="18.3" x2="-33.6" y2="20.4"/>
		</g>
		<g>
			<line class="st0" x1="-42.1" y1="21.5" x2="-43.4" y2="23.6"/>
			<line class="st0" x1="-36.4" y1="21.5" x2="-37.8" y2="23.6"/>
		</g>
	</g>
</g>
<g>
	<path class="st1" d="M-30.2-22.3c-2.9,0-5.2-2.3-5.2-5.2c0-2.9,2.3-5.2,5.2-5.2c2.9,0,5.2,2.3,5.2,5.2
		C-25-24.7-27.3-22.3-30.2-22.3z M-30.2-31.8c-2.4,0-4.3,1.9-4.3,4.3c0,2.4,1.9,4.3,4.3,4.3c2.4,0,4.3-1.9,4.3-4.3
		C-25.9-29.9-27.8-31.8-30.2-31.8z"/>
	<g>
		<path class="st1" d="M-34.2-32.1c0.1,0.2,0.1,0.4,0,0.5l0,0c-0.2,0.1-0.4,0.1-0.5,0l-2.7-3.1c-0.1-0.2-0.1-0.4,0-0.5l0,0
			c0.2-0.1,0.4-0.1,0.5,0L-34.2-32.1z"/>
	</g>
	<g>
		<path class="st1" d="M-29.8-33.7c0,0.2-0.2,0.4-0.4,0.4l0,0c-0.2,0-0.4-0.2-0.4-0.4l0-4.1c0-0.2,0.2-0.4,0.4-0.4l0,0
			c0.2,0,0.4,0.2,0.4,0.4L-29.8-33.7z"/>
	</g>
	<g>
		<path class="st1" d="M-36.4-28.5c0.2,0,0.3,0.2,0.3,0.4l0,0c0,0.2-0.2,0.3-0.4,0.3l-4.1-0.3c-0.2,0-0.3-0.2-0.3-0.4l0,0
			c0-0.2,0.2-0.3,0.4-0.3L-36.4-28.5z"/>
	</g>
	<g>
		<path class="st1" d="M-35.7-24.7c0.2-0.1,0.4-0.1,0.5,0.1l0,0c0.1,0.2,0.1,0.4-0.1,0.5l-3.4,2.2c-0.2,0.1-0.4,0.1-0.5-0.1l0,0
			c-0.1-0.2-0.1-0.4,0.1-0.5L-35.7-24.7z"/>
	</g>
	<g>
		<path class="st1" d="M-32.6-22c0.1-0.2,0.3-0.3,0.5-0.2l0,0c0.2,0.1,0.3,0.3,0.2,0.5l-1.4,3.8c-0.1,0.2-0.3,0.3-0.5,0.2l0,0
			c-0.2-0.1-0.3-0.3-0.2-0.5L-32.6-22z"/>
	</g>
	<g>
		<path class="st1" d="M-24.8-23.9c-0.2-0.1-0.2-0.3-0.2-0.5l0,0c0.1-0.2,0.3-0.2,0.5-0.2l3.6,1.9c0.2,0.1,0.2,0.3,0.2,0.5l0,0
			c-0.1,0.2-0.3,0.2-0.5,0.2L-24.8-23.9z"/>
	</g>
	<g>
		<path class="st1" d="M-24-28.3c-0.2,0-0.4-0.1-0.4-0.3l0,0c0-0.2,0.1-0.4,0.3-0.4l4.1-0.5c0.2,0,0.4,0.1,0.4,0.3l0,0
			c0,0.2-0.1,0.4-0.3,0.4L-24-28.3z"/>
	</g>
	<g>
		<path class="st1" d="M-26.7-18.1c0.1,0.2,0,0.4-0.2,0.5l0,0c-0.2,0.1-0.4,0-0.5-0.2l-1.4-3.8c-0.1-0.2,0-0.4,0.2-0.5l0,0
			c0.2-0.1,0.4,0,0.5,0.2L-26.7-18.1z"/>
	</g>
	<g>
		<path class="st1" d="M-26-32c-0.1,0.2-0.3,0.2-0.5,0.1l0,0c-0.2-0.1-0.2-0.3-0.1-0.5l2.5-3.2c0.1-0.2,0.3-0.2,0.5-0.1l0,0
			c0.2,0.1,0.2,0.3,0.1,0.5L-26-32z"/>
	</g>
</g>
<g>
	<path class="st1" d="M-101.3,0.4c0.1,0.2,0.4,0.2,0.6,0c0.2-0.1,0.2-0.4,0-0.6l-3-3.5c-0.2-0.2-0.4-0.2-0.6,0
		c-0.2,0.1-0.2,0.4,0,0.6L-101.3,0.4z"/>
	<path class="st1" d="M-96.6-1c0.2,0,0.4-0.2,0.4-0.4l0-4.6c0-0.2-0.2-0.4-0.4-0.4C-96.8-6.4-97-6.2-97-6l0,4.6
		C-97.1-1.1-96.9-1-96.6-1z"/>
	<path class="st1" d="M-108,2.7l4.5,1c0.2,0,0.4-0.1,0.5-0.3c0-0.2-0.1-0.4-0.3-0.5l-4.5-1c-0.2,0-0.4,0.1-0.5,0.3
		C-108.3,2.5-108.2,2.7-108,2.7z"/>
	<path class="st1" d="M-90.5,3.4c0,0.2,0.3,0.4,0.5,0.3l4.5-0.9c0.2,0,0.4-0.3,0.3-0.5c0-0.2-0.3-0.4-0.5-0.3l-4.5,0.9
		C-90.4,2.9-90.6,3.1-90.5,3.4z"/>
	<path class="st1" d="M-92.1,0.2l3.3-3.2c0.2-0.2,0.2-0.4,0-0.6c-0.2-0.2-0.4-0.2-0.6,0l-3.3,3.2c-0.2,0.2-0.2,0.4,0,0.6
		C-92.6,0.4-92.3,0.4-92.1,0.2z"/>
	<path class="st1" d="M-90.8,5.5c-0.1-3.2-2.7-5.7-5.8-5.7c-3.2,0-5.8,2.5-5.8,5.7h-5.8v0.9h5.9h11.1h6.3V5.5H-90.8z M-96.6,0.7
		c2.6,0,4.8,2.1,4.9,4.8h-9.9C-101.5,2.9-99.3,0.7-96.6,0.7z"/>
</g>
<g>
	<g>
		<path class="st1" d="M-78.8,42.3c1.6,1,2.8,2.5,3.4,4.4c1.4,4.4-1,9-5.3,10.4c-0.4,0.1-0.8,0.2-1.1,0.3c2,1.3,4.6,1.7,7,0.9
			c4.4-1.4,6.7-6.1,5.3-10.4C-70.8,43.9-74.8,41.6-78.8,42.3z"/>
	</g>
	<g>
		<polygon class="st1" points="-85.9,59.5 -88,58.6 -89.9,59.8 -89.7,57.5 -91.5,56.1 -89.3,55.6 -88.4,53.4 -87.3,55.4 -85,55.5 
			-86.5,57.3 		"/>
	</g>
	<g>
		<polygon class="st1" points="-87.2,49.1 -88.9,48.3 -90.4,49.3 -90.2,47.5 -91.6,46.3 -89.9,45.9 -89.2,44.3 -88.3,45.8 
			-86.4,45.9 -87.6,47.3 		"/>
	</g>
	<g>
		<polygon class="st1" points="-79.7,51.8 -81.1,51.2 -82.4,52 -82.3,50.5 -83.5,49.5 -82,49.1 -81.4,47.7 -80.6,49 -79,49.1 
			-80.1,50.3 		"/>
	</g>
</g>
<path class="st1" d="M-94.3-35.5c-1.3-4-5.3-6.3-9.3-5.6c1.6,1,2.8,2.5,3.4,4.4c0.9,2.8,0.3,5.6-1.4,7.7c0,0-0.1,0-0.1-0.1
	c0,0,0-0.1,0-0.1c0-1.5-1.2-2.8-2.7-2.8c-0.5,0-0.9,0.1-1.3,0.3c-0.3-1.4-1.6-2.4-3.1-2.4l-0.2,0c-1.5,0.1-2.8,1.2-3,2.6
	c-0.2-0.1-0.5-0.1-0.7-0.1c-1.5,0-2.7,1.2-2.8,2.7c-0.7,0.2-1.8,0.7-1.8,2.2c0,1.3,1.1,2.3,2.5,2.3l0.1,0c0.8,0,4.2,0,4.2,0v-0.1
	c0,0,0,0,0,0l0,0.1l0-0.1c0.5,0.1,1.6,0.1,3.9,0.1c0,0,1.8,0,3.1,0c0.5,0,0.9,0,1.2,0c0.4,0,0.9-0.2,1.2-0.5c0.5-0.1,1-0.2,1.6-0.3
	C-95.3-26.5-92.9-31.1-94.3-35.5z M-110.6-25.2l0,0.2L-110.6-25.2c0,0-1.6,0-2.8,0c-0.6,0-1.1,0-1.5,0c-0.9,0-1.6-0.6-1.6-1.4
	c0-0.9,0.5-1.2,1.5-1.5l0.3-0.1l0-0.5c0,0,0-0.1,0-0.2c0-1,0.8-1.9,1.9-1.9c0.3,0,0.6,0.1,0.9,0.2l0.7,0.4l0-0.8
	c0-1.2,1-2.3,2.3-2.3l0.1,0c1.3,0,2.3,1,2.4,2.2c0,0,0,0.1,0,0.2l0,1.1l0.8-0.8c0.4-0.4,0.8-0.6,1.3-0.6c1,0,1.9,0.8,1.9,1.9
	c0,0.1,0,0.3,0,0.4l-0.1,0.4l0.4,0.1c0,0,0,0,0,0c-0.9,0.9-2,1.6-3.3,2c-0.4,0.1-0.8,0.2-1.1,0.3c0.5,0.3,1.1,0.6,1.7,0.8
	c-0.9,0-1.8,0-1.8,0C-106.7-25.2-110.4-25.2-110.6-25.2z"/>
<g>
	<path class="st1" d="M15,9.2c0.1,0.1,0.2,0.1,0.3,0c0.1-0.1,0.1-0.2,0-0.3l-1.6-1.8c-0.1-0.1-0.2-0.1-0.3,0c-0.1,0.1-0.1,0.2,0,0.3
		L15,9.2z"/>
	<path class="st1" d="M17.6,8.1c0.1,0,0.2-0.1,0.2-0.2l0-2.4c0-0.1-0.1-0.2-0.2-0.2c-0.1,0-0.2,0.1-0.2,0.2l0,2.4
		C17.4,8,17.5,8.1,17.6,8.1z"/>
	<path class="st1" d="M23,14.4l-2.1-1.1c-0.1-0.1-0.2,0-0.3,0.1c-0.1,0.1,0,0.2,0.1,0.3l2.1,1.1c0.1,0.1,0.2,0,0.3-0.1
		C23.2,14.5,23.1,14.4,23,14.4z"/>
	<path class="st1" d="M23.5,10.4l-2.4,0.3c-0.1,0-0.2,0.1-0.2,0.2c0,0.1,0.1,0.2,0.2,0.2l2.4-0.3c0.1,0,0.2-0.1,0.2-0.2
		C23.7,10.4,23.6,10.4,23.5,10.4z"/>
	<path class="st1" d="M18.9,14.7c0-0.1-0.2-0.2-0.3-0.1c-0.1,0-0.2,0.2-0.1,0.3l0.8,2.2c0,0.1,0.2,0.2,0.3,0.1
		c0.1,0,0.2-0.2,0.1-0.3L18.9,14.7z"/>
	<path class="st1" d="M20.1,8.9l1.5-1.9c0.1-0.1,0.1-0.2,0-0.3c-0.1-0.1-0.2-0.1-0.3,0l-1.5,1.9c-0.1,0.1-0.1,0.2,0,0.3
		C19.9,9,20,9,20.1,8.9z"/>
	<path class="st1" d="M17.6,8.4c-1.7,0-3.1,1.4-3.1,3.1c0,0.2,0,0.4,0,0.5c0.2,0,0.5,0.1,0.7,0.1c-0.1-0.2-0.1-0.4-0.1-0.7
		c0-1.3,1.1-2.4,2.4-2.4c1.3,0,2.4,1.1,2.4,2.4c0,1.3-1.1,2.4-2.4,2.4c-0.2,0-0.4,0-0.6-0.1c0.1,0.2,0.1,0.5,0.1,0.7
		c0.2,0,0.3,0,0.5,0c1.7,0,3.1-1.4,3.1-3.1C20.7,9.8,19.3,8.4,17.6,8.4z"/>
	<path class="st1" d="M17.1,15c0-0.1,0-0.1,0-0.2c0-0.1,0-0.1,0-0.2c0-0.2-0.1-0.5-0.1-0.7c-0.3-0.8-0.9-1.4-1.7-1.7
		c-0.2-0.1-0.5-0.1-0.7-0.1c0,0-0.1,0-0.1,0c-0.5,0-1,0.1-1.4,0.4c-0.1-0.4-0.3-0.8-0.5-1.2l1.5,0.1c0.1,0,0.2-0.1,0.2-0.2
		c0-0.1-0.1-0.2-0.2-0.2l-1.9-0.2c-0.6-0.6-1.5-1-2.5-0.9c-1.6,0.1-2.8,1.2-3,2.7c-0.3-0.1-0.6-0.1-0.9-0.1c-1.5,0-2.7,1.2-2.7,2.7
		c0,0,0,0.1,0,0.1c-0.8,0.2-1.8,0.7-1.8,2.2c0,1.2,1.1,2.2,2.4,2.2l0.1,0c0.8,0,4.3,0,4.3,0l0-0.1c0,0,0,0,0,0l0,0.1l0-0.1
		c0.5,0.1,1.5,0.1,4,0.1c0,0,1.9,0,3.2,0c0,0,0,0,0,0c0.5,0,0.9,0,1.2,0c0.6,0,1.2-0.3,1.7-0.9c0.4-0.5,0.6-1.1,0.6-1.8
		C18.8,16.1,18.1,15.3,17.1,15z M17.7,18.4c-0.3,0.4-0.7,0.6-1.2,0.6c-0.2,0-0.7,0-1.2,0c0,0,0,0,0,0c-1.3,0-3.2,0-3.2,0
		c-1.5,0-3.9,0-4,0l0,0.2l0-0.2c0,0-1.6,0-2.9,0c-0.6,0-1.2,0-1.4,0l-0.1,0c-1,0-1.8-0.7-1.8-1.6c0-1,0.6-1.4,1.6-1.6l0.2-0.1l0-0.2
		l0-0.1c0-0.1,0-0.1,0-0.2c0-1.1,0.9-2.1,2.1-2.1c0.3,0,0.7,0.1,1,0.3l0.5,0.3l0-0.6c0-1.3,1-2.5,2.4-2.5l0.1,0
		c0.6,0,1.2,0.2,1.6,0.6c0,0,0.1,0.1,0.1,0.1c0.5,0.4,0.8,1,0.8,1.7c0,0,0,0.1,0,0.2l0,0.9l0.6-0.6c0.4-0.4,0.9-0.6,1.5-0.6
		c0.1,0,0.2,0,0.3,0c0.8,0.1,1.5,0.8,1.7,1.6c0,0.1,0,0.3,0,0.4c0,0.1,0,0.3,0,0.4l-0.1,0.3l0.3,0.1c0.8,0.1,1.4,0.8,1.4,1.5
		C18.2,17.5,18,18,17.7,18.4z"/>
</g>
</svg>
