<?xml version="1.0" encoding="utf-8"?>
<!-- Generator: Adobe Illustrator 20.1.0, SVG Export Plug-In . SVG Version: 6.00 Build 0)  -->
<svg version="1.1" id="Layer_1" xmlns="http://www.w3.org/2000/svg" xmlns:xlink="http://www.w3.org/1999/xlink" x="0px" y="0px"
	 viewBox="0 0 25 25" style="enable-background:new 0 0 25 25;" xml:space="preserve">
<style type="text/css">
	.st0{fill:none;stroke:#FFFFFF;stroke-width:1.5056;stroke-linecap:round;stroke-linejoin:round;stroke-miterlimit:10;}
	.st1{fill:#FFFFFF;}
</style>
<g>
	<path class="st0" d="M-30.9,6.5c-0.1,0-0.2,0-0.4,0V6.4c0-2.8-2.3-5.1-5.1-5.1c-2.6,0-4.8,1.9-5.1,4.5c-0.2,0-0.3,0-0.5,0
		c-1.5-0.1-2.8,1.1-2.8,2.7c0,0.1,0,0.2,0,0.2c-0.2,0-0.4,0-0.5,0c-2,0-3.7,1.6-3.7,3.7c0,2,1.6,3.7,3.7,3.7c2,0,11.9,0,14.4,0
		c2.6,0,4.8-2.1,4.8-4.8S-28.2,6.5-30.9,6.5z"/>
	<g>
		<g>
			<line class="st0" x1="-43.6" y1="18.3" x2="-45" y2="20.4"/>
			<line class="st0" x1="-37.9" y1="18.3" x2="-39.3" y2="20.4"/>
			<line class="st0" x1="-32.3" y1="18.3" x2="-33.6" y2="20.4"/>
		</g>
		<g>
			<line class="st0" x1="-42.1" y1="21.5" x2="-43.4" y2="23.6"/>
			<line class="st0" x1="-36.4" y1="21.5" x2="-37.8" y2="23.6"/>
		</g>
	</g>
</g>
<g>
	<path class="st1" d="M-30.2-22.3c-2.9,0-5.2-2.3-5.2-5.2c0-2.9,2.3-5.2,5.2-5.2c2.9,0,5.2,2.3,5.2,5.2
		C-25-24.7-27.3-22.3-30.2-22.3z M-30.2-31.8c-2.4,0-4.3,1.9-4.3,4.3c0,2.4,1.9,4.3,4.3,4.3c2.4,0,4.3-1.9,4.3-4.3
		C-25.9-29.9-27.8-31.8-30.2-31.8z"/>
	<g>
		<path class="st1" d="M-34.2-32.1c0.1,0.2,0.1,0.4,0,0.5l0,0c-0.2,0.1-0.4,0.1-0.5,0l-2.7-3.1c-0.1-0.2-0.1-0.4,0-0.5l0,0
			c0.2-0.1,0.4-0.1,0.5,0L-34.2-32.1z"/>
	</g>
	<g>
		<path class="st1" d="M-29.8-33.7c0,0.2-0.2,0.4-0.4,0.4l0,0c-0.2,0-0.4-0.2-0.4-0.4l0-4.1c0-0.2,0.2-0.4,0.4-0.4l0,0
			c0.2,0,0.4,0.2,0.4,0.4L-29.8-33.7z"/>
	</g>
	<g>
		<path class="st1" d="M-36.4-28.5c0.2,0,0.3,0.2,0.3,0.4l0,0c0,0.2-0.2,0.3-0.4,0.3l-4.1-0.3c-0.2,0-0.3-0.2-0.3-0.4l0,0
			c0-0.2,0.2-0.3,0.4-0.3L-36.4-28.5z"/>
	</g>
	<g>
		<path class="st1" d="M-35.7-24.7c0.2-0.1,0.4-0.1,0.5,0.1l0,0c0.1,0.2,0.1,0.4-0.1,0.5l-3.4,2.2c-0.2,0.1-0.4,0.1-0.5-0.1l0,0
			c-0.1-0.2-0.1-0.4,0.1-0.5L-35.7-24.7z"/>
	</g>
	<g>
		<path class="st1" d="M-32.6-22c0.1-0.2,0.3-0.3,0.5-0.2l0,0c0.2,0.1,0.3,0.3,0.2,0.5l-1.4,3.8c-0.1,0.2-0.3,0.3-0.5,0.2l0,0
			c-0.2-0.1-0.3-0.3-0.2-0.5L-32.6-22z"/>
	</g>
	<g>
		<path class="st1" d="M-24.8-23.9c-0.2-0.1-0.2-0.3-0.2-0.5l0,0c0.1-0.2,0.3-0.2,0.5-0.2l3.6,1.9c0.2,0.1,0.2,0.3,0.2,0.5l0,0
			c-0.1,0.2-0.3,0.2-0.5,0.2L-24.8-23.9z"/>
	</g>
	<g>
		<path class="st1" d="M-24-28.3c-0.2,0-0.4-0.1-0.4-0.3l0,0c0-0.2,0.1-0.4,0.3-0.4l4.1-0.5c0.2,0,0.4,0.1,0.4,0.3l0,0
			c0,0.2-0.1,0.4-0.3,0.4L-24-28.3z"/>
	</g>
	<g>
		<path class="st1" d="M-26.7-18.1c0.1,0.2,0,0.4-0.2,0.5l0,0c-0.2,0.1-0.4,0-0.5-0.2l-1.4-3.8c-0.1-0.2,0-0.4,0.2-0.5l0,0
			c0.2-0.1,0.4,0,0.5,0.2L-26.7-18.1z"/>
	</g>
	<g>
		<path class="st1" d="M-26-32c-0.1,0.2-0.3,0.2-0.5,0.1l0,0c-0.2-0.1-0.2-0.3-0.1-0.5l2.5-3.2c0.1-0.2,0.3-0.2,0.5-0.1l0,0
			c0.2,0.1,0.2,0.3,0.1,0.5L-26-32z"/>
	</g>
</g>
<g>
	<path class="st1" d="M-101.3,0.4c0.1,0.2,0.4,0.2,0.6,0c0.2-0.1,0.2-0.4,0-0.6l-3-3.5c-0.2-0.2-0.4-0.2-0.6,0
		c-0.2,0.1-0.2,0.4,0,0.6L-101.3,0.4z"/>
	<path class="st1" d="M-96.6-1c0.2,0,0.4-0.2,0.4-0.4l0-4.6c0-0.2-0.2-0.4-0.4-0.4C-96.8-6.4-97-6.2-97-6l0,4.6
		C-97.1-1.1-96.9-1-96.6-1z"/>
	<path class="st1" d="M-108,2.7l4.5,1c0.2,0,0.4-0.1,0.5-0.3c0-0.2-0.1-0.4-0.3-0.5l-4.5-1c-0.2,0-0.4,0.1-0.5,0.3
		C-108.3,2.5-108.2,2.7-108,2.7z"/>
	<path class="st1" d="M-90.5,3.4c0,0.2,0.3,0.4,0.5,0.3l4.5-0.9c0.2,0,0.4-0.3,0.3-0.5c0-0.2-0.3-0.4-0.5-0.3l-4.5,0.9
		C-90.4,2.9-90.6,3.1-90.5,3.4z"/>
	<path class="st1" d="M-92.1,0.2l3.3-3.2c0.2-0.2,0.2-0.4,0-0.6c-0.2-0.2-0.4-0.2-0.6,0l-3.3,3.2c-0.2,0.2-0.2,0.4,0,0.6
		C-92.6,0.4-92.3,0.4-92.1,0.2z"/>
	<path class="st1" d="M-90.8,5.5c-0.1-3.2-2.7-5.7-5.8-5.7c-3.2,0-5.8,2.5-5.8,5.7h-5.8v0.9h5.9h11.1h6.3V5.5H-90.8z M-96.6,0.7
		c2.6,0,4.8,2.1,4.9,4.8h-9.9C-101.5,2.9-99.3,0.7-96.6,0.7z"/>
</g>
<g>
	<g>
		<path class="st1" d="M-118.7,40.2c0.7,0.4,1.2,1.1,1.4,1.9c0.6,1.8-0.4,3.8-2.3,4.4c-0.2,0.1-0.3,0.1-0.5,0.1
			c0.9,0.5,1.9,0.7,3,0.4c1.8-0.6,2.9-2.6,2.3-4.4C-115.3,40.9-117,39.9-118.7,40.2z"/>
	</g>
</g>
<g>
	<g>
		<path class="st1" d="M19.7,6.2c0.7,0.4,1.2,1.1,1.4,1.9c0.6,1.8-0.4,3.8-2.3,4.4c-0.2,0.1-0.3,0.1-0.5,0.1c0.9,0.5,1.9,0.7,3,0.4
			c1.8-0.6,2.9-2.6,2.3-4.4C23.1,6.9,21.4,5.9,19.7,6.2z"/>
	</g>
</g>
<path class="st1" d="M-77.7-34.2c-1.3-4-5.3-6.3-9.3-5.6c1.6,1,2.8,2.5,3.4,4.4c0.9,2.8,0.3,5.6-1.4,7.7c0,0-0.1,0-0.1-0.1
	c0,0,0-0.1,0-0.1c0-1.5-1.2-2.8-2.7-2.8c-0.5,0-0.9,0.1-1.3,0.3c-0.3-1.4-1.6-2.4-3.1-2.4l-0.2,0c-1.5,0.1-2.8,1.2-3,2.6
	c-0.2-0.1-0.5-0.1-0.7-0.1c-1.5,0-2.7,1.2-2.8,2.7c-0.7,0.2-1.8,0.7-1.8,2.2c0,1.3,1.1,2.3,2.5,2.3l0.1,0c0.8,0,4.2,0,4.2,0v-0.1
	c0,0,0,0,0,0l0,0.1l0-0.1c0.5,0.1,1.6,0.1,3.9,0.1c0,0,1.8,0,3.1,0c0.5,0,0.9,0,1.2,0c0.4,0,0.9-0.2,1.2-0.5c0.5-0.1,1-0.2,1.6-0.3
	C-78.7-25.2-76.3-29.9-77.7-34.2z M-94-23.9l0,0.2L-94-23.9c0,0-1.6,0-2.8,0c-0.6,0-1.1,0-1.5,0c-0.9,0-1.6-0.6-1.6-1.4
	c0-0.9,0.5-1.2,1.5-1.5l0.3-0.1l0-0.5c0,0,0-0.1,0-0.2c0-1,0.8-1.9,1.9-1.9c0.3,0,0.6,0.1,0.9,0.2l0.7,0.4l0-0.8
	c0-1.2,1-2.3,2.3-2.3l0.1,0c1.3,0,2.3,1,2.4,2.2c0,0,0,0.1,0,0.2l0,1.1l0.8-0.8c0.4-0.4,0.8-0.6,1.3-0.6c1,0,1.9,0.8,1.9,1.9
	c0,0.1,0,0.3,0,0.4l-0.1,0.4l0.4,0.1c0,0,0,0,0,0c-0.9,0.9-2,1.6-3.3,2c-0.4,0.1-0.8,0.2-1.1,0.3c0.5,0.3,1.1,0.6,1.7,0.8
	c-0.9,0-1.8,0-1.8,0C-90.1-23.9-93.8-23.9-94-23.9z"/>
<g>
	<path class="st1" d="M51.7,9.2c0.1,0.1,0.2,0.1,0.3,0c0.1-0.1,0.1-0.2,0-0.3l-1.6-1.8c-0.1-0.1-0.2-0.1-0.3,0
		c-0.1,0.1-0.1,0.2,0,0.3L51.7,9.2z"/>
	<path class="st1" d="M54.3,8.1c0.1,0,0.2-0.1,0.2-0.2l0-2.4c0-0.1-0.1-0.2-0.2-0.2c-0.1,0-0.2,0.1-0.2,0.2l0,2.4
		C54.1,8,54.2,8.1,54.3,8.1z"/>
	<path class="st1" d="M59.7,14.4l-2.1-1.1c-0.1-0.1-0.2,0-0.3,0.1c-0.1,0.1,0,0.2,0.1,0.3l2.1,1.1c0.1,0.1,0.2,0,0.3-0.1
		C59.9,14.5,59.9,14.4,59.7,14.4z"/>
	<path class="st1" d="M60.2,10.4l-2.4,0.3c-0.1,0-0.2,0.1-0.2,0.2c0,0.1,0.1,0.2,0.2,0.2l2.4-0.3c0.1,0,0.2-0.1,0.2-0.2
		C60.5,10.4,60.4,10.4,60.2,10.4z"/>
	<path class="st1" d="M55.6,14.7c0-0.1-0.2-0.2-0.3-0.1c-0.1,0-0.2,0.2-0.1,0.3l0.8,2.2c0,0.1,0.2,0.2,0.3,0.1
		c0.1,0,0.2-0.2,0.1-0.3L55.6,14.7z"/>
	<path class="st1" d="M56.8,8.9l1.5-1.9c0.1-0.1,0.1-0.2,0-0.3c-0.1-0.1-0.2-0.1-0.3,0l-1.5,1.9c-0.1,0.1-0.1,0.2,0,0.3
		C56.6,9,56.7,9,56.8,8.9z"/>
	<path class="st1" d="M54.3,8.4c-1.7,0-3.1,1.4-3.1,3.1c0,0.2,0,0.4,0,0.5c0.2,0,0.5,0.1,0.7,0.1c-0.1-0.2-0.1-0.4-0.1-0.7
		c0-1.3,1.1-2.4,2.4-2.4c1.3,0,2.4,1.1,2.4,2.4c0,1.3-1.1,2.4-2.4,2.4c-0.2,0-0.4,0-0.6-0.1c0.1,0.2,0.1,0.5,0.1,0.7
		c0.2,0,0.3,0,0.5,0c1.7,0,3.1-1.4,3.1-3.1C57.4,9.8,56,8.4,54.3,8.4z"/>
	<path class="st1" d="M53.9,15c0-0.1,0-0.1,0-0.2c0-0.1,0-0.1,0-0.2c0-0.2-0.1-0.5-0.1-0.7c-0.3-0.8-0.9-1.4-1.7-1.7
		c-0.2-0.1-0.5-0.1-0.7-0.1c0,0-0.1,0-0.1,0c-0.5,0-1,0.1-1.4,0.4c-0.1-0.4-0.3-0.8-0.5-1.2l1.5,0.1c0.1,0,0.2-0.1,0.2-0.2
		c0-0.1-0.1-0.2-0.2-0.2l-1.9-0.2c-0.6-0.6-1.5-1-2.5-0.9c-1.6,0.1-2.8,1.2-3,2.7c-0.3-0.1-0.6-0.1-0.9-0.1c-1.5,0-2.7,1.2-2.7,2.7
		c0,0,0,0.1,0,0.1C39,15.4,38,15.8,38,17.4c0,1.2,1.1,2.2,2.4,2.2l0.1,0c0.8,0,4.3,0,4.3,0l0-0.1c0,0,0,0,0,0l0,0.1l0-0.1
		c0.5,0.1,1.5,0.1,4,0.1c0,0,1.9,0,3.2,0c0,0,0,0,0,0c0.5,0,0.9,0,1.2,0c0.6,0,1.2-0.3,1.7-0.9c0.4-0.5,0.6-1.1,0.6-1.8
		C55.5,16.1,54.8,15.3,53.9,15z M54.4,18.4c-0.3,0.4-0.7,0.6-1.2,0.6c-0.2,0-0.7,0-1.2,0c0,0,0,0,0,0c-1.3,0-3.2,0-3.2,0
		c-1.5,0-3.9,0-4,0l0,0.2l0-0.2c0,0-1.6,0-2.9,0c-0.6,0-1.2,0-1.4,0l-0.1,0c-1,0-1.8-0.7-1.8-1.6c0-1,0.6-1.4,1.6-1.6l0.2-0.1l0-0.2
		l0-0.1c0-0.1,0-0.1,0-0.2c0-1.1,0.9-2.1,2.1-2.1c0.3,0,0.7,0.1,1,0.3l0.5,0.3l0-0.6c0-1.3,1-2.5,2.4-2.5l0.1,0
		c0.6,0,1.2,0.2,1.6,0.6c0,0,0.1,0.1,0.1,0.1c0.5,0.4,0.8,1,0.8,1.7c0,0,0,0.1,0,0.2l0,0.9l0.6-0.6c0.4-0.4,0.9-0.6,1.5-0.6
		c0.1,0,0.2,0,0.3,0c0.8,0.1,1.5,0.8,1.7,1.6c0,0.1,0,0.3,0,0.4c0,0.1,0,0.3,0,0.4l-0.1,0.3l0.3,0.1c0.8,0.1,1.4,0.8,1.4,1.5
		C54.9,17.5,54.7,18,54.4,18.4z"/>
</g>
<g>
	<path class="st1" d="M16.5,8.2c-0.7-0.7-1.7-1.1-2.8-1.1c-1.8,0.1-3.2,1.4-3.4,3c-0.3-0.1-0.6-0.2-1-0.2c-1.7,0-3.1,1.4-3.1,3.1
		c0,0,0,0.1,0,0.1c-0.9,0.2-2.1,0.7-2.1,2.5c0,1.4,1.2,2.5,2.8,2.5l0.1,0c0.9,0,4.8,0,4.8,0l0-0.1c0,0,0,0,0,0l0,0.1l0-0.1
		c0.5,0.1,1.7,0.1,4.5,0.1c0,0,2.1,0,3.6,0c0,0,0,0,0,0c0.6,0,1.1,0,1.3,0c0.7,0,1.4-0.4,1.9-1c0.5-0.6,0.7-1.3,0.7-2
		c-0.1-1.1-0.8-2-1.9-2.3c0-0.1,0-0.2,0-0.3c0-0.1,0-0.1,0-0.2c0-0.3-0.1-0.5-0.2-0.8c-0.3-0.9-1-1.6-1.9-1.9
		c-0.3-0.1-0.5-0.1-0.8-0.2c-0.1,0-0.1,0-0.2,0c-0.6,0-1.1,0.2-1.6,0.4c-0.1-0.5-0.3-0.9-0.6-1.3 M22.7,16.8
		c-0.4,0.4-0.8,0.7-1.3,0.7c-0.3,0-0.7,0-1.3,0c0,0,0,0,0,0c-1.5,0-3.6,0-3.6,0c-1.7,0-4.4,0-4.5,0l0,0.2l0-0.2c0,0-1.8,0-3.3,0
		c-0.7,0-1.3,0-1.6,0l-0.1,0c-1.1,0-2-0.8-2-1.8c0-1.2,0.6-1.5,1.8-1.8L7,13.8l0-0.3l0-0.2c0-0.1,0-0.1,0-0.2c0-1.3,1-2.3,2.3-2.3
		c0.4,0,0.8,0.1,1.1,0.3l0.6,0.3l0-0.7c0-1.5,1.2-2.8,2.7-2.9l0.2,0c0.7,0,1.3,0.2,1.8,0.6c0,0,0.1,0.1,0.1,0.1
		c0.5,0.5,0.9,1.2,0.9,1.9c0,0.1,0,0.1,0,0.2l0,1l0.7-0.7c0.4-0.4,1-0.7,1.7-0.7c0.1,0,0.3,0,0.4,0c0.9,0.2,1.7,0.9,1.9,1.8
		c0,0.1,0,0.3,0,0.4c0,0.2,0,0.3,0,0.5l-0.1,0.4l0.4,0.1c0.9,0.2,1.6,0.9,1.6,1.7C23.3,15.8,23.1,16.4,22.7,16.8z"/>
	<g>
		<path class="st1" d="M10.1,11.5c-0.5-0.5-1.3-0.8-2-0.8c-1.3,0.1-2.3,1-2.5,2.2c-0.2-0.1-0.5-0.1-0.7-0.1c-1.2,0-2.3,1-2.3,2.3
			c0,0,0,0,0,0.1C1.9,15.3,1,15.7,1,17c0,1,0.9,1.9,2,1.9l0.1,0c0.7,0,3.6,0,3.6,0l0,0c0,0,0,0,0,0l0,0l0,0c0.4,0.1,1.3,0.1,3.3,0.1
			c0,0,1.5,0,2.7,0c0,0,0,0,0,0c0.4,0,0.8,0,1,0c0.5,0,1-0.3,1.4-0.7c0.3-0.4,0.5-0.9,0.5-1.5c0-0.8-0.6-1.5-1.4-1.7
			c0-0.1,0-0.1,0-0.2c0-0.1,0-0.1,0-0.2c0-0.2-0.1-0.4-0.1-0.6c-0.2-0.7-0.8-1.2-1.4-1.4c-0.2-0.1-0.4-0.1-0.6-0.1c0,0-0.1,0-0.1,0
			c-0.4,0-0.8,0.1-1.2,0.3c-0.1-0.4-0.2-0.7-0.4-1 M6.7,18.3 M9.6,11.8 M8,11.2l0.1,0 M3.1,15.5l0-0.2"/>
	</g>
</g>
<g>
	<path class="st1" d="M89.9-14.7c1.7-0.7,2.6-2.5,2-4.3c-0.5-1.7-2.2-2.6-3.9-2.4c0.7,0.4,1.2,1.1,1.4,1.9c0.3,1,0.2,1.9-0.3,2.8
		c-0.5-0.6-1.2-1-2.1-1c-0.5,0-1,0.1-1.4,0.4c-0.3-1.5-1.7-2.7-3.4-2.6c-1.6,0.1-2.8,1.2-3,2.7c-0.3-0.1-0.6-0.1-0.9-0.1
		c-1.5,0-2.7,1.2-2.7,2.7c0,0,0,0.1,0,0.1c-0.8,0.2-1.8,0.7-1.8,2.2c0,1.2,1.1,2.2,2.4,2.2l0.1,0c0.8,0,4.3,0,4.3,0l0-0.1
		c0,0,0,0,0,0l0,0.1l0-0.1c0.5,0.1,1.5,0.1,4,0.1c0,0,1.9,0,3.2,0c0.5,0,1,0,1.2,0c1.3-0.1,2.4-1.3,2.3-2.6
		C91.4-13.6,90.8-14.3,89.9-14.7z M89.1-10.7c-0.9,0-4.4,0-4.4,0c-1.5,0-3.9,0-4,0l0,0.2l0-0.2c0,0-1.6,0-2.9,0c-0.6,0-1.2,0-1.5,0
		l-0.1,0c-1,0-1.8-0.7-1.8-1.6c0-1,0.6-1.4,1.6-1.6l0.3-0.1l0-0.4c0-0.1,0-0.1,0-0.2c0-1.1,0.9-2.1,2.1-2.1c0.3,0,0.7,0.1,1,0.3
		l0.5,0.3l0-0.6c0-1.4,1-2.5,2.4-2.5l0.1,0c1.4,0,2.5,1,2.6,2.4c0,0,0,0.1,0,0.2l0,0.9l0.6-0.6c0.4-0.4,0.9-0.6,1.5-0.6
		c0.7,0,1.3,0.3,1.7,0.9c-0.4,0.5-0.9,0.8-1.6,1C87-15,86.9-15,86.7-14.9c0.7,0.4,1.5,0.6,2.4,0.5L89-14.2l0.3,0.1
		c0.8,0.1,1.4,0.8,1.4,1.5C90.8-11.7,90.1-10.7,89.1-10.7z"/>
	<polygon class="st1" points="86.3,-19.2 86.8,-19.5 87.3,-19.3 87.2,-19.8 87.5,-20.3 87,-20.3 86.7,-20.8 86.4,-20.3 85.9,-20.1 
		86.3,-19.8 	"/>
	<polygon class="st1" points="84.4,-21 84.9,-21.2 85.3,-21 85.2,-21.5 85.5,-21.9 85,-21.9 84.8,-22.3 84.6,-21.9 84.1,-21.8 
		84.5,-21.5 	"/>
</g>
<g>
	<path class="st1" d="M13.6-49c-0.9-1.1-0.8-3.1-0.8-2.5C12.6-49.9,12-49,12-49c-0.1,0.1-0.1,0.2-0.1,0.3c0,0.4,0.4,0.8,0.9,0.8
		c0.5,0,0.9-0.4,0.9-0.8C13.6-48.8,13.6-48.9,13.6-49L13.6-49z"/>
	<path class="st1" d="M18-63.6c-1.4,0-2.6,1.1-2.6,2.6c0,0.5,0.1,0.9,0.4,1.3c-0.2,0-0.4-0.1-0.6-0.1c-0.5,0-1,0.1-1.5,0.4
		c-0.3-1.6-1.7-2.7-3.4-2.7c-1.6,0.1-2.9,1.3-3.1,2.8c-0.3-0.1-0.6-0.2-0.9-0.2c-1.5,0-2.8,1.2-2.8,2.8c0,0,0,0.1,0,0.1
		c-0.8,0.2-1.9,0.7-1.9,2.2c0,1.2,1,2.2,2.3,2.2l0.4-0.6c0,0-0.1,0-0.1,0l-0.1,0c-1,0-1.8-0.7-1.8-1.6c0-1.1,0.6-1.4,1.7-1.7
		l0.2-0.1l0-0.2l0-0.1c0-0.1,0-0.1,0-0.2c0-1.2,1-2.1,2.1-2.1c0.4,0,0.7,0.1,1,0.3l0.5,0.3l0-0.6c0-1.4,1.1-2.5,2.5-2.6l0.1,0
		c1.4,0,2.6,1.1,2.6,2.4c0,0,0,0.1,0,0.2l0,0.8l0.6-0.6c0.4-0.4,0.9-0.6,1.5-0.6c1.2,0,2.1,1,2.1,2.1c0,0.1,0,0.3,0,0.4l-0.1,0.3
		l0.3,0.1c0.8,0.1,1.4,0.8,1.5,1.6c0,0.8-0.5,1.7-1.3,1.9l0.2,0.6c1-0.3,1.8-1.4,1.7-2.5c0-1-0.7-1.8-1.7-2.1c0-0.1,0-0.2,0-0.2
		c0-0.6-0.2-1.1-0.4-1.5c0.1,0,0.3,0,0.4,0c1.4,0,2.6-1.1,2.6-2.6C20.6-62.4,19.4-63.6,18-63.6z M18-58.9c-1.2,0-2.1-0.9-2.1-2.1
		c0-1.2,0.9-2.1,2.1-2.1s2.1,0.9,2.1,2.1C20.1-59.9,19.2-58.9,18-58.9z"/>
	<path class="st1" d="M15.8-63c0.1,0.1,0.2,0.1,0.2,0c0.1-0.1,0.1-0.2,0-0.3l-1.3-1.5c-0.1-0.1-0.2-0.1-0.2,0
		c-0.1,0.1-0.1,0.2,0,0.2L15.8-63z"/>
	<path class="st1" d="M18-63.9c0.1,0,0.2-0.1,0.2-0.2l0-2c0-0.1-0.1-0.2-0.2-0.2c-0.1,0-0.2,0.1-0.2,0.2l0,2
		C17.8-64,17.9-63.9,18-63.9z"/>
	<path class="st1" d="M13-61.3l2,0.2c0.1,0,0.2-0.1,0.2-0.2c0-0.1-0.1-0.2-0.2-0.2l-2-0.2c-0.1,0-0.2,0.1-0.2,0.2
		C12.8-61.4,12.9-61.3,13-61.3z"/>
	<path class="st1" d="M22.6-58.6l-1.8-0.9c-0.1,0-0.2,0-0.2,0.1c0,0.1,0,0.2,0.1,0.2l1.8,0.9c0.1,0,0.2,0,0.2-0.1
		C22.7-58.5,22.7-58.6,22.6-58.6z"/>
	<path class="st1" d="M23-62l-2,0.2c-0.1,0-0.2,0.1-0.2,0.2c0,0.1,0.1,0.2,0.2,0.2l2-0.2c0.1,0,0.2-0.1,0.2-0.2
		C23.2-61.9,23.1-62,23-62z"/>
	<path class="st1" d="M18.9-58.4c-0.1,0-0.1,0.1-0.1,0.2l0.7,1.9c0,0.1,0.1,0.1,0.2,0.1c0.1,0,0.1-0.1,0.1-0.2l-0.7-1.9
		C19.1-58.4,19-58.4,18.9-58.4z"/>
	<path class="st1" d="M20.1-63.2l1.2-1.6c0.1-0.1,0-0.2,0-0.2c-0.1-0.1-0.2,0-0.2,0l-1.2,1.6c-0.1,0.1,0,0.2,0,0.2
		C19.9-63.1,20-63.1,20.1-63.2z"/>
	<path class="st1" d="M7.5-49.6c-1.1-1.4-1-3.9-1-3.1c-0.1,2.1-0.9,3.1-0.9,3.1c-0.1,0.1-0.1,0.3-0.1,0.4c0,0.5,0.5,1,1.1,1
		c0.6,0,1.1-0.4,1.1-1C7.6-49.3,7.6-49.5,7.5-49.6L7.5-49.6z"/>
	<path class="st1" d="M10.9-51.5c-0.9-1.2-0.9-3.4-0.9-2.7c-0.1,1.8-0.8,2.7-0.8,2.7c-0.1,0.1-0.1,0.2-0.1,0.4c0,0.5,0.4,0.9,1,0.9
		c0.5,0,1-0.4,1-0.9C11-51.3,11-51.4,10.9-51.5L10.9-51.5z"/>
	<path class="st1" d="M14.1-53.9c-0.1,1-0.5,1.6-0.5,1.6c0,0.1-0.1,0.1-0.1,0.2c0,0.3,0.2,0.5,0.6,0.5c0.3,0,0.6-0.2,0.6-0.5
		c0-0.1,0-0.1-0.1-0.2C14.1-53.1,14.1-54.3,14.1-53.9z"/>
</g>
<g>
	<path class="st1" d="M37.9-22c-1.1-1.4-1-3.9-1-3.1C36.8-23,35.9-22,35.9-22c-0.1,0.1-0.1,0.3-0.1,0.4c0,0.5,0.5,1,1.1,1
		c0.6,0,1.1-0.4,1.1-1C38-21.7,38-21.8,37.9-22L37.9-22z"/>
	<path class="st1" d="M40.4-26.6c-0.1,1.8-0.8,2.7-0.8,2.7c-0.1,0.1-0.1,0.2-0.1,0.4c0,0.5,0.4,0.9,1,0.9c0.5,0,1-0.4,1-0.9
		c0-0.1,0-0.3-0.1-0.4C40.4-25.1,40.4-27.3,40.4-26.6z"/>
	<path class="st1" d="M43.9-21.4c-0.9-1.1-0.8-3.1-0.8-2.5c-0.1,1.6-0.8,2.5-0.8,2.5c-0.1,0.1-0.1,0.2-0.1,0.3
		c0,0.4,0.4,0.8,0.9,0.8c0.5,0,0.9-0.4,0.9-0.8C44-21.2,44-21.3,43.9-21.4L43.9-21.4z"/>
	<path class="st1" d="M45-24.7c-0.5-0.7-0.5-2-0.5-1.6c-0.1,1-0.5,1.6-0.5,1.6c0,0.1-0.1,0.1-0.1,0.2c0,0.3,0.2,0.5,0.6,0.5
		c0.3,0,0.6-0.2,0.6-0.5C45-24.6,45-24.7,45-24.7L45-24.7z"/>
	<path class="st1" d="M50.9-32.4c-0.5-1.7-2.2-2.6-3.9-2.4c0.7,0.4,1.2,1.1,1.4,1.9c0.3,0.9,0.2,1.8-0.2,2.6
		c-0.4-1.1-1.4-1.8-2.6-1.8c-0.5,0-1,0.1-1.5,0.4c-0.3-1.6-1.7-2.7-3.4-2.7c-1.6,0.1-2.9,1.3-3.1,2.8c-0.3-0.1-0.6-0.2-0.9-0.2
		c-1.5,0-2.8,1.2-2.8,2.8c0,0,0,0.1,0,0.1c-0.8,0.2-1.9,0.7-1.9,2.2c0,1.2,1,2.2,2.3,2.2l0.4-0.6c0,0-0.1,0-0.1,0l-0.1,0
		c-1,0-1.8-0.7-1.8-1.6c0-1.1,0.6-1.4,1.7-1.7l0.2-0.1l0-0.2l0-0.1c0-0.1,0-0.1,0-0.2c0-1.2,1-2.1,2.1-2.1c0.4,0,0.7,0.1,1,0.3
		l0.5,0.3l0-0.6c0-1.4,1.1-2.5,2.5-2.6l0.1,0c1.4,0,2.6,1.1,2.6,2.4c0,0,0,0.1,0,0.2l0,0.8l0.6-0.6c0.4-0.4,0.9-0.6,1.5-0.6
		c1.1,0,2,0.8,2.1,1.9c-0.4,0.5-0.9,0.9-1.6,1.1c-0.2,0.1-0.3,0.1-0.5,0.1c0.8,0.5,1.9,0.7,2.9,0.4c0.1,0,0.2-0.1,0.3-0.1
		c0.3,0.3,0.5,0.7,0.5,1.1c0,0.8-0.5,1.7-1.3,1.9l0.2,0.6c1-0.3,1.8-1.4,1.7-2.5c0-0.5-0.2-1-0.6-1.4C50.8-29.3,51.4-30.9,50.9-32.4
		z"/>
</g>
<g>
	<g>
		<path class="st1" d="M-116.1,46.4c0-0.1,0-0.2,0-0.2c0-1.5-1.2-2.8-2.8-2.8c-0.5,0-1,0.1-1.5,0.4c-0.3-1.6-1.7-2.7-3.4-2.7
			c-1.6,0.1-2.9,1.3-3.1,2.8c-0.3-0.1-0.6-0.2-0.9-0.2c-1.5,0-2.8,1.2-2.8,2.8c0,0,0,0.1,0,0.1c-0.8,0.2-1.9,0.7-1.9,2.2
			c0,1.2,1,2.2,2.3,2.2l0.4-0.6c0,0-0.1,0-0.1,0l-0.1,0c-1,0-1.8-0.7-1.8-1.6c0-1.1,0.6-1.4,1.7-1.7l0.2-0.1l0-0.2l0-0.1
			c0-0.1,0-0.1,0-0.2c0-1.2,1-2.1,2.1-2.1c0.4,0,0.7,0.1,1,0.3l0.5,0.3l0-0.6c0-1.4,1.1-2.5,2.5-2.6l0.1,0c1.4,0,2.6,1.1,2.6,2.4
			c0,0,0,0.1,0,0.2l0,0.8l0.6-0.6c0.4-0.4,0.9-0.6,1.5-0.6c1.2,0,2.1,1,2.1,2.1c0,0.1,0,0.3,0,0.4l-0.1,0.3l0.3,0.1
			c0.8,0.1,1.4,0.8,1.5,1.6c0,0.8-0.5,1.7-1.3,1.9l0.2,0.6c1-0.3,1.8-1.4,1.7-2.5C-114.4,47.5-115.1,46.7-116.1,46.4z"/>
	</g>
	<g>
		<path class="st1" d="M-127.9,57.8c0,0.1-0.1,0.1-0.2,0.1l0,0c-0.1,0-0.2-0.1-0.2-0.1V50c0-0.1,0.1-0.1,0.2-0.1l0,0
			c0.1,0,0.2,0.1,0.2,0.1V57.8z"/>
	</g>
	<g>
		<path class="st1" d="M-126,58.9c0,0.1-0.1,0.1-0.2,0.1l0,0c-0.1,0-0.2-0.1-0.2-0.1v-7.7c0-0.1,0.1-0.1,0.2-0.1l0,0
			c0.1,0,0.2,0.1,0.2,0.1V58.9z"/>
	</g>
	<g>
		<path class="st1" d="M-123.3,57.3c0,0.1-0.1,0.1-0.2,0.1l0,0c-0.1,0-0.2-0.1-0.2-0.1v-7.7c0-0.1,0.1-0.1,0.2-0.1l0,0
			c0.1,0,0.2,0.1,0.2,0.1V57.3z"/>
	</g>
	<g>
		<path class="st1" d="M-121.1,59.7c0,0.1-0.1,0.1-0.2,0.1l0,0c-0.1,0-0.2-0.1-0.2-0.1V52c0-0.1,0.1-0.1,0.2-0.1l0,0
			c0.1,0,0.2,0.1,0.2,0.1V59.7z"/>
	</g>
	<g>
		<path class="st1" d="M-119.1,57.3c0,0.1-0.1,0.1-0.2,0.1l0,0c-0.1,0-0.2-0.1-0.2-0.1v-7.7c0-0.1,0.1-0.1,0.2-0.1l0,0
			c0.1,0,0.2,0.1,0.2,0.1V57.3z"/>
	</g>
</g>
</svg>
