<?xml version="1.0" encoding="utf-8"?>
<!-- Generator: Adobe Illustrator 20.1.0, SVG Export Plug-In . SVG Version: 6.00 Build 0)  -->
<svg version="1.1" id="Layer_1" xmlns="http://www.w3.org/2000/svg" xmlns:xlink="http://www.w3.org/1999/xlink" x="0px" y="0px"
	 viewBox="0 0 25 25" style="enable-background:new 0 0 25 25;" xml:space="preserve">
<style type="text/css">
	.st0{fill:none;stroke:#FFFFFF;stroke-width:1.5056;stroke-linecap:round;stroke-linejoin:round;stroke-miterlimit:10;}
	.st1{fill:#FFFFFF;}
</style>
<g>
	<path class="st0" d="M-30.9,6.5c-0.1,0-0.2,0-0.4,0V6.4c0-2.8-2.3-5.1-5.1-5.1c-2.6,0-4.8,1.9-5.1,4.5c-0.2,0-0.3,0-0.5,0
		c-1.5-0.1-2.8,1.1-2.8,2.7c0,0.1,0,0.2,0,0.2c-0.2,0-0.4,0-0.5,0c-2,0-3.7,1.6-3.7,3.7c0,2,1.6,3.7,3.7,3.7c2,0,11.9,0,14.4,0
		c2.6,0,4.8-2.1,4.8-4.8S-28.2,6.5-30.9,6.5z"/>
	<g>
		<g>
			<line class="st0" x1="-43.6" y1="18.3" x2="-45" y2="20.4"/>
			<line class="st0" x1="-37.9" y1="18.3" x2="-39.3" y2="20.4"/>
			<line class="st0" x1="-32.3" y1="18.3" x2="-33.6" y2="20.4"/>
		</g>
		<g>
			<line class="st0" x1="-42.1" y1="21.5" x2="-43.4" y2="23.6"/>
			<line class="st0" x1="-36.4" y1="21.5" x2="-37.8" y2="23.6"/>
		</g>
	</g>
</g>
<g>
	<path class="st1" d="M-30.2-22.3c-2.9,0-5.2-2.3-5.2-5.2c0-2.9,2.3-5.2,5.2-5.2c2.9,0,5.2,2.3,5.2,5.2
		C-25-24.7-27.3-22.3-30.2-22.3z M-30.2-31.8c-2.4,0-4.3,1.9-4.3,4.3c0,2.4,1.9,4.3,4.3,4.3c2.4,0,4.3-1.9,4.3-4.3
		C-25.9-29.9-27.8-31.8-30.2-31.8z"/>
	<g>
		<path class="st1" d="M-34.2-32.1c0.1,0.2,0.1,0.4,0,0.5l0,0c-0.2,0.1-0.4,0.1-0.5,0l-2.7-3.1c-0.1-0.2-0.1-0.4,0-0.5l0,0
			c0.2-0.1,0.4-0.1,0.5,0L-34.2-32.1z"/>
	</g>
	<g>
		<path class="st1" d="M-29.8-33.7c0,0.2-0.2,0.4-0.4,0.4l0,0c-0.2,0-0.4-0.2-0.4-0.4l0-4.1c0-0.2,0.2-0.4,0.4-0.4l0,0
			c0.2,0,0.4,0.2,0.4,0.4L-29.8-33.7z"/>
	</g>
	<g>
		<path class="st1" d="M-36.4-28.5c0.2,0,0.3,0.2,0.3,0.4l0,0c0,0.2-0.2,0.3-0.4,0.3l-4.1-0.3c-0.2,0-0.3-0.2-0.3-0.4l0,0
			c0-0.2,0.2-0.3,0.4-0.3L-36.4-28.5z"/>
	</g>
	<g>
		<path class="st1" d="M-35.7-24.7c0.2-0.1,0.4-0.1,0.5,0.1l0,0c0.1,0.2,0.1,0.4-0.1,0.5l-3.4,2.2c-0.2,0.1-0.4,0.1-0.5-0.1l0,0
			c-0.1-0.2-0.1-0.4,0.1-0.5L-35.7-24.7z"/>
	</g>
	<g>
		<path class="st1" d="M-32.6-22c0.1-0.2,0.3-0.3,0.5-0.2l0,0c0.2,0.1,0.3,0.3,0.2,0.5l-1.4,3.8c-0.1,0.2-0.3,0.3-0.5,0.2l0,0
			c-0.2-0.1-0.3-0.3-0.2-0.5L-32.6-22z"/>
	</g>
	<g>
		<path class="st1" d="M-24.8-23.9c-0.2-0.1-0.2-0.3-0.2-0.5l0,0c0.1-0.2,0.3-0.2,0.5-0.2l3.6,1.9c0.2,0.1,0.2,0.3,0.2,0.5l0,0
			c-0.1,0.2-0.3,0.2-0.5,0.2L-24.8-23.9z"/>
	</g>
	<g>
		<path class="st1" d="M-24-28.3c-0.2,0-0.4-0.1-0.4-0.3l0,0c0-0.2,0.1-0.4,0.3-0.4l4.1-0.5c0.2,0,0.4,0.1,0.4,0.3l0,0
			c0,0.2-0.1,0.4-0.3,0.4L-24-28.3z"/>
	</g>
	<g>
		<path class="st1" d="M-26.7-18.1c0.1,0.2,0,0.4-0.2,0.5l0,0c-0.2,0.1-0.4,0-0.5-0.2l-1.4-3.8c-0.1-0.2,0-0.4,0.2-0.5l0,0
			c0.2-0.1,0.4,0,0.5,0.2L-26.7-18.1z"/>
	</g>
	<g>
		<path class="st1" d="M-26-32c-0.1,0.2-0.3,0.2-0.5,0.1l0,0c-0.2-0.1-0.2-0.3-0.1-0.5l2.5-3.2c0.1-0.2,0.3-0.2,0.5-0.1l0,0
			c0.2,0.1,0.2,0.3,0.1,0.5L-26-32z"/>
	</g>
</g>
<g>
	<path class="st1" d="M-101.3,0.4c0.1,0.2,0.4,0.2,0.6,0c0.2-0.1,0.2-0.4,0-0.6l-3-3.5c-0.2-0.2-0.4-0.2-0.6,0
		c-0.2,0.1-0.2,0.4,0,0.6L-101.3,0.4z"/>
	<path class="st1" d="M-96.6-1c0.2,0,0.4-0.2,0.4-0.4l0-4.6c0-0.2-0.2-0.4-0.4-0.4C-96.8-6.4-97-6.2-97-6l0,4.6
		C-97.1-1.1-96.9-1-96.6-1z"/>
	<path class="st1" d="M-108,2.7l4.5,1c0.2,0,0.4-0.1,0.5-0.3c0-0.2-0.1-0.4-0.3-0.5l-4.5-1c-0.2,0-0.4,0.1-0.5,0.3
		C-108.3,2.5-108.2,2.7-108,2.7z"/>
	<path class="st1" d="M-90.5,3.4c0,0.2,0.3,0.4,0.5,0.3l4.5-0.9c0.2,0,0.4-0.3,0.3-0.5c0-0.2-0.3-0.4-0.5-0.3l-4.5,0.9
		C-90.4,2.9-90.6,3.1-90.5,3.4z"/>
	<path class="st1" d="M-92.1,0.2l3.3-3.2c0.2-0.2,0.2-0.4,0-0.6c-0.2-0.2-0.4-0.2-0.6,0l-3.3,3.2c-0.2,0.2-0.2,0.4,0,0.6
		C-92.6,0.4-92.3,0.4-92.1,0.2z"/>
	<path class="st1" d="M-90.8,5.5c-0.1-3.2-2.7-5.7-5.8-5.7c-3.2,0-5.8,2.5-5.8,5.7h-5.8v0.9h5.9h11.1h6.3V5.5H-90.8z M-96.6,0.7
		c2.6,0,4.8,2.1,4.9,4.8h-9.9C-101.5,2.9-99.3,0.7-96.6,0.7z"/>
</g>
<g>
	<g>
		<path class="st1" d="M-118.7,40.2c0.7,0.4,1.2,1.1,1.4,1.9c0.6,1.8-0.4,3.8-2.3,4.4c-0.2,0.1-0.3,0.1-0.5,0.1
			c0.9,0.5,1.9,0.7,3,0.4c1.8-0.6,2.9-2.6,2.3-4.4C-115.3,40.9-117,39.9-118.7,40.2z"/>
	</g>
</g>
<g>
	<g>
		<path class="st1" d="M-127.6-64.1c0.7,0.4,1.2,1.1,1.4,1.9c0.6,1.8-0.4,3.8-2.3,4.4c-0.2,0.1-0.3,0.1-0.5,0.1
			c0.9,0.5,1.9,0.7,3,0.4c1.8-0.6,2.9-2.6,2.3-4.4C-124.2-63.5-125.9-64.4-127.6-64.1z"/>
	</g>
</g>
<path class="st1" d="M-77.7-34.2c-1.3-4-5.3-6.3-9.3-5.6c1.6,1,2.8,2.5,3.4,4.4c0.9,2.8,0.3,5.6-1.4,7.7c0,0-0.1,0-0.1-0.1
	c0,0,0-0.1,0-0.1c0-1.5-1.2-2.8-2.7-2.8c-0.5,0-0.9,0.1-1.3,0.3c-0.3-1.4-1.6-2.4-3.1-2.4l-0.2,0c-1.5,0.1-2.8,1.2-3,2.6
	c-0.2-0.1-0.5-0.1-0.7-0.1c-1.5,0-2.7,1.2-2.8,2.7c-0.7,0.2-1.8,0.7-1.8,2.2c0,1.3,1.1,2.3,2.5,2.3l0.1,0c0.8,0,4.2,0,4.2,0v-0.1
	c0,0,0,0,0,0l0,0.1l0-0.1c0.5,0.1,1.6,0.1,3.9,0.1c0,0,1.8,0,3.1,0c0.5,0,0.9,0,1.2,0c0.4,0,0.9-0.2,1.2-0.5c0.5-0.1,1-0.2,1.6-0.3
	C-78.7-25.2-76.3-29.9-77.7-34.2z M-94-23.9l0,0.2L-94-23.9c0,0-1.6,0-2.8,0c-0.6,0-1.1,0-1.5,0c-0.9,0-1.6-0.6-1.6-1.4
	c0-0.9,0.5-1.2,1.5-1.5l0.3-0.1l0-0.5c0,0,0-0.1,0-0.2c0-1,0.8-1.9,1.9-1.9c0.3,0,0.6,0.1,0.9,0.2l0.7,0.4l0-0.8
	c0-1.2,1-2.3,2.3-2.3l0.1,0c1.3,0,2.3,1,2.4,2.2c0,0,0,0.1,0,0.2l0,1.1l0.8-0.8c0.4-0.4,0.8-0.6,1.3-0.6c1,0,1.9,0.8,1.9,1.9
	c0,0.1,0,0.3,0,0.4l-0.1,0.4l0.4,0.1c0,0,0,0,0,0c-0.9,0.9-2,1.6-3.3,2c-0.4,0.1-0.8,0.2-1.1,0.3c0.5,0.3,1.1,0.6,1.7,0.8
	c-0.9,0-1.8,0-1.8,0C-90.1-23.9-93.8-23.9-94-23.9z"/>
<g>
	<path class="st1" d="M51.7,9.2c0.1,0.1,0.2,0.1,0.3,0c0.1-0.1,0.1-0.2,0-0.3l-1.6-1.8c-0.1-0.1-0.2-0.1-0.3,0
		c-0.1,0.1-0.1,0.2,0,0.3L51.7,9.2z"/>
	<path class="st1" d="M54.3,8.1c0.1,0,0.2-0.1,0.2-0.2l0-2.4c0-0.1-0.1-0.2-0.2-0.2c-0.1,0-0.2,0.1-0.2,0.2l0,2.4
		C54.1,8,54.2,8.1,54.3,8.1z"/>
	<path class="st1" d="M59.7,14.4l-2.1-1.1c-0.1-0.1-0.2,0-0.3,0.1c-0.1,0.1,0,0.2,0.1,0.3l2.1,1.1c0.1,0.1,0.2,0,0.3-0.1
		C59.9,14.5,59.9,14.4,59.7,14.4z"/>
	<path class="st1" d="M60.2,10.4l-2.4,0.3c-0.1,0-0.2,0.1-0.2,0.2c0,0.1,0.1,0.2,0.2,0.2l2.4-0.3c0.1,0,0.2-0.1,0.2-0.2
		C60.5,10.4,60.4,10.4,60.2,10.4z"/>
	<path class="st1" d="M55.6,14.7c0-0.1-0.2-0.2-0.3-0.1c-0.1,0-0.2,0.2-0.1,0.3l0.8,2.2c0,0.1,0.2,0.2,0.3,0.1
		c0.1,0,0.2-0.2,0.1-0.3L55.6,14.7z"/>
	<path class="st1" d="M56.8,8.9l1.5-1.9c0.1-0.1,0.1-0.2,0-0.3c-0.1-0.1-0.2-0.1-0.3,0l-1.5,1.9c-0.1,0.1-0.1,0.2,0,0.3
		C56.6,9,56.7,9,56.8,8.9z"/>
	<path class="st1" d="M54.3,8.4c-1.7,0-3.1,1.4-3.1,3.1c0,0.2,0,0.4,0,0.5c0.2,0,0.5,0.1,0.7,0.1c-0.1-0.2-0.1-0.4-0.1-0.7
		c0-1.3,1.1-2.4,2.4-2.4c1.3,0,2.4,1.1,2.4,2.4c0,1.3-1.1,2.4-2.4,2.4c-0.2,0-0.4,0-0.6-0.1c0.1,0.2,0.1,0.5,0.1,0.7
		c0.2,0,0.3,0,0.5,0c1.7,0,3.1-1.4,3.1-3.1C57.4,9.8,56,8.4,54.3,8.4z"/>
	<path class="st1" d="M53.9,15c0-0.1,0-0.1,0-0.2c0-0.1,0-0.1,0-0.2c0-0.2-0.1-0.5-0.1-0.7c-0.3-0.8-0.9-1.4-1.7-1.7
		c-0.2-0.1-0.5-0.1-0.7-0.1c0,0-0.1,0-0.1,0c-0.5,0-1,0.1-1.4,0.4c-0.1-0.4-0.3-0.8-0.5-1.2l1.5,0.1c0.1,0,0.2-0.1,0.2-0.2
		c0-0.1-0.1-0.2-0.2-0.2l-1.9-0.2c-0.6-0.6-1.5-1-2.5-0.9c-1.6,0.1-2.8,1.2-3,2.7c-0.3-0.1-0.6-0.1-0.9-0.1c-1.5,0-2.7,1.2-2.7,2.7
		c0,0,0,0.1,0,0.1C39,15.4,38,15.8,38,17.4c0,1.2,1.1,2.2,2.4,2.2l0.1,0c0.8,0,4.3,0,4.3,0l0-0.1c0,0,0,0,0,0l0,0.1l0-0.1
		c0.5,0.1,1.5,0.1,4,0.1c0,0,1.9,0,3.2,0c0,0,0,0,0,0c0.5,0,0.9,0,1.2,0c0.6,0,1.2-0.3,1.7-0.9c0.4-0.5,0.6-1.1,0.6-1.8
		C55.5,16.1,54.8,15.3,53.9,15z M54.4,18.4c-0.3,0.4-0.7,0.6-1.2,0.6c-0.2,0-0.7,0-1.2,0c0,0,0,0,0,0c-1.3,0-3.2,0-3.2,0
		c-1.5,0-3.9,0-4,0l0,0.2l0-0.2c0,0-1.6,0-2.9,0c-0.6,0-1.2,0-1.4,0l-0.1,0c-1,0-1.8-0.7-1.8-1.6c0-1,0.6-1.4,1.6-1.6l0.2-0.1l0-0.2
		l0-0.1c0-0.1,0-0.1,0-0.2c0-1.1,0.9-2.1,2.1-2.1c0.3,0,0.7,0.1,1,0.3l0.5,0.3l0-0.6c0-1.3,1-2.5,2.4-2.5l0.1,0
		c0.6,0,1.2,0.2,1.6,0.6c0,0,0.1,0.1,0.1,0.1c0.5,0.4,0.8,1,0.8,1.7c0,0,0,0.1,0,0.2l0,0.9l0.6-0.6c0.4-0.4,0.9-0.6,1.5-0.6
		c0.1,0,0.2,0,0.3,0c0.8,0.1,1.5,0.8,1.7,1.6c0,0.1,0,0.3,0,0.4c0,0.1,0,0.3,0,0.4l-0.1,0.3l0.3,0.1c0.8,0.1,1.4,0.8,1.4,1.5
		C54.9,17.5,54.7,18,54.4,18.4z"/>
</g>
<g>
	<path class="st1" d="M-130.8-62.1c-0.7-0.7-1.7-1.1-2.8-1.1c-1.8,0.1-3.2,1.4-3.4,3c-0.3-0.1-0.6-0.2-1-0.2c-1.7,0-3.1,1.4-3.1,3.1
		c0,0,0,0.1,0,0.1c-0.9,0.2-2.1,0.7-2.1,2.5c0,1.4,1.2,2.5,2.8,2.5l0.1,0c0.9,0,4.8,0,4.8,0l0-0.1c0,0,0,0,0,0l0,0.1l0-0.1
		c0.5,0.1,1.7,0.1,4.5,0.1c0,0,2.1,0,3.6,0c0,0,0,0,0,0c0.6,0,1.1,0,1.3,0c0.7,0,1.4-0.4,1.9-1c0.5-0.6,0.7-1.3,0.7-2
		c-0.1-1.1-0.8-2-1.9-2.3c0-0.1,0-0.2,0-0.3c0-0.1,0-0.1,0-0.2c0-0.3-0.1-0.5-0.2-0.8c-0.3-0.9-1-1.6-1.9-1.9
		c-0.3-0.1-0.5-0.1-0.8-0.2c-0.1,0-0.1,0-0.2,0c-0.6,0-1.1,0.2-1.6,0.4c-0.1-0.5-0.3-0.9-0.6-1.3 M-124.6-53.5
		c-0.4,0.4-0.8,0.7-1.3,0.7c-0.3,0-0.7,0-1.3,0c0,0,0,0,0,0c-1.5,0-3.6,0-3.6,0c-1.7,0-4.4,0-4.5,0l0,0.2l0-0.2c0,0-1.8,0-3.3,0
		c-0.7,0-1.3,0-1.6,0l-0.1,0c-1.1,0-2-0.8-2-1.8c0-1.2,0.6-1.5,1.8-1.8l0.3-0.1l0-0.3l0-0.2c0-0.1,0-0.1,0-0.2c0-1.3,1-2.3,2.3-2.3
		c0.4,0,0.8,0.1,1.1,0.3l0.6,0.3l0-0.7c0-1.5,1.2-2.8,2.7-2.9l0.2,0c0.7,0,1.3,0.2,1.8,0.6c0,0,0.1,0.1,0.1,0.1
		c0.5,0.5,0.9,1.2,0.9,1.9c0,0.1,0,0.1,0,0.2l0,1l0.7-0.7c0.4-0.4,1-0.7,1.7-0.7c0.1,0,0.3,0,0.4,0c0.9,0.2,1.7,0.9,1.9,1.8
		c0,0.1,0,0.3,0,0.4c0,0.2,0,0.3,0,0.5l-0.1,0.4l0.4,0.1c0.9,0.2,1.6,0.9,1.6,1.7C-124-54.5-124.2-54-124.6-53.5z"/>
	<g>
		<path class="st1" d="M-137.2-58.9c-0.5-0.5-1.3-0.8-2-0.8c-1.3,0.1-2.3,1-2.5,2.2c-0.2-0.1-0.5-0.1-0.7-0.1c-1.2,0-2.3,1-2.3,2.3
			c0,0,0,0,0,0.1c-0.6,0.2-1.5,0.5-1.5,1.8c0,1,0.9,1.9,2,1.9l0.1,0c0.7,0,3.6,0,3.6,0l0,0c0,0,0,0,0,0l0,0l0,0
			c0.4,0.1,1.3,0.1,3.3,0.1c0,0,1.5,0,2.7,0c0,0,0,0,0,0c0.4,0,0.8,0,1,0c0.5,0,1-0.3,1.4-0.7c0.3-0.4,0.5-0.9,0.5-1.5
			c0-0.8-0.6-1.5-1.4-1.7c0-0.1,0-0.1,0-0.2c0-0.1,0-0.1,0-0.2c0-0.2-0.1-0.4-0.1-0.6c-0.2-0.7-0.8-1.2-1.4-1.4
			c-0.2-0.1-0.4-0.1-0.6-0.1c0,0-0.1,0-0.1,0c-0.4,0-0.8,0.1-1.2,0.3c-0.1-0.4-0.2-0.7-0.4-1 M-140.6-52.1 M-137.7-58.6
			 M-139.3-59.1l0.1,0 M-144.2-54.8l0-0.2"/>
	</g>
</g>
<g>
	<path class="st1" d="M89.9-14.7c1.7-0.7,2.6-2.5,2-4.3c-0.5-1.7-2.2-2.6-3.9-2.4c0.7,0.4,1.2,1.1,1.4,1.9c0.3,1,0.2,1.9-0.3,2.8
		c-0.5-0.6-1.2-1-2.1-1c-0.5,0-1,0.1-1.4,0.4c-0.3-1.5-1.7-2.7-3.4-2.6c-1.6,0.1-2.8,1.2-3,2.7c-0.3-0.1-0.6-0.1-0.9-0.1
		c-1.5,0-2.7,1.2-2.7,2.7c0,0,0,0.1,0,0.1c-0.8,0.2-1.8,0.7-1.8,2.2c0,1.2,1.1,2.2,2.4,2.2l0.1,0c0.8,0,4.3,0,4.3,0l0-0.1
		c0,0,0,0,0,0l0,0.1l0-0.1c0.5,0.1,1.5,0.1,4,0.1c0,0,1.9,0,3.2,0c0.5,0,1,0,1.2,0c1.3-0.1,2.4-1.3,2.3-2.6
		C91.4-13.6,90.8-14.3,89.9-14.7z M89.1-10.7c-0.9,0-4.4,0-4.4,0c-1.5,0-3.9,0-4,0l0,0.2l0-0.2c0,0-1.6,0-2.9,0c-0.6,0-1.2,0-1.5,0
		l-0.1,0c-1,0-1.8-0.7-1.8-1.6c0-1,0.6-1.4,1.6-1.6l0.3-0.1l0-0.4c0-0.1,0-0.1,0-0.2c0-1.1,0.9-2.1,2.1-2.1c0.3,0,0.7,0.1,1,0.3
		l0.5,0.3l0-0.6c0-1.4,1-2.5,2.4-2.5l0.1,0c1.4,0,2.5,1,2.6,2.4c0,0,0,0.1,0,0.2l0,0.9l0.6-0.6c0.4-0.4,0.9-0.6,1.5-0.6
		c0.7,0,1.3,0.3,1.7,0.9c-0.4,0.5-0.9,0.8-1.6,1C87-15,86.9-15,86.7-14.9c0.7,0.4,1.5,0.6,2.4,0.5L89-14.2l0.3,0.1
		c0.8,0.1,1.4,0.8,1.4,1.5C90.8-11.7,90.1-10.7,89.1-10.7z"/>
	<polygon class="st1" points="86.3,-19.2 86.8,-19.5 87.3,-19.3 87.2,-19.8 87.5,-20.3 87,-20.3 86.7,-20.8 86.4,-20.3 85.9,-20.1 
		86.3,-19.8 	"/>
	<polygon class="st1" points="84.4,-21 84.9,-21.2 85.3,-21 85.2,-21.5 85.5,-21.9 85,-21.9 84.8,-22.3 84.6,-21.9 84.1,-21.8 
		84.5,-21.5 	"/>
</g>
<g>
	<path class="st1" d="M13.6-49c-0.9-1.1-0.8-3.1-0.8-2.5C12.6-49.9,12-49,12-49c-0.1,0.1-0.1,0.2-0.1,0.3c0,0.4,0.4,0.8,0.9,0.8
		c0.5,0,0.9-0.4,0.9-0.8C13.6-48.8,13.6-48.9,13.6-49L13.6-49z"/>
	<path class="st1" d="M18-63.6c-1.4,0-2.6,1.1-2.6,2.6c0,0.5,0.1,0.9,0.4,1.3c-0.2,0-0.4-0.1-0.6-0.1c-0.5,0-1,0.1-1.5,0.4
		c-0.3-1.6-1.7-2.7-3.4-2.7c-1.6,0.1-2.9,1.3-3.1,2.8c-0.3-0.1-0.6-0.2-0.9-0.2c-1.5,0-2.8,1.2-2.8,2.8c0,0,0,0.1,0,0.1
		c-0.8,0.2-1.9,0.7-1.9,2.2c0,1.2,1,2.2,2.3,2.2l0.4-0.6c0,0-0.1,0-0.1,0l-0.1,0c-1,0-1.8-0.7-1.8-1.6c0-1.1,0.6-1.4,1.7-1.7
		l0.2-0.1l0-0.2l0-0.1c0-0.1,0-0.1,0-0.2c0-1.2,1-2.1,2.1-2.1c0.4,0,0.7,0.1,1,0.3l0.5,0.3l0-0.6c0-1.4,1.1-2.5,2.5-2.6l0.1,0
		c1.4,0,2.6,1.1,2.6,2.4c0,0,0,0.1,0,0.2l0,0.8l0.6-0.6c0.4-0.4,0.9-0.6,1.5-0.6c1.2,0,2.1,1,2.1,2.1c0,0.1,0,0.3,0,0.4l-0.1,0.3
		l0.3,0.1c0.8,0.1,1.4,0.8,1.5,1.6c0,0.8-0.5,1.7-1.3,1.9l0.2,0.6c1-0.3,1.8-1.4,1.7-2.5c0-1-0.7-1.8-1.7-2.1c0-0.1,0-0.2,0-0.2
		c0-0.6-0.2-1.1-0.4-1.5c0.1,0,0.3,0,0.4,0c1.4,0,2.6-1.1,2.6-2.6C20.6-62.4,19.4-63.6,18-63.6z M18-58.9c-1.2,0-2.1-0.9-2.1-2.1
		c0-1.2,0.9-2.1,2.1-2.1s2.1,0.9,2.1,2.1C20.1-59.9,19.2-58.9,18-58.9z"/>
	<path class="st1" d="M15.8-63c0.1,0.1,0.2,0.1,0.2,0c0.1-0.1,0.1-0.2,0-0.3l-1.3-1.5c-0.1-0.1-0.2-0.1-0.2,0
		c-0.1,0.1-0.1,0.2,0,0.2L15.8-63z"/>
	<path class="st1" d="M18-63.9c0.1,0,0.2-0.1,0.2-0.2l0-2c0-0.1-0.1-0.2-0.2-0.2c-0.1,0-0.2,0.1-0.2,0.2l0,2
		C17.8-64,17.9-63.9,18-63.9z"/>
	<path class="st1" d="M13-61.3l2,0.2c0.1,0,0.2-0.1,0.2-0.2c0-0.1-0.1-0.2-0.2-0.2l-2-0.2c-0.1,0-0.2,0.1-0.2,0.2
		C12.8-61.4,12.9-61.3,13-61.3z"/>
	<path class="st1" d="M22.6-58.6l-1.8-0.9c-0.1,0-0.2,0-0.2,0.1c0,0.1,0,0.2,0.1,0.2l1.8,0.9c0.1,0,0.2,0,0.2-0.1
		C22.7-58.5,22.7-58.6,22.6-58.6z"/>
	<path class="st1" d="M23-62l-2,0.2c-0.1,0-0.2,0.1-0.2,0.2c0,0.1,0.1,0.2,0.2,0.2l2-0.2c0.1,0,0.2-0.1,0.2-0.2
		C23.2-61.9,23.1-62,23-62z"/>
	<path class="st1" d="M18.9-58.4c-0.1,0-0.1,0.1-0.1,0.2l0.7,1.9c0,0.1,0.1,0.1,0.2,0.1c0.1,0,0.1-0.1,0.1-0.2l-0.7-1.9
		C19.1-58.4,19-58.4,18.9-58.4z"/>
	<path class="st1" d="M20.1-63.2l1.2-1.6c0.1-0.1,0-0.2,0-0.2c-0.1-0.1-0.2,0-0.2,0l-1.2,1.6c-0.1,0.1,0,0.2,0,0.2
		C19.9-63.1,20-63.1,20.1-63.2z"/>
	<path class="st1" d="M7.5-49.6c-1.1-1.4-1-3.9-1-3.1c-0.1,2.1-0.9,3.1-0.9,3.1c-0.1,0.1-0.1,0.3-0.1,0.4c0,0.5,0.5,1,1.1,1
		c0.6,0,1.1-0.4,1.1-1C7.6-49.3,7.6-49.5,7.5-49.6L7.5-49.6z"/>
	<path class="st1" d="M10.9-51.5c-0.9-1.2-0.9-3.4-0.9-2.7c-0.1,1.8-0.8,2.7-0.8,2.7c-0.1,0.1-0.1,0.2-0.1,0.4c0,0.5,0.4,0.9,1,0.9
		c0.5,0,1-0.4,1-0.9C11-51.3,11-51.4,10.9-51.5L10.9-51.5z"/>
	<path class="st1" d="M14.1-53.9c-0.1,1-0.5,1.6-0.5,1.6c0,0.1-0.1,0.1-0.1,0.2c0,0.3,0.2,0.5,0.6,0.5c0.3,0,0.6-0.2,0.6-0.5
		c0-0.1,0-0.1-0.1-0.2C14.1-53.1,14.1-54.3,14.1-53.9z"/>
</g>
<g>
	<path class="st1" d="M37.9-22c-1.1-1.4-1-3.9-1-3.1C36.8-23,35.9-22,35.9-22c-0.1,0.1-0.1,0.3-0.1,0.4c0,0.5,0.5,1,1.1,1
		c0.6,0,1.1-0.4,1.1-1C38-21.7,38-21.8,37.9-22L37.9-22z"/>
	<path class="st1" d="M40.4-26.6c-0.1,1.8-0.8,2.7-0.8,2.7c-0.1,0.1-0.1,0.2-0.1,0.4c0,0.5,0.4,0.9,1,0.9c0.5,0,1-0.4,1-0.9
		c0-0.1,0-0.3-0.1-0.4C40.4-25.1,40.4-27.3,40.4-26.6z"/>
	<path class="st1" d="M43.9-21.4c-0.9-1.1-0.8-3.1-0.8-2.5c-0.1,1.6-0.8,2.5-0.8,2.5c-0.1,0.1-0.1,0.2-0.1,0.3
		c0,0.4,0.4,0.8,0.9,0.8c0.5,0,0.9-0.4,0.9-0.8C44-21.2,44-21.3,43.9-21.4L43.9-21.4z"/>
	<path class="st1" d="M45-24.7c-0.5-0.7-0.5-2-0.5-1.6c-0.1,1-0.5,1.6-0.5,1.6c0,0.1-0.1,0.1-0.1,0.2c0,0.3,0.2,0.5,0.6,0.5
		c0.3,0,0.6-0.2,0.6-0.5C45-24.6,45-24.7,45-24.7L45-24.7z"/>
	<path class="st1" d="M50.9-32.4c-0.5-1.7-2.2-2.6-3.9-2.4c0.7,0.4,1.2,1.1,1.4,1.9c0.3,0.9,0.2,1.8-0.2,2.6
		c-0.4-1.1-1.4-1.8-2.6-1.8c-0.5,0-1,0.1-1.5,0.4c-0.3-1.6-1.7-2.7-3.4-2.7c-1.6,0.1-2.9,1.3-3.1,2.8c-0.3-0.1-0.6-0.2-0.9-0.2
		c-1.5,0-2.8,1.2-2.8,2.8c0,0,0,0.1,0,0.1c-0.8,0.2-1.9,0.7-1.9,2.2c0,1.2,1,2.2,2.3,2.2l0.4-0.6c0,0-0.1,0-0.1,0l-0.1,0
		c-1,0-1.8-0.7-1.8-1.6c0-1.1,0.6-1.4,1.7-1.7l0.2-0.1l0-0.2l0-0.1c0-0.1,0-0.1,0-0.2c0-1.2,1-2.1,2.1-2.1c0.4,0,0.7,0.1,1,0.3
		l0.5,0.3l0-0.6c0-1.4,1.1-2.5,2.5-2.6l0.1,0c1.4,0,2.6,1.1,2.6,2.4c0,0,0,0.1,0,0.2l0,0.8l0.6-0.6c0.4-0.4,0.9-0.6,1.5-0.6
		c1.1,0,2,0.8,2.1,1.9c-0.4,0.5-0.9,0.9-1.6,1.1c-0.2,0.1-0.3,0.1-0.5,0.1c0.8,0.5,1.9,0.7,2.9,0.4c0.1,0,0.2-0.1,0.3-0.1
		c0.3,0.3,0.5,0.7,0.5,1.1c0,0.8-0.5,1.7-1.3,1.9l0.2,0.6c1-0.3,1.8-1.4,1.7-2.5c0-0.5-0.2-1-0.6-1.4C50.8-29.3,51.4-30.9,50.9-32.4
		z"/>
</g>
<g>
	<g>
		<path class="st1" d="M-116.1,46.4c0-0.1,0-0.2,0-0.2c0-1.5-1.2-2.8-2.8-2.8c-0.5,0-1,0.1-1.5,0.4c-0.3-1.6-1.7-2.7-3.4-2.7
			c-1.6,0.1-2.9,1.3-3.1,2.8c-0.3-0.1-0.6-0.2-0.9-0.2c-1.5,0-2.8,1.2-2.8,2.8c0,0,0,0.1,0,0.1c-0.8,0.2-1.9,0.7-1.9,2.2
			c0,1.2,1,2.2,2.3,2.2l0.4-0.6c0,0-0.1,0-0.1,0l-0.1,0c-1,0-1.8-0.7-1.8-1.6c0-1.1,0.6-1.4,1.7-1.7l0.2-0.1l0-0.2l0-0.1
			c0-0.1,0-0.1,0-0.2c0-1.2,1-2.1,2.1-2.1c0.4,0,0.7,0.1,1,0.3l0.5,0.3l0-0.6c0-1.4,1.1-2.5,2.5-2.6l0.1,0c1.4,0,2.6,1.1,2.6,2.4
			c0,0,0,0.1,0,0.2l0,0.8l0.6-0.6c0.4-0.4,0.9-0.6,1.5-0.6c1.2,0,2.1,1,2.1,2.1c0,0.1,0,0.3,0,0.4l-0.1,0.3l0.3,0.1
			c0.8,0.1,1.4,0.8,1.5,1.6c0,0.8-0.5,1.7-1.3,1.9l0.2,0.6c1-0.3,1.8-1.4,1.7-2.5C-114.4,47.5-115.1,46.7-116.1,46.4z"/>
	</g>
	<g>
		<path class="st1" d="M-127.9,57.8c0,0.1-0.1,0.1-0.2,0.1l0,0c-0.1,0-0.2-0.1-0.2-0.1V50c0-0.1,0.1-0.1,0.2-0.1l0,0
			c0.1,0,0.2,0.1,0.2,0.1V57.8z"/>
	</g>
	<g>
		<path class="st1" d="M-126,58.9c0,0.1-0.1,0.1-0.2,0.1l0,0c-0.1,0-0.2-0.1-0.2-0.1v-7.7c0-0.1,0.1-0.1,0.2-0.1l0,0
			c0.1,0,0.2,0.1,0.2,0.1V58.9z"/>
	</g>
	<g>
		<path class="st1" d="M-123.3,57.3c0,0.1-0.1,0.1-0.2,0.1l0,0c-0.1,0-0.2-0.1-0.2-0.1v-7.7c0-0.1,0.1-0.1,0.2-0.1l0,0
			c0.1,0,0.2,0.1,0.2,0.1V57.3z"/>
	</g>
	<g>
		<path class="st1" d="M-121.1,59.7c0,0.1-0.1,0.1-0.2,0.1l0,0c-0.1,0-0.2-0.1-0.2-0.1V52c0-0.1,0.1-0.1,0.2-0.1l0,0
			c0.1,0,0.2,0.1,0.2,0.1V59.7z"/>
	</g>
	<g>
		<path class="st1" d="M-119.1,57.3c0,0.1-0.1,0.1-0.2,0.1l0,0c-0.1,0-0.2-0.1-0.2-0.1v-7.7c0-0.1,0.1-0.1,0.2-0.1l0,0
			c0.1,0,0.2,0.1,0.2,0.1V57.3z"/>
	</g>
</g>
<path class="st1" d="M-139.1-8.6c0-0.1,0-0.2,0-0.2c0-1.5-1.2-2.8-2.8-2.8c-0.5,0-1,0.1-1.5,0.4c-0.3-1.6-1.7-2.7-3.4-2.7
	c-1.6,0.1-2.9,1.3-3.1,2.8c-0.3-0.1-0.6-0.2-0.9-0.2c-1.5,0-2.8,1.2-2.8,2.8c0,0,0,0.1,0,0.1c-0.8,0.2-1.9,0.7-1.9,2.2
	c0,1.2,1,2.2,2.3,2.2l0.4-0.6c0,0-0.1,0-0.1,0l-0.1,0c-1,0-1.8-0.7-1.8-1.6c0-1.1,0.6-1.4,1.7-1.7l0.2-0.1l0-0.2l0-0.1
	c0-0.1,0-0.1,0-0.2c0-1.2,0.9-2.1,2.1-2.1c0.4,0,0.7,0.1,1,0.3l0.5,0.3l0-0.6c0-1.4,1.1-2.5,2.5-2.6l0.1,0c1.4,0,2.6,1.1,2.6,2.4
	c0,0,0,0.1,0,0.2l0,0.8l0.6-0.6c0.4-0.4,0.9-0.6,1.5-0.6c1.2,0,2.1,1,2.1,2.1c0,0.1,0,0.3,0,0.4l-0.1,0.3l0.3,0.1
	c0.8,0.1,1.4,0.8,1.5,1.6c0,0.8-0.5,1.7-1.3,1.9l0.2,0.6c1-0.3,1.8-1.4,1.7-2.5C-137.4-7.5-138.1-8.4-139.1-8.6z"/>
<path class="st1" d="M-151.7-2.1L-151.7-2.1c-0.8-1.1-0.8-3-0.8-2.4c-0.1,1.6-0.7,2.4-0.7,2.4l0,0c-0.1,0.1-0.1,0.2-0.1,0.3
	c0,0.4,0.4,0.8,0.8,0.8c0.5,0,0.8-0.3,0.8-0.8C-151.6-1.9-151.6-2-151.7-2.1z"/>
<g>
	<path class="st1" d="M-147.8-4.2L-147.8-4.2c-0.7-0.9-0.7-2.6-0.7-2.1c-0.1,1.4-0.6,2.1-0.6,2.1l0,0c0,0.1-0.1,0.2-0.1,0.3
		c0,0.4,0.3,0.7,0.7,0.7c0.4,0,0.7-0.3,0.7-0.7C-147.8-4.1-147.8-4.2-147.8-4.2z"/>
</g>
<g>
	<path class="st1" d="M-143.8-1.5L-143.8-1.5c-0.5-0.7-0.5-1.9-0.5-1.5c-0.1,1-0.5,1.5-0.5,1.5l0,0c0,0.1-0.1,0.1-0.1,0.2
		c0,0.3,0.2,0.5,0.5,0.5c0.3,0,0.5-0.2,0.5-0.5C-143.8-1.4-143.8-1.5-143.8-1.5z"/>
</g>
<g>
	<path class="st1" d="M-141.9-4.8L-141.9-4.8c-0.6-0.8-0.6-2.2-0.6-1.8c-0.1,1.2-0.5,1.8-0.5,1.8l0,0c0,0.1-0.1,0.2-0.1,0.2
		c0,0.3,0.3,0.6,0.6,0.6c0.3,0,0.6-0.3,0.6-0.6C-141.8-4.6-141.8-4.7-141.9-4.8z"/>
</g>
<g>
	<polygon class="st1" points="-148.9,6.5 -148.8,6.4 -145.2,0.8 -148.7,0.8 -145.7,-4 -145.4,-4 -147.5,0.2 -143.7,0.2 	"/>
</g>
<g>
	<polygon class="st1" points="-86,42.9 -86.3,42.9 -89.3,47.7 -85.8,47.7 -89.4,53.3 -89.5,53.4 -84.3,47.1 -88.1,47.1 	"/>
	<path class="st1" d="M-91.5,46.8c-1.1-1.4-1-3.9-1-3.1c-0.1,2.1-0.9,3.1-0.9,3.1c-0.1,0.1-0.1,0.3-0.1,0.4c0,0.5,0.5,1,1.1,1
		c0.6,0,1.1-0.4,1.1-1C-91.4,47-91.5,46.9-91.5,46.8L-91.5,46.8z"/>
	<path class="st1" d="M-88,43.5c0-0.1,0-0.3-0.1-0.4h0c-0.9-1.2-0.9-3.4-0.9-2.7c-0.1,1.8-0.8,2.7-0.8,2.7c-0.1,0.1-0.1,0.2-0.1,0.4
		c0,0.5,0.4,0.9,1,0.9C-88.5,44.4-88,44-88,43.5z"/>
	<path class="st1" d="M-85,42.4c-0.1,1-0.5,1.6-0.5,1.6c0,0.1-0.1,0.1-0.1,0.2c0,0.3,0.2,0.5,0.6,0.5c0.3,0,0.6-0.2,0.6-0.5
		c0-0.1,0-0.1-0.1-0.2h0C-85,43.3-85,42-85,42.4z"/>
	<path class="st1" d="M-78.6,36.3c-0.5-1.7-2.2-2.6-3.9-2.4c0.7,0.4,1.2,1.1,1.4,1.9c0.3,0.9,0.2,1.8-0.2,2.6
		c-0.4-1.1-1.4-1.8-2.6-1.8c-0.5,0-1,0.1-1.5,0.4c-0.3-1.6-1.7-2.7-3.4-2.7c-1.6,0.1-2.9,1.3-3.1,2.8c-0.3-0.1-0.6-0.2-0.9-0.2
		c-1.5,0-2.8,1.2-2.8,2.8c0,0,0,0.1,0,0.1c-0.8,0.2-1.9,0.7-1.9,2.2c0,1.2,1,2.2,2.3,2.2l0.4-0.6c0,0-0.1,0-0.1,0l-0.1,0
		c-1,0-1.8-0.7-1.8-1.6c0-1.1,0.6-1.4,1.7-1.7l0.2-0.1l0-0.2l0-0.1c0-0.1,0-0.1,0-0.2c0-1.2,1-2.1,2.1-2.1c0.4,0,0.7,0.1,1,0.3
		l0.5,0.3l0-0.6c0-1.4,1.1-2.5,2.5-2.6l0.1,0c1.4,0,2.6,1.1,2.6,2.4c0,0,0,0.1,0,0.2l0,0.8l0.6-0.6c0.4-0.4,0.9-0.6,1.5-0.6
		c1.1,0,2,0.8,2.1,1.9c-0.4,0.5-0.9,0.9-1.6,1.1c-0.2,0.1-0.3,0.1-0.5,0.1c0.8,0.5,1.9,0.7,2.9,0.4c0.1,0,0.2-0.1,0.3-0.1
		c0.3,0.3,0.5,0.7,0.5,1.1c0,0.8-0.5,1.7-1.3,1.9l0.2,0.6c1-0.3,1.8-1.4,1.7-2.5c0-0.5-0.2-1-0.6-1.4
		C-78.7,39.4-78.1,37.8-78.6,36.3z"/>
</g>
<g>
	<g>
		<path class="st1" d="M-32,59.8c0-0.1,0-0.2,0-0.2c0-1.5-1.2-2.8-2.8-2.8c-0.5,0-1,0.1-1.5,0.4c-0.3-1.6-1.7-2.7-3.4-2.7
			c-1.6,0.1-2.9,1.3-3.1,2.8c-0.3-0.1-0.6-0.2-0.9-0.2c-1.5,0-2.8,1.2-2.8,2.8c0,0,0,0.1,0,0.1c-0.8,0.2-1.9,0.7-1.9,2.2
			c0,1.2,1,2.2,2.3,2.2l0.4-0.6c0,0-0.1,0-0.1,0l-0.1,0c-1,0-1.8-0.7-1.8-1.6c0-1.1,0.6-1.4,1.7-1.7l0.2-0.1l0-0.2l0-0.1
			c0-0.1,0-0.1,0-0.2c0-1.2,1-2.1,2.1-2.1c0.4,0,0.7,0.1,1,0.3l0.5,0.3l0-0.6c0-1.4,1.1-2.5,2.5-2.6l0.1,0c1.4,0,2.6,1.1,2.6,2.4
			c0,0,0,0.1,0,0.2l0,0.8l0.6-0.6c0.4-0.4,0.9-0.6,1.5-0.6c1.2,0,2.1,1,2.1,2.1c0,0.1,0,0.3,0,0.4l-0.1,0.3l0.3,0.1
			c0.8,0.1,1.4,0.8,1.5,1.6c0,0.8-0.5,1.7-1.3,1.9l0.2,0.6c1-0.3,1.8-1.4,1.7-2.5C-30.4,61-31,60.1-32,59.8z"/>
	</g>
	<g>
		<path class="st1" d="M-44.6,65.8h0.2v-0.2h-0.2V65.8z M-43.9,66.1l0.1,0.1l0.1-0.1l-0.1-0.1L-43.9,66.1z M-44.8,64.8L-45,65
			l0.1,0.1l0.1-0.1L-44.8,64.8z M-43.1,65.8h0.2v-0.2h-0.2V65.8z M-44.4,64.1h-0.2v0.2h0.2V64.1z M-42.9,64.1H-43v0.2h0.2V64.1z
			 M-43.6,63.8l-0.1-0.1l-0.1,0.1l0.1,0.1L-43.6,63.8z M-42.7,65.2l-0.1-0.3l0.1-0.3l-0.2,0.2h-0.4l0.1-0.2l-0.2,0l0.3-0.3h0.3
			l-0.3-0.1l-0.1-0.3v0.3l-0.2,0.3l0-0.2l-0.2,0.1v-0.3l0.2-0.2l-0.3,0.1l-0.3-0.1l0.2,0.2v0.3l-0.2-0.1l0,0.2l-0.3-0.3V64l-0.1,0.3
			l-0.3,0.1h0.3l0.3,0.2l-0.3,0.1l0.2,0.2h-0.4l-0.2-0.2l0.1,0.3l-0.1,0.3l0.2-0.2h0.4l-0.2,0.2l0.3,0l-0.3,0.3h-0.3l0.3,0.1
			l0.1,0.3l0-0.3l0.2-0.2l0,0.2l0.2-0.2v0.4L-44,66l0.3-0.1l0.3,0.1l-0.2-0.2v-0.4l0.2,0.1l0-0.2l0.3,0.3l0,0.3l0.1-0.3l0.3-0.1
			h-0.3l-0.3-0.2l0.2-0.1l-0.1-0.2h0.4L-42.7,65.2z M-44,64.8l0.2,0.1h-0.2L-44,64.8z M-44,65.2l-0.1-0.2h0.2L-44,65.2z M-43.8,65.3
			l-0.1-0.1l0.1-0.2V65.3z M-43.8,64.8l-0.1-0.1l0.1-0.1V64.8z M-43.5,64.8l0.1,0.1h-0.2L-43.5,64.8z M-43.7,64.6l0.1,0.1l-0.1,0.1
			V64.6z M-43.7,65.3v-0.2l0.1,0.1L-43.7,65.3z M-43.5,65.2l-0.1-0.2h0.2L-43.5,65.2z M-42.6,64.8l-0.1,0.1l0.1,0.1l0.1-0.1
			L-42.6,64.8z"/>
	</g>
	<g>
		<path class="st1" d="M-37.1,64.8h0.2v-0.2h-0.2V64.8z M-36.2,65.2l0.2,0.2l0.2-0.2L-36,65L-36.2,65.2z M-37.5,63.6l-0.2,0.2
			l0.2,0.2l0.2-0.2L-37.5,63.6z M-35.1,64.8h0.2v-0.2h-0.2V64.8z M-36.9,62.6h-0.2v0.2h0.2V62.6z M-34.9,62.6h-0.2v0.2h0.2V62.6z
			 M-35.8,62.3l-0.2-0.2l-0.2,0.2l0.2,0.2L-35.8,62.3z M-34.7,64.1l-0.2-0.4l0.2-0.3l-0.3,0.3h-0.5l0.2-0.3l-0.3-0.1l0.3-0.3h0.4
			l-0.4-0.1l-0.1-0.4v0.4l-0.3,0.3l0-0.3l-0.3,0.2v-0.4l0.3-0.3l-0.3,0.2l-0.4-0.2l0.3,0.3v0.4l-0.3-0.2l0,0.3l-0.3-0.3v-0.4
			l-0.1,0.4l-0.4,0.1h0.4l0.3,0.3l-0.3,0.1l0.2,0.2h-0.5l-0.3-0.3l0.1,0.4l-0.1,0.4l0.3-0.3h0.5l-0.2,0.3l0.3,0.1l-0.3,0.3h-0.4
			l0.4,0.1l0.1,0.4l0-0.4l0.3-0.3l0.1,0.3l0.3-0.2v0.5l-0.3,0.3l0.4-0.2l0.3,0.2l-0.3-0.3v-0.5l0.3,0.2l0-0.3l0.3,0.3l0,0.4l0.1-0.4
			l0.4-0.1h-0.4l-0.3-0.3l0.3-0.1l-0.2-0.2h0.5L-34.7,64.1z M-36.4,63.5l0.2,0.2h-0.3L-36.4,63.5z M-36.3,64l-0.1-0.2h0.3L-36.3,64z
			 M-36.1,64.1l-0.2-0.1l0.2-0.2V64.1z M-36.1,63.6l-0.2-0.2l0.2-0.1V63.6z M-35.7,63.5l0.1,0.2h-0.3L-35.7,63.5z M-35.9,63.3
			l0.2,0.1l-0.2,0.2V63.3z M-35.9,64.2v-0.3l0.2,0.2L-35.9,64.2z M-35.7,64l-0.2-0.2h0.3L-35.7,64z M-34.6,63.5l-0.2,0.2l0.2,0.2
			l0.2-0.2L-34.6,63.5z"/>
	</g>
	<g>
		<path class="st1" d="M-42.9,71.1h0.2v-0.2h-0.2V71.1z M-42,71.4l0.2,0.2l0.2-0.2l-0.2-0.2L-42,71.4z M-43.2,69.8l-0.2,0.2l0.2,0.2
			l0.2-0.2L-43.2,69.8z M-40.9,71.1h0.2v-0.2h-0.2V71.1z M-42.7,68.8h-0.2v0.2h0.2V68.8z M-40.7,68.8h-0.2v0.2h0.2V68.8z
			 M-41.6,68.5l-0.2-0.2l-0.2,0.2l0.2,0.2L-41.6,68.5z M-40.4,70.3l-0.2-0.4l0.2-0.3l-0.3,0.3h-0.5l0.2-0.3l-0.3-0.1l0.3-0.3h0.4
			l-0.4-0.1l-0.1-0.4v0.4l-0.3,0.3l0-0.3l-0.3,0.2v-0.4l0.3-0.3l-0.3,0.2l-0.4-0.2l0.3,0.3v0.4l-0.3-0.2l0,0.3l-0.3-0.3v-0.4
			l-0.1,0.4l-0.4,0.1h0.4l0.3,0.3l-0.3,0.1l0.2,0.2h-0.5l-0.3-0.3l0.1,0.4l-0.1,0.4l0.3-0.3h0.5l-0.2,0.3l0.3,0.1l-0.3,0.3H-43
			l0.4,0.1l0.1,0.4l0-0.4l0.3-0.3l0.1,0.3l0.3-0.2V71l-0.3,0.3l0.4-0.2l0.3,0.2l-0.3-0.3v-0.5l0.3,0.2l0-0.3l0.3,0.3l0,0.4l0.1-0.4
			l0.4-0.1H-41l-0.3-0.3l0.3-0.1l-0.2-0.2h0.5L-40.4,70.3z M-42.1,69.7l0.2,0.2h-0.3L-42.1,69.7z M-42.1,70.2l-0.1-0.2h0.3
			L-42.1,70.2z M-41.9,70.4l-0.2-0.1l0.2-0.2V70.4z M-41.9,69.8l-0.2-0.2l0.2-0.1V69.8z M-41.4,69.7l0.1,0.2h-0.3L-41.4,69.7z
			 M-41.7,69.5l0.2,0.1l-0.2,0.2V69.5z M-41.7,70.4v-0.3l0.2,0.2L-41.7,70.4z M-41.5,70.2l-0.2-0.2h0.3L-41.5,70.2z M-40.4,69.8
			l-0.2,0.2l0.2,0.2l0.2-0.2L-40.4,69.8z"/>
	</g>
	<g>
		<path class="st1" d="M-39.1,68h0.2v-0.2h-0.2V68z M-38.5,68.2l0.1,0.1l0.1-0.1l-0.1-0.1L-38.5,68.2z M-39.3,67.1l-0.1,0.1l0.1,0.1
			l0.1-0.1L-39.3,67.1z M-37.7,68h0.2v-0.2h-0.2V68z M-38.9,66.4h-0.2v0.2h0.2V66.4z M-37.5,66.4h-0.2v0.2h0.2V66.4z M-38.2,66.2
			l-0.1-0.1l-0.1,0.1l0.1,0.1L-38.2,66.2z M-37.4,67.4l-0.1-0.3l0.1-0.2l-0.2,0.2h-0.3l0.1-0.2l-0.2,0l0.2-0.2h0.3l-0.3-0.1
			l-0.1-0.3v0.3l-0.2,0.2l0-0.2l-0.2,0.1v-0.3l0.2-0.2l-0.2,0.1l-0.3-0.1l0.2,0.2v0.3l-0.2-0.1l0,0.2l-0.2-0.2v-0.3l-0.1,0.3
			l-0.3,0.1h0.3l0.2,0.2l-0.2,0.1l0.1,0.2h-0.3l-0.2-0.2l0.1,0.3l-0.1,0.2l0.2-0.2h0.3l-0.1,0.2l0.2,0l-0.2,0.2h-0.3l0.3,0.1
			l0.1,0.3l0-0.3l0.2-0.2l0,0.2l0.2-0.1v0.3l-0.2,0.2l0.2-0.1l0.2,0.1l-0.2-0.2v-0.3l0.2,0.1l0-0.2l0.2,0.2l0,0.3l0.1-0.2l0.3-0.1
			h-0.3l-0.2-0.2l0.2-0.1l-0.1-0.2h0.3L-37.4,67.4z M-38.6,67l0.1,0.1h-0.2L-38.6,67z M-38.6,67.4l-0.1-0.1h0.2L-38.6,67.4z
			 M-38.4,67.5l-0.1-0.1l0.1-0.1V67.5z M-38.4,67.1l-0.1-0.1l0.1-0.1V67.1z M-38.1,67l0,0.1h-0.2L-38.1,67z M-38.3,66.9l0.1,0.1
			l-0.1,0.1V66.9z M-38.3,67.5v-0.2l0.1,0.1L-38.3,67.5z M-38.1,67.4l-0.1-0.1h0.2L-38.1,67.4z M-37.3,67.1l-0.1,0.1l0.1,0.1
			l0.1-0.1L-37.3,67.1z"/>
	</g>
	<g>
		<path class="st1" d="M-40.8,64.7h0.1v-0.1h-0.1V64.7z M-40.3,64.9L-40.3,64.9h0.2H-40.3L-40.3,64.9z M-40.9,64.1L-40.9,64.1l0,0.2
			L-40.9,64.1L-40.9,64.1z M-39.8,64.7h0.1v-0.1h-0.1V64.7z M-40.6,63.6h-0.1v0.1h0.1V63.6z M-39.7,63.6h-0.1v0.1h0.1V63.6z
			 M-40.1,63.5L-40.1,63.5h-0.2H-40.1L-40.1,63.5z M-39.6,64.4l-0.1-0.2l0.1-0.2l-0.1,0.1h-0.2l0.1-0.1l-0.1,0l0.2-0.2h0.2l-0.2-0.1
			l-0.1-0.2v0.2l-0.2,0.2l0-0.2l-0.1,0.1v-0.2l0.1-0.1l-0.2,0.1l-0.2-0.1l0.1,0.1v0.2l-0.1-0.1l0,0.1l-0.2-0.2v-0.2l-0.1,0.2
			l-0.2,0.1h0.2l0.2,0.2l-0.2,0l0.1,0.1h-0.2l-0.1-0.1l0.1,0.2l-0.1,0.2l0.1-0.1h0.2l-0.1,0.1l0.2,0l-0.2,0.2h-0.2l0.2,0.1l0.1,0.2
			l0-0.2l0.2-0.2l0,0.2l0.1-0.1v0.2l-0.1,0.1l0.2-0.1l0.2,0.1l-0.1-0.1v-0.2l0.1,0.1l0-0.2l0.2,0.2l0,0.2l0.1-0.2l0.2-0.1h-0.2
			l-0.2-0.2l0.2,0l-0.1-0.1h0.2L-39.6,64.4z M-40.4,64.1L-40.4,64.1L-40.4,64.1L-40.4,64.1z M-40.4,64.3L-40.4,64.3L-40.4,64.3
			L-40.4,64.3z M-40.2,64.4L-40.2,64.4v-0.1V64.4z M-40.2,64.1L-40.2,64.1V64V64.1z M-40,64.1L-40,64.1L-40,64.1L-40,64.1z
			 M-40.2,64L-40.2,64v0.1V64z M-40.2,64.4v-0.1V64.4L-40.2,64.4z M-40,64.3L-40,64.3L-40,64.3L-40,64.3z M-39.5,64.1L-39.5,64.1
			v0.2V64.1L-39.5,64.1z"/>
	</g>
	<g>
		<path class="st1" d="M-35.7,68.2h0.1v-0.1h-0.1V68.2z M-35.2,68.4L-35.2,68.4h0.2H-35.2L-35.2,68.4z M-35.9,67.5L-35.9,67.5l0,0.2
			L-35.9,67.5L-35.9,67.5z M-34.6,68.2h0.1v-0.1h-0.1V68.2z M-35.6,66.9h-0.1v0.1h0.1V66.9z M-34.5,66.9h-0.1v0.1h0.1V66.9z
			 M-35,66.8L-35,66.8h-0.2H-35L-35,66.8z M-34.4,67.8l-0.1-0.2l0.1-0.2l-0.2,0.2h-0.3l0.1-0.1l-0.2,0l0.2-0.2h0.2l-0.2-0.1
			l-0.1-0.2v0.2l-0.2,0.2l0-0.2l-0.1,0.1V67l0.2-0.2l-0.2,0.1l-0.2-0.1l0.2,0.2v0.2l-0.2-0.1l0,0.2l-0.2-0.2v-0.2l-0.1,0.2l-0.2,0.1
			h0.2l0.2,0.2l-0.2,0l0.1,0.1h-0.3l-0.2-0.2l0.1,0.2l-0.1,0.2l0.2-0.2h0.3l-0.1,0.1l0.2,0l-0.2,0.2h-0.2l0.2,0.1l0.1,0.2l0-0.2
			l0.2-0.2l0,0.2l0.2-0.1v0.3l-0.2,0.2l0.2-0.1l0.2,0.1l-0.2-0.2v-0.3l0.1,0.1l0-0.2l0.2,0.2l0,0.2l0.1-0.2l0.2-0.1h-0.2l-0.2-0.2
			l0.2-0.1l-0.1-0.1h0.3L-34.4,67.8z M-35.3,67.4l0.1,0.1h-0.1L-35.3,67.4z M-35.3,67.7l0-0.1h0.1L-35.3,67.7z M-35.1,67.8l-0.1,0
			l0.1-0.1V67.8z M-35.1,67.5l-0.1-0.1l0.1,0V67.5z M-34.9,67.4l0,0.1H-35L-34.9,67.4z M-35.1,67.3l0.1,0l-0.1,0.1V67.3z
			 M-35.1,67.8v-0.2l0.1,0.1L-35.1,67.8z M-34.9,67.7l-0.1-0.1h0.2L-34.9,67.7z M-34.3,67.5L-34.3,67.5v0.2V67.5L-34.3,67.5z"/>
	</g>
</g>
<g>
	<path class="st1" d="M20.3,9.8c1-0.9,1.5-2.3,1.1-3.7c-0.5-1.7-2.2-2.6-3.9-2.4c0.7,0.4,1.2,1.1,1.4,1.9c0.2,0.6,0.2,1.2,0.1,1.8
		c-0.5-0.5-1.2-0.8-2-0.8c-0.5,0-1,0.1-1.5,0.4c-0.3-1.6-1.7-2.7-3.4-2.7C10.5,4.4,9.2,5.6,9,7.1C8.7,7,8.4,7,8.1,7
		C6.6,7,5.4,8.2,5.4,9.7c0,0,0,0.1,0,0.1c-0.8,0.2-1.9,0.7-1.9,2.2c0,1.2,1,2.2,2.3,2.2l0.4-0.6c0,0-0.1,0-0.1,0l-0.1,0
		c-1,0-1.8-0.7-1.8-1.6c0-1.1,0.6-1.4,1.7-1.7L6,10.3l0-0.2l0-0.1c0-0.1,0-0.1,0-0.2c0-1.2,1-2.1,2.1-2.1c0.4,0,0.7,0.1,1,0.3
		l0.5,0.3l0-0.6c0-1.4,1.1-2.5,2.5-2.6l0.1,0c1.4,0,2.6,1.1,2.6,2.4c0,0,0,0.1,0,0.2l0,0.8l0.6-0.6c0.4-0.4,0.9-0.6,1.5-0.6
		c0.7,0,1.4,0.4,1.7,0.9C18.3,9,17.6,9.7,16.6,10c-0.2,0.1-0.3,0.1-0.5,0.1c0.8,0.5,1.9,0.7,2.9,0.4c0.2-0.1,0.4-0.1,0.6-0.2
		c0.6,0.2,1.1,0.8,1.1,1.5c0,0.8-0.5,1.7-1.3,1.9l0.2,0.6c1-0.3,1.8-1.4,1.7-2.5C21.4,10.9,20.9,10.2,20.3,9.8z"/>
	<rect x="7.1" y="13.8" class="st1" width="0.2" height="0.2"/>
	<path class="st1" d="M8.3,15.3l0-0.2l0.3,0.3l0,0.3l0.1-0.3l0.3-0.1H8.6L8.4,15l0.2-0.1l-0.1-0.2h0.4L9,15l-0.1-0.3L9,14.4
		l-0.2,0.2H8.5l0.1-0.2l-0.2,0l0.3-0.3h0.3l-0.3-0.1l-0.1-0.3v0.3l-0.2,0.3l0-0.2l-0.2,0.1v-0.3l0.2-0.2L8,13.8l-0.3-0.1L8,13.9v0.3
		l-0.2-0.1l0,0.2l-0.3-0.3v-0.3l-0.1,0.3l-0.3,0.1h0.3l0.3,0.2l-0.3,0.1l0.2,0.2H7.2L7,14.4l0.1,0.3L7,15l0.2-0.2h0.4L7.4,15l0.3,0
		l-0.3,0.3H7.1l0.3,0.1l0.1,0.3l0-0.3l0.2-0.2l0,0.2L8,15.2v0.4l-0.2,0.2L8,15.6l0.3,0.1l-0.2-0.2v-0.4L8.3,15.3z M8.3,14.9
		l-0.1-0.2h0.2L8.3,14.9z M8.3,14.5l0.1,0.1H8.1L8.3,14.5z M8.1,14.4l0.1,0.1l-0.1,0.1V14.4z M8.1,14.8L8.2,15L8.1,15V14.8z
		 M7.7,14.5l0.2,0.1H7.7L7.7,14.5z M7.7,14.9l-0.1-0.2h0.2L7.7,14.9z M8,15L7.8,15L8,14.8V15z M8,14.6l-0.1-0.1L8,14.4V14.6z"/>
	<rect x="8.7" y="15.4" class="st1" width="0.2" height="0.2"/>
	<polygon class="st1" points="7.9,15.8 8,16 8.1,15.8 8,15.7 	"/>
	<rect x="7.9" y="13.5" transform="matrix(0.708 -0.7062 0.7062 0.708 -7.2656 9.613)" class="st1" width="0.2" height="0.2"/>
	<rect x="8.7" y="13.8" class="st1" width="0.2" height="0.2"/>
	<polygon class="st1" points="9.2,14.7 9.1,14.6 9,14.7 9.1,14.8 	"/>
	<rect x="6.8" y="14.6" transform="matrix(0.7019 -0.7123 0.7123 0.7019 -8.4328 9.2884)" class="st1" width="0.2" height="0.2"/>
	<rect x="7.1" y="15.4" class="st1" width="0.2" height="0.2"/>
	<rect x="14.6" y="12.3" class="st1" width="0.2" height="0.2"/>
	<path class="st1" d="M15.4,14.8l0.4-0.2l0.3,0.2l-0.3-0.3v-0.5l0.3,0.2l0-0.3l0.3,0.3l0,0.4l0.1-0.4l0.4-0.1h-0.4l-0.3-0.3l0.3-0.1
		l-0.2-0.2h0.5l0.3,0.3l-0.2-0.4l0.2-0.3l-0.3,0.3h-0.5l0.2-0.3l-0.3-0.1l0.3-0.3h0.4l-0.4-0.1l-0.1-0.4v0.4L16.1,13l0-0.3l-0.3,0.2
		v-0.4l0.3-0.3l-0.3,0.2l-0.4-0.2l0.3,0.3v0.4l-0.3-0.2l0,0.3L15,12.7v-0.4l-0.1,0.4l-0.4,0.1h0.4l0.3,0.3l-0.3,0.1l0.2,0.2h-0.5
		l-0.3-0.3l0.1,0.4l-0.1,0.4l0.3-0.3h0.5l-0.2,0.3l0.3,0.1l-0.3,0.3h-0.4l0.4,0.1l0.1,0.4l0-0.4l0.3-0.3l0.1,0.3l0.3-0.2v0.5
		L15.4,14.8z M16.1,13.7l-0.2-0.2h0.3L16.1,13.7z M16.1,13.2l0.1,0.2h-0.3L16.1,13.2z M15.8,13.1l0.2,0.1l-0.2,0.2V13.1z M15.8,13.6
		l0.2,0.2l-0.2,0.1V13.6z M15.7,13.1v0.3l-0.2-0.2L15.7,13.1z M15.4,13.2l0.2,0.2h-0.3L15.4,13.2z M15.4,13.7l-0.1-0.2h0.3
		L15.4,13.7z M15.5,13.8l0.2-0.2v0.3L15.5,13.8z"/>
	<rect x="14.6" y="14.4" class="st1" width="0.2" height="0.2"/>
	<polygon class="st1" points="15.9,14.9 15.7,14.7 15.5,14.9 15.7,15.1 	"/>
	<polygon class="st1" points="14.4,13.5 14.3,13.3 14.1,13.5 14.3,13.6 	"/>
	<rect x="16.6" y="14.4" class="st1" width="0.2" height="0.2"/>
	<polygon class="st1" points="17.1,13.3 17,13.5 17.1,13.6 17.3,13.5 	"/>
	<rect x="16.6" y="12.3" class="st1" width="0.2" height="0.2"/>
	<rect x="15.6" y="11.9" transform="matrix(0.7089 -0.7053 0.7053 0.7089 -3.9022 14.5769)" class="st1" width="0.2" height="0.2"/>
	<path class="st1" d="M11.3,20.1l-0.2-0.4l0.2-0.3L11,19.6h-0.5l0.2-0.3l-0.3-0.1l0.3-0.3h0.4l-0.4-0.1l-0.1-0.4v0.4l-0.3,0.3l0-0.3
		L10,19.1v-0.4l0.3-0.3l-0.3,0.2l-0.4-0.2l0.3,0.3v0.4l-0.3-0.2l0,0.3l-0.3-0.3v-0.4l-0.1,0.4L8.7,19h0.4l0.3,0.3l-0.3,0.1l0.2,0.2
		H8.9l-0.3-0.3l0.1,0.4l-0.1,0.4l0.3-0.3h0.5L9.1,20l0.3,0.1l-0.3,0.3H8.7l0.4,0.1l0.1,0.4l0-0.4l0.3-0.3l0.1,0.3l0.3-0.2v0.5
		L9.6,21l0.4-0.2l0.3,0.2L10,20.8v-0.5l0.3,0.2l0-0.3l0.3,0.3l0,0.4l0.1-0.4l0.4-0.1h-0.4l-0.3-0.3l0.3-0.1l-0.2-0.2H11L11.3,20.1z
		 M9.6,19.4l0.2,0.2H9.5L9.6,19.4z M9.6,19.9l-0.1-0.2h0.3L9.6,19.9z M9.9,20.1L9.7,20l0.2-0.2V20.1z M9.9,19.5l-0.2-0.2l0.2-0.1
		V19.5z M10.3,19.4l0.1,0.2h-0.3L10.3,19.4z M10,19.3l0.2,0.1L10,19.5V19.3z M10,20.1v-0.3l0.2,0.2L10,20.1z M10.3,19.9l-0.2-0.2
		h0.3L10.3,19.9z"/>
	<polygon class="st1" points="9.9,18.1 9.8,18.2 9.9,18.4 10.1,18.2 	"/>
	<rect x="10.8" y="18.6" class="st1" width="0.2" height="0.2"/>
	<rect x="8.8" y="18.6" class="st1" width="0.2" height="0.2"/>
	<rect x="8.8" y="20.6" class="st1" width="0.2" height="0.2"/>
	<polygon class="st1" points="8.5,19.5 8.3,19.7 8.5,19.9 8.7,19.7 	"/>
	<polygon class="st1" points="11.2,19.7 11.4,19.9 11.5,19.7 11.4,19.5 	"/>
	<rect x="10.8" y="20.6" class="st1" width="0.2" height="0.2"/>
	<polygon class="st1" points="9.8,21.1 9.9,21.3 10.1,21.1 9.9,21 	"/>
	<rect x="13.3" y="15.9" transform="matrix(0.7105 -0.7037 0.7037 0.7105 -7.3377 14.0357)" class="st1" width="0.2" height="0.2"/>
	<rect x="14" y="16.2" class="st1" width="0.2" height="0.2"/>
	<path class="st1" d="M14.3,17.2l-0.1-0.3l0.1-0.2l-0.2,0.2h-0.3l0.1-0.2l-0.2,0l0.2-0.2h0.3L14,16.4l-0.1-0.3v0.3l-0.2,0.2l0-0.2
		l-0.2,0.1v-0.3l0.2-0.2l-0.2,0.1L13.2,16l0.2,0.2v0.3l-0.2-0.1l0,0.2l-0.2-0.2v-0.3l-0.1,0.3l-0.3,0.1h0.3l0.2,0.2l-0.2,0.1
		l0.1,0.2h-0.3l-0.2-0.2l0.1,0.2l-0.1,0.2l0.2-0.2H13l-0.1,0.2l0.2,0l-0.2,0.2h-0.3l0.3,0.1l0.1,0.3l0-0.3l0.2-0.2l0,0.2l0.2-0.1
		v0.3l-0.2,0.2l0.2-0.1l0.2,0.1l-0.2-0.2v-0.3l0.2,0.1l0-0.2l0.2,0.2l0,0.3l0.1-0.2l0.3-0.1H14l-0.2-0.2l0.2-0.1L13.8,17h0.3
		L14.3,17.2z M13.2,16.8l0.1,0.1h-0.2L13.2,16.8z M13.2,17.1L13.1,17h0.2L13.2,17.1z M13.4,17.2l-0.1-0.1l0.1-0.1V17.2z M13.4,16.8
		l-0.1-0.1l0.1-0.1V16.8z M13.6,16.8l0,0.1h-0.2L13.6,16.8z M13.4,16.7l0.1,0.1l-0.1,0.1V16.7z M13.4,17.2v-0.2l0.1,0.1L13.4,17.2z
		 M13.6,17.1L13.5,17h0.2L13.6,17.1z"/>
	<rect x="12.6" y="16.2" class="st1" width="0.2" height="0.2"/>
	<polygon class="st1" points="12.4,16.8 12.3,17 12.4,17.1 12.5,17 	"/>
	<polygon class="st1" points="14.3,16.9 14.4,17.1 14.5,16.9 14.4,16.8 	"/>
	<rect x="14" y="17.6" class="st1" width="0.2" height="0.2"/>
	<rect x="12.6" y="17.6" class="st1" width="0.2" height="0.2"/>
	<rect x="13.3" y="17.9" transform="matrix(0.705 -0.7092 0.7092 0.705 -8.7754 14.7933)" class="st1" width="0.2" height="0.2"/>
	<rect x="11" y="13.4" class="st1" width="0.1" height="0.1"/>
	<path class="st1" d="M12.2,14.1l-0.1-0.2l0.1-0.2L12,13.9h-0.2l0.1-0.1l-0.1,0l0.2-0.2h0.2l-0.2-0.1l-0.1-0.2v0.2l-0.2,0.2l0-0.2
		l-0.1,0.1v-0.2l0.1-0.1l-0.2,0.1l-0.2-0.1l0.1,0.1v0.2l-0.1-0.1l0,0.1l-0.2-0.2v-0.2l-0.1,0.2l-0.2,0.1h0.2l0.2,0.2l-0.2,0l0.1,0.1
		H11l-0.1-0.1l0.1,0.2l-0.1,0.2L11,14h0.2l-0.1,0.1l0.2,0l-0.2,0.2h-0.2l0.2,0.1l0.1,0.2l0-0.2l0.2-0.2l0,0.2l0.1-0.1v0.2l-0.1,0.1
		l0.2-0.1l0.2,0.1l-0.1-0.1v-0.2l0.1,0.1l0-0.2l0.2,0.2l0,0.2l0.1-0.2l0.2-0.1h-0.2l-0.2-0.2l0.2,0L11.8,14H12L12.2,14.1z
		 M11.3,13.8L11.3,13.8L11.3,13.8L11.3,13.8z M11.4,14.1L11.4,14.1L11.4,14.1L11.4,14.1z M11.5,14.1L11.5,14.1V14V14.1z M11.5,13.8
		L11.5,13.8v-0.1V13.8z M11.7,13.8L11.7,13.8L11.7,13.8L11.7,13.8z M11.6,13.7L11.6,13.7v0.1V13.7z M11.6,14.1V14V14.1L11.6,14.1z
		 M11.7,14.1L11.7,14.1L11.7,14.1L11.7,14.1z"/>
	<rect x="11.5" y="13.2" transform="matrix(0.7079 -0.7064 0.7064 0.7079 -5.9684 11.9919)" class="st1" width="0.1" height="0.1"/>
	<polygon class="st1" points="12.2,13.8 12.1,13.9 12.2,14 12.3,13.9 	"/>
	<rect x="11" y="14.4" class="st1" width="0.1" height="0.1"/>
	<rect x="12" y="13.4" class="st1" width="0.1" height="0.1"/>
	<polygon class="st1" points="10.8,13.8 10.7,13.9 10.8,14 10.9,13.9 	"/>
	<polygon class="st1" points="11.4,14.6 11.5,14.7 11.6,14.6 11.5,14.5 	"/>
	<rect x="11.9" y="14.4" class="st1" width="0.1" height="0.1"/>
	<polygon class="st1" points="16.5,18.1 16.6,18.2 16.7,18.1 16.6,18 	"/>
	<rect x="17.3" y="17.3" transform="matrix(0.7012 -0.713 0.713 0.7012 -7.1491 17.5893)" class="st1" width="0.1" height="0.1"/>
	<rect x="16" y="17.8" class="st1" width="0.1" height="0.1"/>
	<path class="st1" d="M17.4,17.5l-0.1-0.2l0.1-0.2l-0.2,0.2H17l0.1-0.1l-0.2,0l0.2-0.2h0.2l-0.2-0.1L17,16.7v0.2l-0.2,0.2l0-0.2
		L16.7,17v-0.2l0.2-0.2l-0.2,0.1l-0.2-0.1l0.2,0.2V17l-0.2-0.1l0,0.2l-0.2-0.2v-0.2l-0.1,0.2l-0.2,0.1h0.2l0.2,0.2l-0.2,0l0.1,0.1
		H16l-0.2-0.2l0.1,0.2l-0.1,0.2l0.2-0.2h0.3l-0.1,0.1l0.2,0l-0.2,0.2h-0.2l0.2,0.1l0.1,0.2l0-0.2l0.2-0.2l0,0.2l0.2-0.1v0.3
		l-0.2,0.2l0.2-0.1l0.2,0.1l-0.2-0.2v-0.3l0.1,0.1l0-0.2l0.2,0.2l0,0.2l0.1-0.2l0.2-0.1h-0.2l-0.2-0.2l0.2-0.1L17,17.4h0.3
		L17.4,17.5z M16.4,17.2l0.1,0.1h-0.1L16.4,17.2z M16.4,17.5l0-0.1h0.1L16.4,17.5z M16.6,17.6L16.6,17.6v-0.2V17.6z M16.6,17.2
		l-0.1-0.1l0.1,0V17.2z M16.8,17.2l0,0.1h-0.1L16.8,17.2z M16.7,17.1l0.1,0l-0.1,0.1V17.1z M16.7,17.6v-0.2l0.1,0.1L16.7,17.6z
		 M16.8,17.5l-0.1-0.1h0.2L16.8,17.5z"/>
	<rect x="17.1" y="17.8" class="st1" width="0.1" height="0.1"/>
	<rect x="17.1" y="16.7" class="st1" width="0.1" height="0.1"/>
	<polygon class="st1" points="16.6,16.6 16.7,16.5 16.6,16.4 16.5,16.5 	"/>
	<rect x="16" y="16.7" class="st1" width="0.1" height="0.1"/>
	<polygon class="st1" points="15.8,17.2 15.7,17.3 15.8,17.4 15.9,17.3 	"/>
</g>
</svg>
