<?xml version="1.0" encoding="utf-8"?>
<!-- Generator: Adobe Illustrator 20.1.0, SVG Export Plug-In . SVG Version: 6.00 Build 0)  -->
<svg version="1.1" id="Layer_1" xmlns="http://www.w3.org/2000/svg" xmlns:xlink="http://www.w3.org/1999/xlink" x="0px" y="0px"
	 viewBox="0 0 25 25" style="enable-background:new 0 0 25 25;" xml:space="preserve">
<style type="text/css">
	.st0{fill:none;stroke:#FFFFFF;stroke-width:1.5056;stroke-linecap:round;stroke-linejoin:round;stroke-miterlimit:10;}
</style>
<g>
	<path class="st0" d="M18.8,6.6c-0.1,0-0.2,0-0.4,0c0,0,0-0.1,0-0.1c0-2.8-2.3-5.1-5.1-5.1c-2.6,0-4.8,1.9-5.1,4.5
		c-0.2,0-0.3,0-0.5,0C6.2,5.8,4.9,7,4.9,8.6c0,0.1,0,0.2,0,0.2c-0.2,0-0.4,0-0.5,0c-2,0-3.7,1.6-3.7,3.7c0,2,1.6,3.7,3.7,3.7
		c2,0,11.9,0,14.4,0c2.6,0,4.8-2.1,4.8-4.8S21.5,6.6,18.8,6.6z"/>
	<g>
		<g>
			<line class="st0" x1="6.1" y1="18.4" x2="4.7" y2="20.5"/>
			<line class="st0" x1="11.8" y1="18.4" x2="10.4" y2="20.5"/>
			<line class="st0" x1="17.4" y1="18.4" x2="16.1" y2="20.5"/>
		</g>
		<g>
			<line class="st0" x1="7.6" y1="21.6" x2="6.3" y2="23.7"/>
			<line class="st0" x1="13.3" y1="21.6" x2="11.9" y2="23.7"/>
		</g>
	</g>
</g>
</svg>
