<?xml version="1.0" encoding="utf-8"?>
<!-- Generator: Adobe Illustrator 20.1.0, SVG Export Plug-In . SVG Version: 6.00 Build 0)  -->
<svg version="1.1" id="Layer_1" xmlns="http://www.w3.org/2000/svg" xmlns:xlink="http://www.w3.org/1999/xlink" x="0px" y="0px"
	 viewBox="0 0 50 50" style="enable-background:new 0 0 50 50;" xml:space="preserve">
<style type="text/css">
	.st0{fill:none;stroke:#FFFFFF;stroke-width:3.3015;stroke-linecap:round;stroke-linejoin:round;stroke-miterlimit:10;}
	.st1{fill:none;stroke:#FFFFFF;stroke-width:2.4356;stroke-linecap:round;stroke-linejoin:round;stroke-miterlimit:10;}
	.st2{fill:#FFFFFF;}
</style>
<g>
	<path class="st0" d="M97.4,24c-2.1-3.6,3.2-7.9,8.1-4c4.9,3.9,0.3,12-4.8,12c-5.1,0-16,0-16,0"/>
	<path class="st0" d="M77.4,37.4c0,0,15.1,0,17.6,0c2.6,0,8.8,0.5,8.8,5.6c0,5.1-6.3,8.8-9.3,3.2"/>
	<path class="st0" d="M106.7,36.6c0,0,5.1,0,6.9,0s5.8,0.3,6.8,3.3c1,3-1,4.7-2.6,5.2c-1.6,0.5-4.7,0.1-5.1-2.4"/>
</g>
<g>
	<path class="st1" d="M30.1,27.2V10.7c0-2.8-2.3-5.1-5.1-5.1s-5.1,2.3-5.1,5.1v16.5c-2.6,1.7-4.2,4.5-4.2,7.8c0,5.1,4.2,9.3,9.3,9.3
		c5.1,0,9.3-4.2,9.3-9.3C34.3,31.8,32.6,28.9,30.1,27.2z"/>
	<path class="st2" d="M25,41.1c-3.4,0-6.1-2.7-6.1-6.1c0-2.1,1-4,2.8-5.1l1.5-0.9V18.1h3.7V29l1.5,0.9c1.7,1.1,2.8,3,2.8,5.1
		C31.1,38.4,28.4,41.1,25,41.1z"/>
</g>
</svg>
