<?xml version="1.0" encoding="utf-8"?>
<!-- Generator: Adobe Illustrator 20.1.0, SVG Export Plug-In . SVG Version: 6.00 Build 0)  -->
<svg version="1.1" id="Layer_1" xmlns="http://www.w3.org/2000/svg" xmlns:xlink="http://www.w3.org/1999/xlink" x="0px" y="0px"
	 viewBox="0 0 50 50" style="enable-background:new 0 0 50 50;" xml:space="preserve">
<style type="text/css">
	.st0{fill:none;stroke:#FFFFFF;stroke-width:3.3015;stroke-linecap:round;stroke-linejoin:round;stroke-miterlimit:10;}
</style>
<g>
	<path class="st0" d="M23.5,14.6c-2.1-3.6,3.2-7.9,8.1-4c4.9,3.9,0.3,12-4.8,12c-5.1,0-16,0-16,0"/>
	<path class="st0" d="M3.5,27.9c0,0,15.1,0,17.6,0c2.6,0,8.8,0.5,8.8,5.6c0,5.1-6.3,8.8-9.3,3.2"/>
	<path class="st0" d="M32.8,27.2c0,0,5.1,0,6.9,0c1.8,0,5.8,0.3,6.8,3.3c1,3-1,4.7-2.6,5.2c-1.6,0.5-4.7,0.1-5.1-2.4"/>
</g>
</svg>
